<svg width="162" height="161" viewBox="0 0 162 161" fill="none" xmlns="http://www.w3.org/2000/svg">
<path d="M155.959 62.3422C154.216 40.8598 153.341 30.1186 149.285 23.1725C137.673 3.27138 103.89 -1.45521 82.56 0.356072C53.9966 2.78262 21.3247 19.1934 6.93945 50.8707C-6.12239 79.6443 -0.0978329 112.213 19.5812 133.517C55.6653 172.572 130.095 165.597 148.272 139.974C155.528 129.745 156.051 113.409 156.817 89.4137C157.197 77.8617 156.472 68.6558 155.959 62.3422Z" fill="#536BDB"/>
<path d="M142.274 13.145C140.427 11.6154 137.624 10.7874 135.259 10.6207C118.475 9.43039 116.023 44.4888 118.596 52.3262C121.168 60.1636 119.499 62.7338 106.282 66.8337C93.0645 70.9335 99.4056 78.8226 101.017 83.44C102.628 88.0573 105.816 91.9559 96.1833 96.5387C86.5451 101.127 89.894 103.968 89.894 103.968C89.894 103.968 107.663 122.132 106.684 116.319C105.701 110.506 107.479 101.72 123.412 101.053C130.276 100.765 140.783 97.4932 143.114 90.1503C143.655 88.4426 144.034 85.8263 143.62 84.061C143.05 81.6057 141.434 79.6737 140.542 77.3621C138.453 71.98 143.689 68.0354 146.699 64.4359C148.269 62.5556 149.84 60.6293 151.049 58.4845C153.546 54.0339 152.614 49.2671 149.892 45.1673C148.586 43.2007 146.773 41.1135 146.204 38.7674C145.594 36.2489 146.123 32.8046 146.273 30.217C146.388 28.1872 146.578 26.1574 146.468 24.1219C146.25 20.3268 145.358 15.6923 142.274 13.145Z" fill="url(#paint0_linear_2_3602)"/>
<g opacity="0.8">
<g opacity="0.8">
<path opacity="0.8" d="M88.4967 114.163C88.3816 114.203 88.2493 114.157 88.1917 114.042C88.1284 113.921 88.1745 113.772 88.2953 113.708C88.3701 113.668 95.8504 109.735 104.2 103.26C111.887 97.2918 121.911 87.8846 125.967 76.9422C129.357 67.8053 132.447 52.6997 134.443 35.5012C136.239 20.0794 136.52 8.6712 135.755 6.55516C135.709 6.42866 135.778 6.28491 135.905 6.23891C136.031 6.19291 136.175 6.26191 136.221 6.38841C137.113 8.86671 136.549 21.6779 134.932 35.5587C132.93 52.7975 129.828 67.9433 126.428 77.1147C122.331 88.1664 112.238 97.6483 104.493 103.657C96.1151 110.161 88.6003 114.111 88.5255 114.145C88.5197 114.151 88.5082 114.157 88.4967 114.163Z" fill="white"/>
</g>
<g opacity="0.8">
<path opacity="0.8" d="M134.418 38.4901C134.291 38.5361 134.159 38.5016 134.113 38.3751C134.049 38.2083 127.795 21.3835 119.727 17.5827C119.601 17.5252 119.555 17.3814 119.612 17.2607C119.67 17.1342 119.82 17.0882 119.946 17.1457C128.198 21.0328 134.326 37.5011 134.585 38.2026C134.625 38.3291 134.55 38.4441 134.418 38.4901Z" fill="white"/>
</g>
<g opacity="0.8">
<path opacity="0.8" d="M131.363 58.0024C131.265 58.0369 131.156 58.0081 131.087 57.9276C131.001 57.8241 131.012 57.6631 131.121 57.5769C131.167 57.5366 135.777 53.7646 141.456 50.5962C149.138 46.3124 155.024 45.1221 158.948 47.0427C159.069 47.1002 159.121 47.2497 159.063 47.3762C159 47.4969 158.856 47.5487 158.73 47.4912C149.69 43.0636 131.616 57.8126 131.432 57.9621C131.415 57.9794 131.392 57.9909 131.363 58.0024Z" fill="white"/>
</g>
<g opacity="0.8">
<path opacity="0.8" d="M111.305 97.8778C111.282 97.8893 111.254 97.8893 111.225 97.8951C111.087 97.8951 110.978 97.7858 110.972 97.6536C110.972 97.5788 110.845 90.3625 109.332 82.7608C107.945 75.7859 105.085 67.0515 99.3197 65.039C99.1931 64.993 99.124 64.855 99.1701 64.7227C99.2161 64.5905 99.3542 64.5272 99.4865 64.5732C104.291 66.2523 107.772 72.3416 109.821 82.6688C111.34 90.3164 111.467 97.5731 111.472 97.6478C111.472 97.7456 111.403 97.8376 111.305 97.8778Z" fill="white"/>
</g>
<g opacity="0.8">
<path opacity="0.8" d="M121.57 86.2177C121.472 86.2522 121.351 86.2234 121.288 86.1314C121.207 86.0222 121.23 85.8669 121.339 85.7864C122.139 85.1942 140.99 71.3479 148.343 72.6704C148.476 72.6934 148.568 72.8257 148.545 72.9579C148.522 73.0902 148.389 73.1822 148.257 73.1592C141.11 71.8769 121.828 86.0452 121.639 86.1889C121.61 86.1947 121.593 86.2062 121.57 86.2177Z" fill="white"/>
</g>
</g>
<path d="M157.004 64.7794C155.784 62.7209 153.43 60.9901 151.255 60.0298C135.863 53.239 121.685 85.3993 121.455 93.6392C121.225 101.879 118.785 103.742 104.958 103.127C91.1306 102.512 94.4278 112.086 94.3817 116.973C94.3357 121.861 96.0159 126.61 85.3938 127.668C74.7717 128.726 76.964 132.533 76.964 132.533C76.964 132.533 87.5343 155.637 88.5816 149.829C89.6288 144.022 94.2724 136.362 109.492 141.124C116.046 143.176 127.042 143.648 131.72 137.524C132.808 136.098 134.051 133.769 134.258 131.964C134.551 129.462 133.688 127.093 133.631 124.615C133.492 118.842 139.753 116.898 143.804 114.535C145.921 113.299 148.05 112.017 149.909 110.406C153.77 107.066 154.501 102.259 153.327 97.4803C152.763 95.186 151.762 92.6099 152.021 90.2121C152.297 87.6361 153.966 84.577 154.978 82.185C155.772 80.3105 156.641 78.4704 157.222 76.5154C158.31 72.8813 159.046 68.2237 157.004 64.7794Z" fill="url(#paint1_linear_2_3602)"/>
<g opacity="0.8">
<g opacity="0.8">
<path opacity="0.8" d="M72.1931 141.65C72.0723 141.65 71.9629 141.558 71.9457 141.438C71.9284 141.3 72.0205 141.179 72.1586 141.156C72.2391 141.144 80.6114 139.971 90.658 136.7C99.9164 133.687 112.529 128.218 120.05 119.294C126.334 111.842 134.355 98.6742 142.06 83.1661C148.97 69.2624 153.096 58.6247 153.096 56.3707C153.096 56.2327 153.205 56.1234 153.343 56.1234C153.481 56.1234 153.591 56.2327 153.591 56.3707C153.591 59.0042 148.717 70.8667 142.503 83.3846C134.781 98.9272 126.736 112.129 120.43 119.61C112.829 128.626 100.124 134.135 90.8019 137.171C80.7149 140.454 72.3082 141.633 72.2219 141.645C72.2161 141.65 72.2046 141.65 72.1931 141.65Z" fill="white"/>
</g>
<g opacity="0.8">
<path opacity="0.8" d="M141.026 86.0247C140.888 86.0247 140.779 85.9212 140.779 85.7832C140.779 85.6049 140.589 67.6473 134.276 61.3395C134.179 61.2417 134.179 61.0865 134.276 60.9887C134.374 60.891 134.53 60.891 134.627 60.9887C141.078 67.4346 141.268 85.0299 141.274 85.7717C141.274 85.9212 141.164 86.0247 141.026 86.0247Z" fill="white"/>
</g>
<g opacity="0.8">
<path opacity="0.8" d="M131.548 103.298C131.444 103.298 131.352 103.235 131.312 103.132C131.266 103.005 131.335 102.861 131.462 102.815C131.519 102.798 137.13 100.797 143.551 99.739C152.228 98.3072 158.172 99.1697 161.216 102.309C161.314 102.407 161.308 102.562 161.211 102.66C161.113 102.758 160.957 102.752 160.86 102.654C153.857 95.4322 131.847 103.201 131.629 103.281C131.606 103.298 131.577 103.298 131.548 103.298Z" fill="white"/>
</g>
<g opacity="0.8">
<path opacity="0.8" d="M99.1754 134.044C99.1466 134.044 99.1236 134.038 99.0948 134.032C98.9625 133.986 98.8934 133.848 98.9394 133.716C98.9625 133.647 101.287 126.81 102.438 119.145C103.497 112.113 103.761 102.93 99.0143 99.0891C98.9049 99.0028 98.8934 98.8476 98.9797 98.7383C99.066 98.6291 99.2214 98.6176 99.3307 98.7038C103.284 101.907 104.498 108.813 102.927 119.226C101.765 126.937 99.4285 133.808 99.4055 133.877C99.371 133.975 99.2789 134.044 99.1754 134.044Z" fill="white"/>
</g>
<g opacity="0.8">
<path opacity="0.8" d="M112.771 126.534C112.661 126.534 112.563 126.465 112.535 126.355C112.494 126.223 112.569 126.085 112.701 126.045C113.651 125.757 136.086 119.099 142.554 122.831C142.675 122.9 142.715 123.049 142.646 123.17C142.577 123.291 142.427 123.331 142.306 123.262C136.017 119.639 113.075 126.453 112.845 126.522C112.817 126.534 112.794 126.534 112.771 126.534Z" fill="white"/>
</g>
</g>
<path d="M105.407 6.84101L105.229 8.11178C104.642 8.14053 104.06 8.21528 103.497 8.34179L103.019 7.15727C102.887 6.83526 102.518 6.68001 102.196 6.81226L100.159 7.65177C99.8312 7.78403 99.6758 8.15778 99.8024 8.47979L100.286 9.67581C99.7909 9.99207 99.3248 10.3428 98.8933 10.7396L97.869 9.94607C97.5928 9.73331 97.1901 9.78506 96.9772 10.0668L95.6077 11.8148C95.389 12.0966 95.4351 12.4934 95.7112 12.7119L96.7355 13.5111C96.465 14.0229 96.2349 14.5634 96.045 15.1327L94.7446 14.9602C94.3936 14.9142 94.0713 15.1614 94.0195 15.5122L93.6916 17.7145C93.6398 18.0652 93.8814 18.393 94.2324 18.439L95.5386 18.6115C95.5559 19.2095 95.6192 19.7902 95.7343 20.3595L94.5086 20.8713C94.1807 21.0093 94.0138 21.3888 94.1461 21.7223L94.9632 23.7981C95.0956 24.1316 95.4696 24.2868 95.7976 24.1488L97.0232 23.6371C97.3339 24.1373 97.6849 24.6088 98.0762 25.0516L97.2591 26.1096C97.0405 26.3971 97.0865 26.8054 97.3627 27.0239L99.1119 28.3982C99.3939 28.6167 99.7967 28.5649 100.021 28.2774L100.827 27.2251C101.345 27.5011 101.885 27.7254 102.455 27.9094L102.271 29.2262C102.219 29.5884 102.467 29.9162 102.818 29.9622L105.027 30.2497C105.378 30.2957 105.706 30.0427 105.758 29.6804L105.936 28.3752C106.535 28.3522 107.127 28.2717 107.703 28.1394L108.186 29.3469C108.319 29.6804 108.698 29.8414 109.026 29.6977L111.086 28.8237C111.414 28.6857 111.575 28.3004 111.437 27.9669L110.954 26.7709C111.46 26.4489 111.932 26.0751 112.369 25.6669L113.376 26.4489C113.658 26.6674 114.061 26.6099 114.28 26.3281L115.632 24.5398C115.845 24.2523 115.793 23.8441 115.511 23.6256L114.51 22.8493C114.78 22.3203 115.011 21.7625 115.189 21.1875L116.438 21.3485C116.789 21.3945 117.111 21.1415 117.157 20.7908L117.439 18.5827C117.485 18.232 117.237 17.9042 116.886 17.864L115.644 17.703C115.62 17.0992 115.54 16.5069 115.413 15.9377L116.57 15.4547C116.892 15.3167 117.048 14.9429 116.915 14.6152L116.069 12.5796C115.937 12.2519 115.563 12.1024 115.241 12.2346L114.078 12.7176C113.762 12.2231 113.405 11.7516 113.008 11.3203L113.773 10.3198C113.986 10.0438 113.935 9.64131 113.658 9.42856L111.921 8.09453C111.644 7.88178 111.247 7.93353 111.029 8.20953L110.258 9.21005C109.746 8.94555 109.205 8.72129 108.641 8.54879L108.813 7.28952C108.859 6.94451 108.618 6.62826 108.272 6.58225L106.103 6.3005C105.775 6.24875 105.459 6.49025 105.407 6.84101ZM97.7655 17.1107C98.3927 12.7521 102.392 9.69881 106.707 10.2681C111.017 10.8316 114.05 14.8107 113.468 19.1692C112.887 23.5566 108.877 26.6731 104.515 26.0981C100.153 25.5346 97.1325 21.498 97.7655 17.1107Z" fill="url(#paint2_diamond_2_3602)"/>
<path d="M72.1727 6.14963L71.8965 8.11042C70.9873 8.15067 70.0897 8.27142 69.2208 8.46693L68.4785 6.63839C68.2772 6.13813 67.7075 5.90238 67.2011 6.10938L64.0536 7.40316C63.5473 7.61016 63.3056 8.18517 63.507 8.68543L64.255 10.537C63.4955 11.02 62.7705 11.572 62.103 12.1815L60.5206 10.9567C60.0948 10.629 59.4734 10.7095 59.1396 11.1407L57.0279 13.8433C56.6884 14.2745 56.7632 14.8955 57.189 15.229L58.7771 16.4596C58.3571 17.2531 58.0003 18.0926 57.7126 18.9609L55.6987 18.6964C55.1578 18.6274 54.6572 19.0069 54.5766 19.5531L54.0702 22.9629C53.9897 23.5092 54.3637 24.0095 54.9046 24.0785L56.9243 24.343C56.9473 25.263 57.0509 26.1715 57.2292 27.0513L55.3361 27.839C54.824 28.0518 54.5766 28.6383 54.778 29.15L56.0382 32.3529C56.2395 32.8646 56.8207 33.1119 57.3328 32.8934L59.2259 32.0998C59.7035 32.8761 60.2444 33.6064 60.8486 34.2849L59.5827 35.9237C59.2432 36.3664 59.3122 37.0047 59.7438 37.3439L62.454 39.4657C62.8855 39.805 63.5185 39.7187 63.858 39.276L65.1066 37.6487C65.9065 38.0742 66.7466 38.425 67.6269 38.7067L67.345 40.7365C67.2644 41.2943 67.65 41.8003 68.1966 41.875L71.6145 42.3235C72.1612 42.3925 72.6675 42.0015 72.7423 41.4438L73.0185 39.4255C73.9507 39.3852 74.8599 39.2645 75.7518 39.0632L76.4998 40.9263C76.7069 41.4438 77.2881 41.6853 77.8002 41.4725L80.988 40.1212C81.5001 39.9027 81.7418 39.3105 81.5289 38.7987L80.7808 36.9472C81.5577 36.4469 82.2942 35.8777 82.9732 35.2452L84.5325 36.4584C84.9698 36.7977 85.5913 36.7114 85.925 36.2687L88.0138 33.5029C88.3475 33.0601 88.267 32.4276 87.8296 32.0941L86.2875 30.8981C86.7076 30.0816 87.0586 29.219 87.3348 28.322L89.2682 28.575C89.8091 28.644 90.3039 28.2588 90.3787 27.7125L90.816 24.297C90.8851 23.7507 90.5053 23.2504 89.9644 23.1814L88.0368 22.9284C87.9965 21.9969 87.8814 21.0827 87.68 20.1971L89.4638 19.4496C89.9644 19.2369 90.2061 18.6619 89.9932 18.1558L88.687 15.0048C88.4799 14.5045 87.9044 14.263 87.4038 14.47L85.6086 15.2175C85.1195 14.4528 84.5671 13.7283 83.9514 13.0555L85.1367 11.5087C85.4647 11.0775 85.3841 10.4622 84.9583 10.1345L82.2769 8.07592C81.8511 7.74816 81.2354 7.82866 80.9017 8.25992L79.7048 9.81245C78.9108 9.40419 78.0764 9.05919 77.2018 8.78893L77.4665 6.8454C77.5413 6.31064 77.1673 5.81613 76.6264 5.74713L73.2775 5.31012C72.7423 5.23537 72.2475 5.61487 72.1727 6.14963ZM60.3537 22.0372C61.3204 15.3038 67.5061 10.5772 74.1751 11.4512C80.8441 12.3252 85.528 18.4721 84.6304 25.217C83.727 32.0021 77.5298 36.8149 70.7917 35.9352C64.0536 35.0497 59.3813 28.8108 60.3537 22.0372Z" fill="url(#paint3_linear_2_3602)"/>
<path d="M68.9684 25.1446L54.3069 146.903C54.0882 148.726 55.3484 150.365 57.1091 150.543L118.166 157.242C121.906 157.472 123.955 155.563 124.185 153.625L139.577 24.1729C139.807 22.2408 137.972 20.4928 134.214 20.4928L72.5992 21.7923C70.8212 21.8211 69.187 23.3276 68.9684 25.1446Z" fill="#2C3D65"/>
<path d="M66.2174 24.9377L51.4753 147.306C51.2567 149.14 52.5168 150.784 54.2891 150.963L117.59 157.259C119.575 157.455 121.394 156.023 121.624 154.068L137.102 23.9486C137.332 22.0109 135.877 20.4468 133.868 20.4813L69.8655 21.5624C68.076 21.5911 66.436 23.1091 66.2174 24.9377Z" fill="url(#paint4_linear_2_3602)"/>
<path d="M67.4212 31.6825L53.7552 145.144C53.548 146.857 54.7334 148.392 56.3906 148.553L115.923 154.338C117.77 154.516 119.456 153.176 119.674 151.359L133.979 31.1592C134.192 29.3537 132.84 27.8932 130.975 27.9104L70.8334 28.5487C69.159 28.5717 67.6226 29.9805 67.4212 31.6825Z" fill="#D8DEE8"/>
<path d="M99.3437 24.8515C99.2631 25.5012 99.735 26.0245 100.391 26.0187C101.047 26.013 101.645 25.4725 101.72 24.8227C101.801 24.1672 101.329 23.6497 100.673 23.6554C100.017 23.6612 99.4185 24.2017 99.3437 24.8515Z" fill="url(#paint5_linear_2_3602)"/>
<path d="M77.7068 107.848C89.894 85.3302 108.1 78.591 113.584 55.3836C116.547 42.8369 114.527 30.8307 111.127 20.8657L133.867 20.4805C135.875 20.446 137.331 22.0043 137.101 23.9478L121.622 154.067C121.392 156.016 119.574 157.454 117.589 157.258L67.827 152.307C67.4587 132.13 72.2749 117.882 77.7068 107.848Z" fill="white"/>
<path d="M6.11938 37.847C6.11938 25.881 16.5631 16.1863 29.0956 16.1863C41.2598 16.1863 50.8576 25.375 50.8576 36.7085C50.8576 48.0419 41.2598 57.7193 29.0956 58.3404C16.5631 58.9786 6.11938 49.813 6.11938 37.847Z" fill="#005029"/>
<path d="M7.47217 36.8923C7.47217 24.9264 17.6167 15.2317 29.7866 15.2317C41.5998 15.2317 50.9215 24.4204 50.9215 35.7538C50.9215 47.0873 41.5998 56.7647 29.7866 57.3857C17.6109 58.024 7.47217 48.8583 7.47217 36.8923Z" fill="url(#paint6_linear_2_3602)"/>
<g opacity="0.5">
<path opacity="0.5" d="M10.9424 36.8042C10.9424 26.753 19.4642 18.6051 29.6893 18.6051C39.6151 18.6051 47.4465 26.3275 47.4465 35.8439C47.4465 45.3661 39.6151 53.4967 29.6893 54.0142C19.4642 54.5547 10.9424 46.8554 10.9424 36.8042Z" fill="white"/>
</g>
<path opacity="0.5" d="M28.9894 20.1474C38.9153 20.1474 46.7466 27.8698 46.7466 37.3862C46.7466 39.6518 46.2978 41.8311 45.4922 43.8551C46.7466 41.4171 47.4544 38.6915 47.4544 35.8395C47.4544 26.3173 39.623 18.6006 29.6972 18.6006C21.8083 18.6006 14.9437 23.448 12.2104 30.2791C15.3004 24.276 21.7105 20.1474 28.9894 20.1474Z" fill="white"/>
<path d="M21.2109 34.3436V43.1182C21.2109 45.654 23.3457 47.6551 25.9753 47.5861L32.489 47.4136C35.0841 47.3446 37.1786 45.2573 37.1786 42.7445V34.0618L21.2109 34.3436ZM27.2125 43.4115L28.4208 39.7487C27.903 39.4784 27.552 38.9552 27.552 38.3399C27.552 37.4371 28.3058 36.6954 29.2379 36.6781C30.1701 36.6609 30.9239 37.3739 30.9239 38.2709C30.9239 38.8804 30.5729 39.4209 30.055 39.7142L31.2634 43.3195L27.2125 43.4115Z" fill="white"/>
<path d="M35.3239 33.3089C34.6334 33.3204 34.0752 32.7857 34.0752 32.1129C34.0752 29.5368 31.9059 27.4611 29.236 27.4956C26.5546 27.5301 24.368 29.6691 24.368 32.2624C24.368 32.9352 23.7984 33.4929 23.0964 33.5044C22.3944 33.5159 21.8247 32.9754 21.8247 32.3026C21.8247 28.3523 25.1563 25.1035 29.236 25.0575C33.2927 25.0115 36.5725 28.1568 36.5725 32.0669C36.5725 32.7397 36.0144 33.2974 35.3239 33.3089Z" fill="white"/>
<path d="M50.41 83.3473C50.41 83.3473 49.9669 81.6855 50.2834 81.2658C50.5999 80.8402 52.516 79.144 52.3319 79.696C52.1477 80.248 51.8715 80.616 51.8715 80.616C51.8715 80.616 52.9073 81.0932 52.2398 81.812C51.5781 82.5308 51.3537 82.6975 51.3191 83.3415C51.2789 83.9913 50.8531 84.2156 50.41 83.3473Z" fill="url(#paint7_linear_2_3602)"/>
<path d="M31.9781 154.982C31.9781 154.982 31.7422 156.419 31.771 156.925C31.7998 157.437 37.4733 157.696 37.5309 157.316C37.5884 156.931 36.5929 156.327 35.8909 156.109C35.1889 155.896 33.1405 155.321 33.1405 155.321L31.9781 154.982Z" fill="url(#paint8_linear_2_3602)"/>
<path d="M33.3546 153.551L33.1762 155.333C33.1762 155.333 32.5145 155.77 31.9391 155.431L31.6514 153.488L33.3546 153.551Z" fill="url(#paint9_linear_2_3602)"/>
<path d="M21.8585 157.311C21.8585 157.311 21.6226 158.748 21.6514 159.254C21.6801 159.766 27.3537 160.025 27.4112 159.645C27.4688 159.26 26.4733 158.656 25.7713 158.438C25.0693 158.225 23.0208 157.65 23.0208 157.65L21.8585 157.311Z" fill="url(#paint10_linear_2_3602)"/>
<path d="M23.2318 155.88L23.0534 157.662C23.0534 157.662 22.3917 158.1 21.8163 157.76L21.5286 155.817L23.2318 155.88Z" fill="url(#paint11_linear_2_3602)"/>
<path d="M32.3246 106.957C32.9806 108.285 33.6365 109.613 34.2925 110.942C34.8219 118.52 35.0808 126.766 34.9139 135.581C34.7873 142.142 34.4363 148.352 33.9357 154.182C33.0496 154.142 32.1577 154.102 31.2716 154.062C29.9884 151.514 28.4693 147.65 28.3312 142.883C28.1874 137.91 29.695 137.248 29.5971 132.487C29.4705 126.317 26.8812 124.667 25.506 117.244C24.9766 114.403 24.6256 110.694 25.0456 106.198C27.4681 106.451 29.8963 106.704 32.3246 106.957Z" fill="url(#paint12_linear_2_3602)"/>
<path opacity="0.3" d="M25.0391 106.198C26.3511 106.336 27.663 106.474 28.975 106.606C31.3341 110.712 31.9959 114.99 31.5816 116.881C30.9946 119.555 29.4468 120.412 29.5273 123.097C29.6137 125.754 31.1788 126.444 32.1742 129.578C32.8647 131.745 32.6806 133.741 32.2893 137.639C31.501 145.494 29.6022 147.898 31.1903 150.474C31.6449 151.204 32.4562 152.078 34.0501 152.745C34.0098 153.228 33.9753 153.711 33.9292 154.188C33.0431 154.148 32.1512 154.108 31.2651 154.067C29.9819 151.52 28.4628 147.656 28.3247 142.889C28.1809 137.915 29.6885 137.254 29.5906 132.493C29.4641 126.323 26.8747 124.673 25.4995 117.249C24.9701 114.409 24.6133 110.7 25.0391 106.198Z" fill="url(#paint13_linear_2_3602)"/>
<path d="M28.7951 109.349C27.5637 116.054 26.4762 123.235 25.6304 130.849C24.6061 140.037 24.0595 148.703 23.8466 156.753C22.8684 156.782 21.8959 156.81 20.9178 156.833C17.074 149.232 16.8381 144.08 17.3905 140.722C17.6034 139.428 18.1845 136.892 18.3169 133.103C18.409 130.463 18.2421 128.451 18.0292 126.036C17.5689 120.74 17.005 119.584 16.9244 115.53C16.8496 111.729 16.8323 109.803 17.9199 108.682C20.7854 105.726 28.2312 109.09 28.7951 109.349Z" fill="url(#paint14_linear_2_3602)"/>
<path d="M49.9035 83.0944C50.5538 83.0484 51.204 83.0024 51.8484 82.9564C53.379 89.1378 52.28 95.1351 48.8275 97.3374C43.4302 100.782 33.395 94.2899 31.2257 87.223C30.2705 84.1179 30.4892 79.6444 32.3938 78.7703C32.9232 78.5288 33.746 78.4886 35.524 79.4891C40.8408 82.4734 40.9789 88.1085 43.6834 88.5858C44.8802 88.8043 46.8193 88.0395 49.9035 83.0944Z" fill="url(#paint15_linear_2_3602)"/>
<path d="M35.0409 112.305C35.9731 110.752 34.7993 109.257 34.5346 106.325C34.2296 102.996 35.5128 102.444 36.7844 96.9235C37.6303 93.2549 38.4359 89.7301 37.4692 85.613C37.0031 83.635 36.2205 80.2884 33.447 78.6669C32.0143 77.8331 30.0579 77.9136 26.2084 78.1149C21.444 78.3621 19.0618 78.4886 17.2837 79.4259C17.0248 79.5639 11.6217 82.5022 11.2477 87.2863C10.8679 92.1624 16.179 92.8121 16.8867 99.3155C17.2032 102.231 16.6393 106.722 16.271 109.631C15.92 112.426 15.6726 113.139 16.225 113.99C17.5542 116.031 21.6281 115.45 29.7702 114.283C32.9694 113.823 34.3447 113.461 35.0409 112.305Z" fill="url(#paint16_linear_2_3602)"/>
<path opacity="0.3" d="M22.6466 98.2687C22.3013 99.5337 21.0642 100.482 20.2011 103.565C20.017 104.232 18.6878 108.97 20.4082 110.131C21.4037 110.804 22.2956 109.527 24.7066 109.361C28.884 109.073 30.875 112.581 33.6024 111.62C34.0743 111.454 34.7015 111.097 35.3229 110.286C35.4495 111.022 35.4265 111.655 35.0352 112.305C34.3389 113.46 32.9637 113.823 29.7702 114.283C21.6281 115.444 17.5542 116.025 16.225 113.989C15.6726 113.144 15.9143 112.425 16.271 109.631C16.6393 106.721 17.2032 102.231 16.8867 99.3152C16.179 92.8176 10.8679 92.1621 11.2477 87.286C11.3513 85.9807 11.8288 84.8249 12.4676 83.8129C19.2056 86.5385 23.7284 94.2896 22.6466 98.2687Z" fill="url(#paint17_linear_2_3602)"/>
<path d="M14.1353 107.855L15.4817 108.717C15.7234 108.436 16.2815 107.872 17.1619 107.682C18.1459 107.464 19.2794 107.774 19.3082 108.091C19.3312 108.344 18.6407 108.597 18.5314 108.637C17.674 108.953 17.0353 108.689 16.6843 109.034C16.5635 109.154 16.4081 109.384 16.0571 109.591C15.9651 109.649 15.8672 109.695 15.8155 109.718C15.24 109.942 14.2561 108.942 14.1698 108.855L14.1353 107.855Z" fill="url(#paint18_linear_2_3602)"/>
<path d="M18.1168 90.184C19.0893 87.8494 19.7683 84.2786 18.2262 78.9713C8.07591 82.9676 2.90296 92.4437 4.92265 99.9534C6.59135 106.146 12.6504 109.159 14.0026 109.792C14.3191 109.079 14.6298 108.36 14.9463 107.647C13.3812 105.905 11.6147 103.323 11.8621 100.385C12.2131 96.3021 16.1432 94.9105 18.1168 90.184Z" fill="url(#paint19_linear_2_3602)"/>
<path d="M25.9529 73.3126C25.9529 73.3126 25.8724 75.0894 25.32 76.4177C24.8194 77.6194 22.2013 78.3727 21.6719 78.643C21.1425 78.9132 22.6673 79.6952 24.1979 79.8505C25.7285 80.0057 30.1074 79.655 30.8957 79.0742C31.684 78.4934 30.2628 78.5395 29.1695 78.1369C28.0762 77.7344 27.4433 75.6012 27.6389 74.6294C27.8288 73.6519 25.9529 73.3126 25.9529 73.3126Z" fill="url(#paint20_linear_2_3602)"/>
<path d="M28.3767 72.6694C29.1708 71.8874 29.2801 71.7954 29.3722 71.5252C29.7174 70.4442 28.8773 68.9606 27.7783 68.5926C27.7207 68.5754 26.9842 68.3396 26.6965 68.6559C26.4548 68.9261 26.8116 69.3056 26.639 69.8289C26.4836 70.3177 26.0578 70.3579 25.2637 71.0019C24.6135 71.5309 24.2107 71.8644 24.1129 72.3244C23.923 73.279 25.0796 74.6647 26.1038 74.6302C26.4836 74.6245 26.5814 74.4347 28.3767 72.6694Z" fill="url(#paint21_linear_2_3602)"/>
<path d="M26.2141 74.7856C26.2141 74.7856 27.06 75.7401 28.3489 75.4239C29.4997 75.1421 29.2062 72.4971 28.3661 72.0773C28.0842 71.9393 27.5721 71.9508 27.1865 72.1348C26.9621 72.2441 26.8988 72.3591 26.5191 72.5316C26.1738 72.6926 26.0645 72.6696 25.9724 72.7788C25.8573 72.9168 25.8056 73.2158 26.1681 73.9403C25.9034 73.7563 25.6214 73.7161 25.4488 73.8368C25.42 73.8541 25.351 73.9231 25.3222 74.0151C25.2129 74.3429 25.5524 74.6706 26.2141 74.7856Z" fill="url(#paint22_linear_2_3602)"/>
<path d="M122.608 38.9844L122.907 40.5887L116.785 40.606L63.6395 40.7325C62.2701 40.7382 61.0157 41.8652 60.8258 43.2568L48.1322 127.985C47.9423 129.388 50.1289 131.527 51.4868 131.63L75.0672 133.441V133.413L110.334 136.115L110.42 136.15C111.928 136.265 113.309 135.172 113.505 133.694V133.7L125.387 43.2395C125.577 41.7675 124.121 38.9844 122.608 38.9844Z" fill="#005029"/>
<path d="M112.302 131.936C112.107 133.419 110.726 134.523 109.218 134.408L50.2269 129.883C48.8689 129.779 47.9252 128.554 48.1094 127.157L59.6406 41.5266C59.8305 40.1351 61.0849 39.0081 62.4486 39.0023L121.774 38.8413C123.287 38.8356 124.363 40.0258 124.167 41.4921L112.302 131.936Z" fill="url(#paint23_linear_2_3602)"/>
<path d="M113.083 84.8408C112.986 85.5769 112.301 86.1231 111.553 86.0944L59.6334 84.2026C58.9487 84.1796 58.4653 83.6161 58.5574 82.9146L59.5759 75.3532C59.6679 74.6517 60.2951 74.1802 60.9799 74.1974L112.945 75.6407C113.693 75.6637 114.228 76.1927 114.131 76.923L113.083 84.8408Z" fill="white"/>
<path d="M111.077 100.206C110.979 100.942 110.294 101.569 109.546 101.534L57.6614 98.9754C56.9767 98.9409 56.4991 98.2854 56.5969 97.5839L57.6269 89.8788C57.719 89.1773 58.3519 88.5793 59.0367 88.6023L110.95 90.6953C111.698 90.7241 112.228 91.4026 112.136 92.1386L111.077 100.206Z" fill="white"/>
<path opacity="0.1" d="M114.144 76.8897C114.023 76.8494 113.891 76.8264 113.747 76.8264L61.7818 75.3832C61.0971 75.3659 60.4699 75.8374 60.3778 76.5389L59.3536 84.1003C59.3536 84.1176 59.3478 84.1406 59.3478 84.1578C58.8184 84.0083 58.4847 83.5081 58.5595 82.9101L59.5837 75.3487C59.6758 74.6472 60.303 74.1757 60.9877 74.1929L112.953 75.6362C113.69 75.6592 114.219 76.1709 114.144 76.8897Z" fill="url(#paint24_linear_2_3602)"/>
<path opacity="0.1" d="M112.14 91.9601C112.014 91.9084 111.881 91.8796 111.737 91.8739L59.8239 89.7808C59.1392 89.7521 58.5062 90.3558 58.4141 91.0573L57.3841 98.7625C57.3784 98.8142 57.3726 98.8602 57.3726 98.9062C56.8433 98.7337 56.5095 98.1702 56.5901 97.5722L57.6201 89.8671C57.7121 89.1656 58.3451 88.5618 59.0298 88.5906L110.943 90.6836C111.64 90.7181 112.146 91.2931 112.14 91.9601Z" fill="url(#paint25_linear_2_3602)"/>
<path d="M97.2781 112.655C97.4335 111.494 96.6106 110.424 95.4425 110.361L68.5823 108.82C67.4718 108.757 66.4418 109.694 66.2922 110.821L65.1816 119.17C65.032 120.303 65.8031 121.384 66.9136 121.459L93.7566 123.293C94.9247 123.373 95.9949 122.39 96.1503 121.229L97.2781 112.655Z" fill="#3D1273"/>
<path d="M99.3035 56.4149C98.9525 59.0829 97.5773 61.4922 95.6266 63.2633C93.5264 65.1723 90.7529 66.3338 87.8758 66.2821C85.0103 66.2246 82.5993 64.9768 81.0514 63.0217C79.6244 61.222 78.9224 58.8242 79.2734 56.1964C80.0042 50.7395 85.0218 46.3234 90.5285 46.3407C96.0927 46.3522 100.04 50.8603 99.3035 56.4149Z" fill="url(#paint26_linear_2_3602)"/>
<path d="M93.9555 53.3803C93.639 55.7723 91.4294 57.6871 89.0299 57.6584C86.642 57.6296 84.9675 55.6803 85.284 53.3113C85.6005 50.9365 87.787 49.0217 90.175 49.0332C92.5745 49.0447 94.2719 50.9882 93.9555 53.3803Z" fill="white"/>
<path d="M95.6349 63.2648C93.5347 65.1738 90.7612 66.3353 87.8842 66.2836C85.0186 66.2261 82.6077 64.9783 81.0598 63.0233C82.8321 60.5565 85.7552 58.9177 88.8566 58.9579C91.9811 58.9924 94.4956 60.7232 95.6349 63.2648Z" fill="white"/>
<path opacity="0.4" d="M124.178 41.4861L112.301 131.935C112.106 133.419 110.639 134.517 109.131 134.402L73.6972 131.682C72.0112 129.963 70.6302 127.893 69.6405 125.415C69.1572 124.196 68.8004 122.885 68.5645 121.505C67.9085 117.686 68.1617 113.345 69.1227 109.084C69.8592 105.807 71.0158 102.564 72.5003 99.6426C73.6857 97.3081 75.0782 95.169 76.6318 93.375C77.7538 92.0812 78.9622 90.8277 80.2396 89.5972C81.7817 88.1137 83.4159 86.6589 85.1076 85.2214C89.0434 81.8691 93.2554 78.5972 97.1567 75.1357C106.156 67.1545 113.464 58.2361 111.703 45.5169C111.646 45.1144 111.099 42.0496 110.397 38.864L121.698 38.8353C123.206 38.8295 124.368 40.0198 124.178 41.4861Z" fill="white"/>
<defs>
<linearGradient id="paint0_linear_2_3602" x1="87.9852" y1="18.5545" x2="177.822" y2="110.334" gradientUnits="userSpaceOnUse">
<stop stop-color="#FFC444"/>
<stop offset="0.9964" stop-color="#F36F56"/>
</linearGradient>
<linearGradient id="paint1_linear_2_3602" x1="169.228" y1="407.726" x2="120.2" y2="251.308" gradientUnits="userSpaceOnUse">
<stop stop-color="#FDFEFE"/>
<stop offset="0.9964" stop-color="#F9BDEB" stop-opacity="0.8"/>
</linearGradient>
<radialGradient id="paint2_diamond_2_3602" cx="0" cy="0" r="1" gradientUnits="userSpaceOnUse" gradientTransform="translate(104.539 17.3067) rotate(56.2242) scale(13.0139 21.0251)">
<stop offset="0.00359712" stop-color="#FAA034"/>
<stop offset="1" stop-color="#FBE3C5"/>
</radialGradient>
<linearGradient id="paint3_linear_2_3602" x1="59.6591" y1="5.60335" x2="64.9625" y2="41.5584" gradientUnits="userSpaceOnUse">
<stop offset="0.00359712" stop-color="#FAA034"/>
<stop offset="1" stop-color="#FBE3C5"/>
</linearGradient>
<linearGradient id="paint4_linear_2_3602" x1="76.4958" y1="25.1149" x2="135.919" y2="227.558" gradientUnits="userSpaceOnUse">
<stop stop-color="#079B51"/>
<stop offset="0.9964" stop-color="#26264F"/>
</linearGradient>
<linearGradient id="paint5_linear_2_3602" x1="98.7917" y1="20.1292" x2="168.634" y2="209.418" gradientUnits="userSpaceOnUse">
<stop stop-color="#FFC444"/>
<stop offset="0.9964" stop-color="#F36F56"/>
</linearGradient>
<linearGradient id="paint6_linear_2_3602" x1="14.0901" y1="15.5764" x2="19.9226" y2="56.5984" gradientUnits="userSpaceOnUse">
<stop offset="0.00359712" stop-color="#FAA034"/>
<stop offset="1" stop-color="#FF85B3"/>
</linearGradient>
<linearGradient id="paint7_linear_2_3602" x1="53.4951" y1="79.7157" x2="45.9051" y2="87.4466" gradientUnits="userSpaceOnUse">
<stop stop-color="#FFC444"/>
<stop offset="0.9964" stop-color="#F36F56"/>
</linearGradient>
<linearGradient id="paint8_linear_2_3602" x1="34.6668" y1="153.1" x2="34.7307" y2="135.961" gradientUnits="userSpaceOnUse">
<stop stop-color="#AA80F9"/>
<stop offset="0.9964" stop-color="#6165D7"/>
</linearGradient>
<linearGradient id="paint9_linear_2_3602" x1="32.9689" y1="158.609" x2="32.1533" y2="149.752" gradientUnits="userSpaceOnUse">
<stop stop-color="#FFC444"/>
<stop offset="0.9964" stop-color="#F36F56"/>
</linearGradient>
<linearGradient id="paint10_linear_2_3602" x1="24.557" y1="153.063" x2="24.6209" y2="135.924" gradientUnits="userSpaceOnUse">
<stop stop-color="#AA80F9"/>
<stop offset="0.9964" stop-color="#6165D7"/>
</linearGradient>
<linearGradient id="paint11_linear_2_3602" x1="22.7196" y1="159.552" x2="21.904" y2="150.696" gradientUnits="userSpaceOnUse">
<stop stop-color="#FFC444"/>
<stop offset="0.9964" stop-color="#F36F56"/>
</linearGradient>
<linearGradient id="paint12_linear_2_3602" x1="24.8855" y1="130.203" x2="35.0064" y2="130.182" gradientUnits="userSpaceOnUse">
<stop stop-color="#444B8C"/>
<stop offset="0.9964" stop-color="#3E4177"/>
</linearGradient>
<linearGradient id="paint13_linear_2_3602" x1="35.7955" y1="129.688" x2="26.3507" y2="130.446" gradientUnits="userSpaceOnUse">
<stop stop-color="#311944"/>
<stop offset="1" stop-color="#893976"/>
</linearGradient>
<linearGradient id="paint14_linear_2_3602" x1="16.9251" y1="132.167" x2="28.8448" y2="132.139" gradientUnits="userSpaceOnUse">
<stop stop-color="#444B8C"/>
<stop offset="0.9964" stop-color="#3E4177"/>
</linearGradient>
<linearGradient id="paint15_linear_2_3602" x1="45.9995" y1="76.4355" x2="31.3671" y2="91.2721" gradientUnits="userSpaceOnUse">
<stop stop-color="#FFC444"/>
<stop offset="0.9964" stop-color="#F36F56"/>
</linearGradient>
<linearGradient id="paint16_linear_2_3602" x1="29.943" y1="73.8176" x2="4.50584" y2="90.3925" gradientUnits="userSpaceOnUse">
<stop stop-color="#FFC444"/>
<stop offset="0.9964" stop-color="#F36F56"/>
</linearGradient>
<linearGradient id="paint17_linear_2_3602" x1="11.2232" y1="99.5784" x2="35.3854" y2="99.5784" gradientUnits="userSpaceOnUse">
<stop stop-color="#5FC995"/>
<stop offset="0.9964" stop-color="#007C3E"/>
</linearGradient>
<linearGradient id="paint18_linear_2_3602" x1="11.9299" y1="101.959" x2="17.8967" y2="110.025" gradientUnits="userSpaceOnUse">
<stop stop-color="#FFC444"/>
<stop offset="0.9964" stop-color="#F36F56"/>
</linearGradient>
<linearGradient id="paint19_linear_2_3602" x1="14.7638" y1="75.5365" x2="-1.97993" y2="82.7961" gradientUnits="userSpaceOnUse">
<stop stop-color="#FFC444"/>
<stop offset="0.9964" stop-color="#F36F56"/>
</linearGradient>
<linearGradient id="paint20_linear_2_3602" x1="28.8888" y1="81.8678" x2="23.1443" y2="74.7154" gradientUnits="userSpaceOnUse">
<stop stop-color="#FFC444"/>
<stop offset="0.9964" stop-color="#F36F56"/>
</linearGradient>
<linearGradient id="paint21_linear_2_3602" x1="24.5183" y1="79.2431" x2="27.5617" y2="69.2242" gradientUnits="userSpaceOnUse">
<stop stop-color="#444B8C"/>
<stop offset="0.9964" stop-color="#3E4177"/>
</linearGradient>
<linearGradient id="paint22_linear_2_3602" x1="32.2906" y1="75.7475" x2="23.7213" y2="71.9305" gradientUnits="userSpaceOnUse">
<stop stop-color="#FFC444"/>
<stop offset="0.9964" stop-color="#F36F56"/>
</linearGradient>
<linearGradient id="paint23_linear_2_3602" x1="95.1074" y1="239.465" x2="85.9055" y2="79.9615" gradientUnits="userSpaceOnUse">
<stop offset="0.003597" stop-color="#FF85B3"/>
<stop offset="1" stop-color="#FAA034"/>
</linearGradient>
<linearGradient id="paint24_linear_2_3602" x1="58.5488" y1="79.1756" x2="114.151" y2="79.1756" gradientUnits="userSpaceOnUse">
<stop offset="0.003597" stop-color="#F36F56"/>
<stop offset="1" stop-color="#FFC444"/>
</linearGradient>
<linearGradient id="paint25_linear_2_3602" x1="56.5817" y1="93.7525" x2="112.141" y2="93.7525" gradientUnits="userSpaceOnUse">
<stop offset="0.003597" stop-color="#F36F56"/>
<stop offset="1" stop-color="#FFC444"/>
</linearGradient>
<linearGradient id="paint26_linear_2_3602" x1="87.9767" y1="17.1889" x2="90.6255" y2="96.1198" gradientUnits="userSpaceOnUse">
<stop offset="0.003597" stop-color="#FEAAA4"/>
<stop offset="1" stop-color="#62D19A"/>
</linearGradient>
</defs>
</svg>
