<svg width="32" height="32" viewBox="0 0 32 32" fill="none" xmlns="http://www.w3.org/2000/svg">
<rect width="32" height="32" rx="8" fill="#6E21D1"/>
<path fill-rule="evenodd" clip-rule="evenodd" d="M18.6667 19.3334C18.6667 19.7014 18.368 20 18 20H16C15.632 20 15.3334 19.7014 15.3334 19.3334C15.3334 18.9654 15.632 18.6667 16 18.6667H18C18.368 18.6667 18.6667 18.9654 18.6667 19.3334ZM18.6667 17.3334C18.6667 17.7014 18.368 18 18 18H16C15.632 18 15.3334 17.7014 15.3334 17.3334C15.3334 16.9654 15.632 16.6667 16 16.6667H18C18.368 16.6667 18.6667 16.9654 18.6667 17.3334ZM18.6667 15.3334C18.6667 15.7014 18.368 16.0001 18 16.0001H16C15.632 16.0001 15.3334 15.7014 15.3334 15.3334C15.3334 14.9654 15.632 14.6667 16 14.6667H18C18.368 14.6667 18.6667 14.9654 18.6667 15.3334ZM14.6667 19.3334C14.6667 19.7014 14.368 20 14 20C13.632 20 13.3334 19.7014 13.3334 19.3334C13.3334 18.9654 13.632 18.6667 14 18.6667C14.368 18.6667 14.6667 18.9654 14.6667 19.3334ZM14.6667 17.3334C14.6667 17.7014 14.368 18 14 18C13.632 18 13.3334 17.7014 13.3334 17.3334C13.3334 16.9654 13.632 16.6667 14 16.6667C14.368 16.6667 14.6667 16.9654 14.6667 17.3334ZM14.6667 15.3334C14.6667 15.7014 14.368 16.0001 14 16.0001C13.632 16.0001 13.3334 15.7014 13.3334 15.3334C13.3334 14.9654 13.632 14.6667 14 14.6667C14.368 14.6667 14.6667 14.9654 14.6667 15.3334ZM19.3334 20.6667C19.3334 21.0347 19.0347 21.3334 18.6667 21.3334H13.3334C12.9654 21.3334 12.6667 21.0347 12.6667 20.6667V12.3334C12.6667 12.1494 12.816 12 13 12H13.3334C13.3334 12.736 13.93 13.3334 14.6667 13.3334H17.3334C18.07 13.3334 18.6667 12.736 18.6667 12H19C19.184 12 19.3334 12.1494 19.3334 12.3334V20.6667ZM14.6667 11.3334C14.6667 10.9654 14.9654 10.6667 15.3334 10.6667H16.6667C17.0347 10.6667 17.3334 10.9654 17.3334 11.3334C17.3334 11.7014 17.0347 12 16.6667 12H15.3334C14.9654 12 14.6667 11.7014 14.6667 11.3334ZM19.3334 10.6667H18.6667C18.6667 9.93004 18.07 9.33337 17.3334 9.33337H14.6667C13.93 9.33337 13.3334 9.93004 13.3334 10.6667H12.6667C11.93 10.6667 11.3334 11.2634 11.3334 12V21.3334C11.3334 22.0694 11.93 22.6667 12.6667 22.6667H19.3334C20.07 22.6667 20.6667 22.0694 20.6667 21.3334V12C20.6667 11.2634 20.07 10.6667 19.3334 10.6667Z" fill="white"/>
</svg>
