<svg width="40" height="40" viewBox="0 0 40 40" fill="none" xmlns="http://www.w3.org/2000/svg">
<circle cx="20" cy="20" r="20" fill="#F7931A"/>
<rect width="40" height="40" rx="10" fill="#F7931A"/>
<path fill-rule="evenodd" clip-rule="evenodd" d="M28.9862 17.5252C29.3782 14.9049 27.3831 13.4963 24.6551 12.5566L25.54 9.00708L23.3794 8.46862L22.5179 11.9246C21.9499 11.7831 21.3665 11.6495 20.7868 11.5172L21.6545 8.03846L19.4951 7.5L18.6096 11.0483C18.1394 10.9412 17.6779 10.8354 17.2299 10.724L17.2324 10.7129L14.2527 9.96892L13.6779 12.2766C13.6779 12.2766 15.281 12.644 15.2471 12.6668C16.1222 12.8852 16.2804 13.4643 16.2539 13.9234L15.2459 17.9671C15.3062 17.9825 15.3844 18.0046 15.4705 18.0391L15.3973 18.0208C15.3472 18.0082 15.2952 17.9952 15.2422 17.9825L13.8293 23.6471C13.7222 23.9129 13.4508 24.3117 12.8391 24.1603C12.8607 24.1917 11.2687 23.7683 11.2687 23.7683L10.196 26.2415L13.0077 26.9425C13.3217 27.0211 13.6318 27.102 13.9387 27.182L13.9389 27.1821L13.9405 27.1825C14.1444 27.2357 14.3468 27.2885 14.548 27.34L13.6539 30.9302L15.812 31.4686L16.6976 27.9166C17.2871 28.0766 17.8594 28.2243 18.4194 28.3634L17.537 31.8988L19.6976 32.4372L20.5917 28.8538C24.276 29.5511 27.0465 29.2698 28.2127 25.9375C29.1524 23.2545 28.1659 21.7068 26.2274 20.6975C27.6391 20.372 28.7025 19.4434 28.9862 17.5252ZM24.0496 24.4477C23.437 26.9093 19.5839 25.8916 17.821 25.426C17.6623 25.3841 17.5206 25.3466 17.3997 25.3166L18.5862 20.5603C18.7334 20.597 18.9132 20.6374 19.117 20.6831L19.117 20.6831C20.9405 21.0923 24.6773 21.9308 24.0496 24.4477ZM19.4834 18.4759C20.9533 18.8681 24.1594 19.7238 24.7179 17.4865C25.2882 15.198 22.1721 14.5082 20.6502 14.1713C20.479 14.1334 20.328 14.1 20.2047 14.0692L19.129 18.3831C19.2306 18.4084 19.3498 18.4402 19.4834 18.4759Z" fill="white"/>
</svg>
