<svg width="140" height="80" viewBox="0 0 140 80" fill="none" xmlns="http://www.w3.org/2000/svg">
<path opacity="0.4" fill-rule="evenodd" clip-rule="evenodd" d="M-39.9583 20.8715C-39.9583 20.8715 -34.662 21.279 -30.2501 26.5826C-25.8382 31.8861 -18.582 32.8451 -11.4927 23.727C-4.4034 14.6089 3.75566 11.7263 8.63929 23.727C13.5229 35.7277 20.5924 55.5661 29.0405 54.6796C37.4886 53.793 38.5452 28.2012 48.2468 29.7621C57.9484 31.323 62.7628 33.2134 68.2979 24.9793C73.8329 16.7453 80.5996 14.3437 85.3519 23.727C90.1042 33.1104 91.7577 38.7445 96.9569 38.8052C102.156 38.8659 109.242 16.2557 116.567 13.7385C123.893 11.2213 128.792 15.5222 128.792 15.5222C128.792 15.5222 132.801 18.6772 136.961 17.8685C141.122 17.0598 149.579 4.50584 153.717 4.92208C157.856 5.33833 168.157 0.50765 171.214 0.541827C174.272 0.576004 177.75 0.541827 177.75 0.541827V93.25H-41L-39.9583 20.8715Z" fill="url(#paint0_linear_2_3552)"/>
<defs>
<linearGradient id="paint0_linear_2_3552" x1="-7.3505" y1="17.3996" x2="-7.3505" y2="81.5865" gradientUnits="userSpaceOnUse">
<stop stop-color="#F7931A"/>
<stop offset="1" stop-color="#F7931A" stop-opacity="0.01"/>
</linearGradient>
</defs>
</svg>
