<svg width="14" height="9" viewBox="0 0 14 9" fill="none" xmlns="http://www.w3.org/2000/svg">
<path fill-rule="evenodd" clip-rule="evenodd" d="M8.8276 1.03007C8.8276 1.46824 9.1828 1.82344 9.62097 1.82344H10.8792L8.03426 4.66838L6.21513 2.85002C5.90494 2.53984 5.40353 2.53984 5.09334 2.85002L0.894116 7.04925C0.58436 7.35901 0.584359 7.86122 0.894116 8.17098C1.20389 8.48076 1.70615 8.48073 2.0159 8.17092L5.65422 4.5319L7.47335 6.35103C7.78354 6.66122 8.28495 6.66122 8.59513 6.35103L12.001 2.94519V4.20343C12.001 4.64159 12.3562 4.99679 12.7943 4.99679C13.2325 4.99679 13.5877 4.64159 13.5877 4.20343V0.236694H9.62097C9.18281 0.236694 8.8276 0.5919 8.8276 1.03007Z" fill="#0FE270"/>
</svg>
