<svg width="32" height="32" viewBox="0 0 32 32" fill="none" xmlns="http://www.w3.org/2000/svg">
<rect width="32" height="32" rx="8" fill="#6E21D1"/>
<path fill-rule="evenodd" clip-rule="evenodd" d="M16.0259 14.5185C15.6152 14.5185 15.2819 14.8504 15.2819 15.2593V17.4815H19.0018C19.4124 17.4815 19.7457 17.1111 19.7457 16.7022V16.6822C19.7457 16.2733 19.4124 16 19.0018 16H16.7699V15.2593C16.7699 14.8504 16.4366 14.5185 16.0259 14.5185ZM21.1764 16.7407C20.8059 16.7407 20.4971 17.0126 20.4443 17.377C20.0894 19.8281 17.7184 21.64 15.064 21.0844C13.3796 20.7318 12.0174 19.3755 11.6633 17.6985C11.0585 14.8319 13.2502 12.2963 16.0259 12.2963V13.7778L19.7457 11.5556L16.0259 9.33337V10.8148C12.3485 10.8148 9.45 14.1356 10.1902 17.9296C10.6411 20.24 12.5114 22.1022 14.8318 22.5511C18.3478 23.2311 21.4591 20.8266 21.9188 17.5748C21.9813 17.1333 21.6235 16.7407 21.1764 16.7407Z" fill="white"/>
</svg>
