<svg width="196" height="196" viewBox="0 0 196 196" fill="none" xmlns="http://www.w3.org/2000/svg">
<path opacity="0.5" d="M47.5508 11.7193C40.9893 21.135 48.6838 36.4007 38.9457 43.4764C29.4647 50.3711 17.8151 39.0681 8.88328 45.0016C-4.37199 53.8045 -1.95309 94.0789 17.4259 119.102C23.2507 126.63 28.1232 129.555 30.278 138.065C34.9073 156.34 18.6353 167.211 21.7284 176.251C28.7071 196.6 135.959 213.677 178.991 152.516C199.093 123.949 202.096 82.7063 184.142 51.3809C151.695 -5.23177 62.2797 -9.40338 47.5508 11.7193Z" fill="#6418C3"/>
<path d="M78.9894 112.465L92.7173 105.849C92.7173 105.849 91.9179 97.5473 86.1626 94.1905C74.4227 87.3376 81.2345 77.518 83.4727 72.9703C86.8438 66.1244 86.6005 59.4874 78.3846 59.0696C69.0914 58.596 70.4398 44.758 77.481 34.4856C84.3693 24.4292 70.5093 6.35688 53.6049 26.7483C43.5053 38.9289 52.1313 51.7083 54.9603 59.1949C57.7893 66.6815 47.3978 72.4201 55.2661 79.4471C61.9876 85.4433 70.5371 88.0619 68.4936 95.3953C66.4431 102.736 68.7508 108.739 78.9894 112.465Z" fill="url(#paint0_linear_2_3911)"/>
<g opacity="0.5">
<path opacity="0.5" d="M85.5442 110.884L85.8014 110.696C85.6832 110.536 74.0058 94.3437 67.2565 74.7949C61.0355 56.7853 57.852 32.1526 78.0025 17.1028L77.8079 16.8451C68.8413 23.5378 63.6699 32.661 62.4396 43.9501C61.4595 52.9688 62.9748 63.3804 66.9507 74.8994C73.7208 94.4969 85.426 110.717 85.5442 110.884Z" fill="white"/>
<path opacity="0.5" d="M62.1267 48.6928L62.3978 48.5187C56.6008 39.5 53.7092 24.1228 53.6814 23.9696L53.3687 24.0253C53.3965 24.1855 56.3019 39.6253 62.1267 48.6928Z" fill="white"/>
<path opacity="0.5" d="M63.1554 41.1923C69.988 30.4046 80.5047 28.9351 80.6089 28.9212L80.5672 28.6008C80.463 28.6148 69.8004 30.0982 62.8843 41.0182L63.1554 41.1923Z" fill="white"/>
<path opacity="0.5" d="M72.3584 87.3307C69.0289 72.0789 86.0029 59.7729 86.1767 59.6615L86.0307 59.376C85.85 59.4665 68.6883 72.0092 72.0456 87.4003L72.3584 87.3307Z" fill="white"/>
<path opacity="0.5" d="M69.4877 81.5711L69.7449 81.3761C63.7046 73.4647 51.2834 72.0022 51.1583 71.9883L51.1235 72.3086C51.2487 72.3226 63.5308 73.7711 69.4877 81.5711Z" fill="white"/>
<path opacity="0.5" d="M84.0218 108.105C81.881 102.575 87.4486 94.6988 87.5042 94.6222L87.2401 94.4342C87.0037 94.7615 81.5126 102.534 83.716 108.223L84.0218 108.105Z" fill="#BEB8F2"/>
<path opacity="0.5" d="M81.1999 104.31L81.464 104.121C78.7532 100.298 70.2453 98.6824 67.4441 98.1531C67.0479 98.0765 66.7073 98.0138 66.6517 97.9929L66.5266 98.2924C66.61 98.3272 66.8325 98.369 67.3885 98.4735C70.155 98.9958 78.5655 100.591 81.1999 104.31Z" fill="#BEB8F2"/>
</g>
<path d="M65.4006 98.947C70.0993 99.1211 70.6346 103.279 72.1637 106.253C71.9413 106.649 71.9135 106.928 71.7745 107.374C70.5442 111.399 69.1679 112.855 67.3329 116.629C66.9367 117.444 65.053 119.478 64.2328 120.258L62.6758 121.692C62.6758 121.692 51.9854 119.965 52.2913 113.802C52.5971 107.638 42.6505 104.706 37.5694 102.506C34.4484 101.155 33.4545 99.532 32.391 98.8565C21.1028 91.6484 15.6881 93.2432 13.4569 88.6399C10.9893 83.5559 16.8906 80.1643 14.4995 74.4954C11.8026 68.0882 2.4676 68.1231 1.2651 61.4931C1.05658 60.3579 0.875854 59.1809 1.21645 57.6766C2.06445 53.9716 5.35915 52.4116 4.00374 48.6788C1.28595 41.1643 3.65619 32.6191 11.74 31.1148C19.7127 29.6315 27.4907 40.83 28.568 58.8606C30.7993 71.5982 32.8984 72.9075 38.5981 75.0665C42.5948 76.5777 54.4182 78.0332 55.2245 85.4572C56.0378 92.8811 60.0276 98.752 65.4006 98.947Z" fill="url(#paint1_linear_2_3911)"/>
<g opacity="0.5">
<path opacity="0.5" d="M68.5631 114.812L68.3824 115.062C66.9992 114.059 65.6229 113.029 64.2814 112.005C54.3626 104.4 45.5697 96.0707 38.1462 87.2539C31.8627 79.7812 26.4688 71.8489 22.1245 63.6868C18.6283 57.1195 15.7923 50.3641 13.6862 43.6087C12.2057 38.8591 11.1005 34.1582 10.3985 29.6384C10.2733 28.8514 10.1969 28.0366 10.1204 27.2427C10.0162 26.1911 9.91189 25.1046 9.70337 24.0739L9.9953 23.9904C10.2038 25.035 10.315 26.1284 10.4193 27.187C10.4958 27.9739 10.5792 28.7818 10.6973 29.5618C11.3924 34.0677 12.4976 38.7546 13.9712 43.4904C16.0703 50.2318 18.9063 56.9662 22.3887 63.5196C26.726 71.6678 32.1059 79.5793 38.3756 87.038C45.7852 95.8409 54.5641 104.156 64.4691 111.747C65.8036 112.785 67.1799 113.816 68.5631 114.812Z" fill="#FCFDFE"/>
<path opacity="0.5" d="M28.0884 73.207L27.8451 73.395C20.8108 63.2202 0.208525 57.7463 0 57.6906L0.090361 57.3981C0.298887 57.4538 21.0055 62.9556 28.0884 73.207Z" fill="#FCFDFE"/>
<path opacity="0.5" d="M50.3448 99.72L50.1224 99.9289C44.5062 93.6471 47.0641 76.7448 47.0919 76.5707L47.3838 76.5985C47.356 76.7657 44.819 93.5357 50.3448 99.72Z" fill="#FCFDFE"/>
<path opacity="0.5" d="M53.8553 102.979L53.6676 103.223C49.2955 99.9011 41.3993 97.8884 31.4457 97.5541C30.9453 97.5402 30.9453 97.5402 30.9036 97.5054L31.0912 97.2547L31.0009 97.38L31.0426 97.2338C31.0773 97.2407 31.265 97.2477 31.4805 97.2547C41.4967 97.5959 49.4415 99.6225 53.8553 102.979Z" fill="#FCFDFE"/>
<path opacity="0.5" d="M66.0677 112.945L65.8244 113.133C62.3421 108.147 65.0946 98.9679 65.1224 98.8773L65.4074 98.947C65.3726 99.0375 62.6688 108.07 66.0677 112.945Z" fill="#FCFDFE"/>
<path opacity="0.5" d="M68.3477 115.229C63.5725 113.983 58.1786 114.115 51.8673 115.64L51.8186 115.348C58.1786 113.809 63.6142 113.676 68.4381 114.937L68.3477 115.229Z" fill="#FCFDFE"/>
<path opacity="0.5" d="M15.2709 47.4531L15.0138 47.6272C11.4341 41.7285 6.25569 36.4774 4.55969 34.7502C4.14959 34.3324 4.00362 34.1861 3.96191 34.1235L4.21214 33.9424C4.2469 33.9911 4.47628 34.2279 4.77516 34.5274C6.48507 36.2545 11.6704 41.5265 15.2709 47.4531Z" fill="#FCFDFE"/>
<path opacity="0.5" d="M19.6291 58.0318L19.3442 58.1224C17.815 51.7013 24.8145 39.7575 25.1134 39.2491L25.3636 39.3884C25.2871 39.5138 18.1278 51.7361 19.6291 58.0318Z" fill="#FCFDFE"/>
</g>
<path d="M70.7735 98.8495C70.28 99.4554 73.4635 101.726 67.9167 100.911C66.5335 100.709 71.1489 96.1335 67.9167 100.911C67.2912 101.837 55.2662 95.2002 54.6406 96.1265C52.0063 95.6042 49.6152 94.6292 50.6022 91.2376C52.1314 85.9795 44.694 81.2995 41.2672 80.9095C37.0272 80.429 27.1917 79.1058 29.4369 70.9436C31.3066 64.1465 33.8576 60.0724 27.0736 55.3854C20.2896 50.6985 18.4198 43.9919 23.0421 37.536C27.9007 30.7458 22.5833 19.5124 29.1936 15.5567C40.7042 8.66204 50.5049 27.2288 47.3214 42.2229C44.1449 57.2101 52.7431 52.739 58.7138 55.9147C59.249 56.242 60.0623 56.7853 60.8894 57.614C66.0053 62.7049 63.1346 69.5856 65.2198 77.114C68.0766 87.3794 71.6077 97.8258 70.7735 98.8495Z" fill="url(#paint2_linear_2_3911)"/>
<g opacity="0.5">
<path opacity="0.5" d="M59.5199 87.1147L59.2489 87.4003C39.5988 68.6803 29.5548 39.8411 33.0372 12.1442L33.4126 12.172C29.9441 39.7576 39.9464 68.4713 59.5199 87.1147Z" fill="#0A6252"/>
<path opacity="0.5" d="M49.7193 75.93L49.5107 76.2643C40.419 70.6859 28.1716 74.5163 28.0465 74.5511L27.9492 74.182C28.0743 74.1402 40.4816 70.2611 49.7193 75.93Z" fill="#0A6252"/>
<path opacity="0.5" d="M56.0029 83.5699L55.6693 83.7719C50.4561 74.189 60.4097 55.8869 60.514 55.6989L60.8407 55.873C60.7364 56.054 50.8871 74.1681 56.0029 83.5699Z" fill="#0A6252"/>
<path opacity="0.5" d="M37.4719 52.0286L37.1522 52.2584C32.37 45.0852 19.1495 43.3441 19.0105 43.3302L19.08 42.9471C19.219 42.9611 32.6064 44.7161 37.4719 52.0286Z" fill="#0A6252"/>
<path opacity="0.5" d="M33.4892 34.8617L33.1069 34.8687C33.4475 24.7287 43.144 14.6583 43.2482 14.5538L43.5124 14.8185C43.4081 14.9229 33.8229 24.8819 33.4892 34.8617Z" fill="#0A6252"/>
</g>
<path d="M182.731 138.825L178.818 138.831C178.546 136.241 177.928 133.755 177.003 131.421L180.312 129.499C181.216 128.977 181.528 127.786 181.007 126.846L179.617 124.339C179.096 123.392 177.928 123.043 177.017 123.566L173.75 125.425C172.228 123.287 170.414 121.365 168.357 119.708L170.233 116.469C170.775 115.543 170.456 114.317 169.517 113.739L167.015 112.186C166.07 111.601 164.853 111.873 164.304 112.813L162.42 116.016C160.002 114.888 157.381 114.073 154.629 113.635V109.839C154.629 108.718 153.711 107.771 152.571 107.715L149.527 107.576C148.373 107.52 147.434 108.398 147.434 109.533V113.37C144.592 113.607 141.846 114.248 139.274 115.236L137.238 111.768C136.64 110.751 135.312 110.355 134.27 110.891L131.482 112.325C130.426 112.869 130.064 114.143 130.676 115.167L132.782 118.719C130.474 120.355 128.417 122.305 126.672 124.527L122.863 122.368C121.786 121.755 120.396 122.075 119.77 123.078L118.095 125.766C117.462 126.783 117.838 128.1 118.929 128.705L122.87 130.892C121.779 133.413 121.035 136.122 120.715 138.95L115.989 138.957C114.717 138.957 113.681 139.925 113.681 141.116V144.278C113.681 145.468 114.717 146.423 115.989 146.402L120.841 146.339C121.251 149.097 122.057 151.729 123.211 154.167L118.922 156.604C117.831 157.224 117.455 158.547 118.088 159.55L119.763 162.218C120.389 163.213 121.779 163.513 122.856 162.886L127.194 160.365C128.924 162.42 130.94 164.223 133.171 165.721L130.669 169.969C130.057 171.007 130.419 172.274 131.475 172.796L134.263 174.189C135.305 174.712 136.633 174.294 137.231 173.27L139.712 169.008C142.159 169.871 144.751 170.422 147.428 170.61V175.366C147.428 176.501 148.366 177.358 149.52 177.288L152.564 177.107C153.704 177.038 154.622 176.077 154.622 174.955V170.254C157.221 169.809 159.696 169.029 162.003 167.97L164.304 171.842C164.853 172.768 166.07 173.026 167.015 172.427L169.517 170.839C170.456 170.247 170.775 169.022 170.233 168.095L168.002 164.286C169.997 162.705 171.776 160.867 173.292 158.84L177.017 160.901C177.928 161.41 179.096 161.048 179.617 160.093L181.007 157.565C181.528 156.618 181.223 155.441 180.312 154.926L176.711 152.885C177.685 150.594 178.366 148.157 178.713 145.615L182.731 145.566C183.767 145.552 184.608 144.675 184.608 143.609V140.768C184.608 139.688 183.767 138.825 182.731 138.825ZM151.049 162.225C139.469 162.656 129.779 153.652 129.779 142.098C129.779 130.544 139.469 121.414 151.049 121.699C162.24 121.971 171.033 130.983 171.033 141.833C171.026 152.683 162.233 161.807 151.049 162.225Z" fill="#97A6B7"/>
<path d="M138.086 110.738L135.298 110.64L134.339 113.14L138.086 110.738Z" fill="#97A6B7"/>
<path d="M165.729 111.894L168.94 111.921V114.296L165.729 111.894Z" fill="#97A6B7"/>
<path d="M177.977 123.35L181.181 123.482L180.382 125.279L177.977 123.35Z" fill="#97A6B7"/>
<path d="M183.009 138.859L186.241 139.117L185.184 140.691L183.009 138.859Z" fill="#97A6B7"/>
<path d="M177.629 161.103L180.764 161.556L181.153 158.986L177.629 161.103Z" fill="#97A6B7"/>
<path d="M165.611 172.692L168.433 173.207L168.655 171.118L165.611 172.692Z" fill="#97A6B7"/>
<path d="M151.515 177.699L148.985 177.253L151.16 174.008L151.515 177.699Z" fill="#97A6B7"/>
<path d="M137.801 174.976L134.854 174.363L137.126 171.605L137.801 174.976Z" fill="#97A6B7"/>
<path d="M121.237 122.068L124.309 122.166L123.093 124.408L121.237 122.068Z" fill="#97A6B7"/>
<path d="M115.113 146.241L117.935 146.659L117.713 144.347L115.113 146.241Z" fill="#97A6B7"/>
<path d="M121.167 163.158L123.927 163.61L124.149 161.779L121.167 163.158Z" fill="#97A6B7"/>
<path d="M185.893 139.082L181.945 139.089C181.674 136.478 181.049 133.97 180.117 131.616L183.454 129.68C184.364 129.151 184.677 127.953 184.149 127.006L182.745 124.478C182.216 123.524 181.042 123.176 180.117 123.698L176.823 125.571C175.286 123.419 173.458 121.476 171.387 119.805L173.285 116.546C173.827 115.613 173.507 114.38 172.562 113.795L170.039 112.228C169.086 111.636 167.863 111.914 167.307 112.855L165.409 116.086C162.97 114.944 160.328 114.122 157.548 113.683V109.853C157.548 108.725 156.623 107.764 155.477 107.715L152.404 107.576C151.244 107.52 150.298 108.404 150.298 109.547V113.419C147.427 113.656 144.668 114.303 142.068 115.306L140.018 111.81C139.413 110.779 138.079 110.382 137.029 110.926L134.221 112.367C133.157 112.91 132.796 114.199 133.408 115.229L135.535 118.809C133.213 120.453 131.135 122.424 129.369 124.659L125.525 122.479C124.434 121.859 123.037 122.18 122.404 123.197L120.715 125.906C120.076 126.929 120.458 128.253 121.556 128.866L125.532 131.066C124.427 133.608 123.683 136.338 123.364 139.187L118.595 139.194C117.309 139.194 116.267 140.169 116.267 141.373V144.563C116.267 145.761 117.309 146.722 118.595 146.708L123.489 146.645C123.899 149.431 124.719 152.078 125.88 154.543L121.556 157.001C120.451 157.628 120.076 158.958 120.715 159.975L122.404 162.663C123.037 163.673 124.434 163.972 125.525 163.339L129.897 160.797C131.642 162.865 133.672 164.683 135.931 166.194L133.415 170.477C132.803 171.522 133.164 172.803 134.228 173.332L137.036 174.732C138.086 175.255 139.427 174.837 140.025 173.806L142.527 169.509C144.995 170.38 147.608 170.937 150.312 171.125V175.916C150.312 177.058 151.257 177.929 152.418 177.859L155.49 177.678C156.637 177.609 157.562 176.641 157.562 175.512V170.77C160.182 170.317 162.678 169.537 165.006 168.464L167.328 172.371C167.884 173.305 169.107 173.569 170.059 172.963L172.583 171.362C173.528 170.763 173.848 169.523 173.305 168.597L171.053 164.752C173.069 163.158 174.862 161.305 176.385 159.265L180.138 161.347C181.063 161.855 182.237 161.493 182.766 160.532L184.17 157.983C184.698 157.029 184.385 155.838 183.475 155.323L179.846 153.268C180.826 150.956 181.514 148.498 181.862 145.935L185.914 145.886C186.957 145.872 187.805 144.988 187.805 143.908V141.025C187.784 139.946 186.936 139.075 185.893 139.082ZM153.947 162.67C142.27 163.102 132.497 154.028 132.497 142.376C132.497 130.732 142.27 121.525 153.947 121.811C165.229 122.082 174.091 131.171 174.091 142.112C174.091 153.052 165.229 162.252 153.947 162.67Z" fill="url(#paint3_linear_2_3911)"/>
<path d="M136.681 128.754C134.144 128.831 131.67 128.19 129.522 126.902C122.988 122.981 113.34 116.497 104.652 108.021C93.6348 97.2616 87.3026 86.3207 85.9194 75.5748L85.8985 75.4077L85.6274 29.5687C85.6274 20.5082 91.5218 13.1539 102.594 8.32768C111.742 4.33714 123.864 2.35929 136.674 2.72839C149.332 3.0975 161.051 5.71607 169.719 10.0757C180.027 15.2571 185.435 22.5418 185.435 31.1845L185.191 74.9828L185.171 75.143C183.905 85.4293 178.081 96.0637 167.786 106.817C159.529 115.438 150.201 122.277 143.792 126.512C141.672 127.897 139.218 128.677 136.681 128.754Z" fill="#CB7205"/>
<path d="M139.198 128.754C136.695 128.831 134.249 128.19 132.136 126.902C125.692 122.981 116.163 116.497 107.599 108.021C96.7281 97.2616 90.4793 86.3207 89.1099 75.5748L89.0891 75.4077L88.825 29.5687C88.825 20.5082 94.6428 13.1539 105.57 8.32768C114.599 4.33714 126.561 2.35929 139.198 2.72839C151.688 3.0975 163.248 5.71607 171.804 10.0757C181.973 15.2571 187.311 22.5418 187.311 31.1845L187.068 74.9828L187.047 75.143C185.796 85.4293 180.048 96.0637 169.893 106.817C161.746 115.438 152.536 122.277 146.211 126.512C144.119 127.897 141.693 128.677 139.198 128.754Z" fill="#FAA034"/>
<path d="M91.8416 29.5966L92.1057 75.2057C95.1015 98.4734 122.397 117.312 134.283 124.471C137.689 126.519 142.041 126.4 145.426 124.172C157.068 116.497 182.863 97.178 185.622 74.8087L185.866 31.1287C185.866 -1.2761 91.8416 -4.24289 91.8416 29.5966Z" fill="url(#paint4_linear_2_3911)"/>
<path d="M139.872 117.437C139.656 117.444 139.323 117.409 138.989 117.2C134.096 114.234 124.608 108.007 116.35 99.8871C107.432 91.1121 102.296 82.5809 101.114 74.565L100.85 29.715C100.864 25.4111 104.263 21.727 110.929 18.7811C118.366 15.4939 128.931 13.7668 139.872 14.0245C150.701 14.2822 160.954 16.4689 168.065 19.9998C174.348 23.1268 177.532 26.8109 177.539 30.9616L177.295 74.2586C176.197 82.0098 171.366 90.3739 162.893 99.1559C154.927 107.416 145.62 113.969 140.755 117.152C140.421 117.381 140.087 117.437 139.872 117.437Z" fill="#CB7205"/>
<path d="M138.753 114.373C133.811 111.323 125.018 105.431 117.351 97.8675C108.975 89.6079 104.124 81.6756 102.984 74.3422L102.727 29.7498C102.734 26.6716 105.556 23.8511 111.095 21.3927C118.144 18.2657 128.243 16.6152 138.753 16.852C149.165 17.0888 158.98 19.1502 165.729 22.493C170.97 25.0907 173.618 27.9252 173.625 30.9268L173.382 74.0636C172.312 81.1811 167.738 88.9672 159.744 97.2407C152.314 104.936 143.674 111.121 138.753 114.373Z" fill="#F4F7FA"/>
<path d="M156.443 55.9913L123.155 56.2907C120.597 56.3116 118.512 58.3104 118.512 60.7548V82.1213C118.512 84.5448 120.59 86.4322 123.141 86.3277L156.311 84.9697C158.667 84.8722 160.585 82.9152 160.592 80.5961L160.697 60.1838C160.711 57.8438 158.806 55.9704 156.443 55.9913Z" fill="url(#paint5_linear_2_3911)"/>
<path d="M144.355 68.2485C144.362 65.8876 142.34 64.0212 139.872 64.1813C137.689 64.3206 135.875 66.0896 135.75 68.2137C135.653 69.8572 136.543 71.2849 137.898 72.0092C138.475 72.3156 138.76 72.9633 138.642 73.5971L137.683 78.9944C137.557 79.6838 138.107 80.2828 138.822 80.2619L141.255 80.1783C141.964 80.1505 142.506 79.5167 142.388 78.8412L141.457 73.4926C141.346 72.8519 141.672 72.2181 142.249 71.8769C143.507 71.1108 144.348 69.7667 144.355 68.2485Z" fill="white"/>
<path d="M155.977 53.8741C154.976 53.8811 154.17 53.0872 154.177 52.0982L154.198 47.4461C154.218 42.7731 150.361 38.9288 145.551 38.88L134.686 38.7686C129.71 38.7199 125.623 42.6059 125.616 47.4322L125.609 52.2306C125.609 53.2474 124.74 54.0831 123.669 54.09C122.599 54.097 121.723 53.2752 121.723 52.2515V47.4322C121.723 40.5375 127.583 35.0079 134.686 35.1054L145.558 35.2586C152.383 35.3561 157.84 40.83 157.812 47.4531L157.791 52.0913C157.784 53.0663 156.971 53.8672 155.977 53.8741Z" fill="url(#paint6_linear_2_3911)"/>
<path d="M192.733 178.974L14.2563 177.448V181.961C14.2563 183.187 15.0348 184.225 16.0914 184.413L66.5615 193.292C67.1593 193.397 67.7709 193.425 68.3687 193.376L190.794 183.25C191.885 183.159 192.733 182.115 192.733 180.861V178.974Z" fill="#663B06"/>
<path d="M127.965 171.745L16.1051 179.997C14.1033 180.144 12.4768 178.577 12.4768 176.494V93.0343C12.4768 90.952 14.1033 89.2596 16.1051 89.2596H127.965C129.612 89.2596 130.947 90.7848 130.947 92.6721V168.116C130.947 169.997 129.612 171.626 127.965 171.745Z" fill="#005029"/>
<path d="M129.745 171.745L17.8847 179.997C15.8828 180.144 14.2563 178.577 14.2563 176.494V93.0343C14.2563 90.952 15.8828 89.2596 17.8847 89.2596H129.745C131.392 89.2596 132.727 90.7848 132.727 92.6721V168.116C132.727 169.997 131.392 171.626 129.745 171.745Z" fill="#F4AB53"/>
<path d="M126.262 166.424L22.0759 173.59C20.4494 173.702 19.1218 172.413 19.1218 170.714V97.6447C19.1218 95.9454 20.4425 94.5595 22.0759 94.5526L126.262 94.0999C127.625 94.0929 128.723 95.3465 128.723 96.8926V163.45C128.723 165.003 127.625 166.333 126.262 166.424Z" fill="white"/>
<path d="M77.766 91.5439C77.766 92.317 77.1891 92.9507 76.4801 92.9507C75.7711 92.9507 75.1873 92.3239 75.1873 91.5509C75.1873 90.7709 75.7642 90.1441 76.4801 90.1441C77.1891 90.1371 77.766 90.7639 77.766 91.5439Z" fill="white"/>
<path d="M134.207 171.285L14.2563 179.97L66.5545 189.176C67.1523 189.281 67.764 189.309 68.3617 189.26L192.726 178.974L136.112 171.348C135.479 171.264 134.84 171.243 134.207 171.285Z" fill="#F4AB53"/>
<path d="M31.7585 180.046L131.621 172.713L162.525 176.843L63.5239 184.684L31.7585 180.046Z" fill="#F8D3A7"/>
<path d="M64.1146 170.582L21.6102 173.444C20.366 173.528 19.3025 172.539 19.3025 171.285V96.7045C19.3025 95.5136 20.2617 94.5456 21.4503 94.5386L64.1077 94.3645V170.582H64.1146Z" fill="#D8DEE8"/>
<path d="M118.999 129.91L74.2212 131.484V126.95L118.999 125.544V129.91Z" fill="#D8DEE8"/>
<path d="M118.999 137.063L74.2212 138.915V134.381L118.999 132.696V137.063Z" fill="#D8DEE8"/>
<path d="M59.7285 130.725L34.0173 131.603V128.211L59.7285 127.403V130.725Z" fill="white"/>
<path d="M59.7285 136.164L34.0173 137.153V133.768L59.7285 132.842V136.164Z" fill="white"/>
<path d="M59.7285 141.603L34.0173 142.711V139.319L59.7285 138.281V141.603Z" fill="white"/>
<path d="M59.7285 147.042L34.0173 148.268V144.877L59.7285 143.72V147.042Z" fill="white"/>
<path d="M94.0103 145.406L74.2212 146.353V141.812L94.0103 140.942V145.406Z" fill="#D8DEE8"/>
<path d="M90.8198 109.853V116.671C90.8198 118.642 92.4741 120.195 94.5107 120.139L99.557 120.007C101.566 119.951 103.192 118.329 103.192 116.379V109.637L90.8198 109.853ZM95.4699 116.901L96.4083 114.053C96.0051 113.844 95.7341 113.433 95.7341 112.959C95.7341 112.263 96.3179 111.685 97.0408 111.671C97.7637 111.657 98.3476 112.214 98.3476 112.91C98.3476 113.384 98.0765 113.809 97.6733 114.032L98.6048 116.831L95.4699 116.901Z" fill="#D8DEE8"/>
<path d="M101.754 109.052C101.218 109.059 100.787 108.648 100.787 108.126C100.787 106.12 99.1122 104.512 97.0409 104.539C94.9625 104.567 93.2665 106.225 93.2665 108.244C93.2665 108.767 92.8286 109.198 92.2795 109.212C91.7373 109.219 91.2925 108.802 91.2925 108.279C91.2925 105.208 93.8782 102.687 97.0339 102.652C100.176 102.617 102.72 105.062 102.72 108.098C102.727 108.613 102.289 109.045 101.754 109.052Z" fill="#D8DEE8"/>
<path opacity="0.48" d="M17.8846 179.997L129.182 171.786L129.745 171.745C130.502 171.689 131.19 171.313 131.712 170.749C123.704 170.31 118.727 167.462 115.516 164.523C109.073 158.617 110.192 152.788 103.241 148.902C94.5733 144.055 87.7614 150.197 81.179 144.138C77.1892 140.468 79.1493 137.724 74.242 132.236C68.8065 126.156 65.2685 128.204 59.8051 122.73C52.9029 115.814 56.3505 110.431 50.4076 105.466C43.1926 99.4414 35.4076 105.02 28.5402 99.2395C25.5791 96.7462 23.9527 93.1248 23.1046 89.2666H17.8776C15.8758 89.2666 14.2493 90.952 14.2493 93.0412V176.501C14.2562 178.577 15.8827 180.144 17.8846 179.997Z" fill="white"/>
<path d="M92.6757 147.955C94.6845 146.638 93.5862 140.078 90.4027 135.649C85.8777 129.36 76.7999 126.867 75.1317 128.963C73.4218 131.108 79.3231 138.253 80.2823 139.409C83.7577 143.623 90.2985 149.515 92.6757 147.955Z" fill="url(#paint7_linear_2_3911)"/>
<path d="M114.731 188.633C114.369 189.093 114.341 189.901 114.71 190.27C115.071 190.632 115.551 190.305 116.983 190.242C118.512 190.172 118.936 190.506 119.958 190.144C120.368 189.998 121.091 189.664 121.049 189.364C121.021 189.155 120.639 189.072 119.346 188.745C117.511 188.278 117.518 188.243 117.136 188.208C116.176 188.111 115.21 188.027 114.731 188.633Z" fill="url(#paint8_linear_2_3911)"/>
<path d="M115.53 186.063L116.482 188.563C116.434 188.703 115.69 189.218 115.002 188.981L113.681 186.586L115.53 186.063Z" fill="url(#paint9_linear_2_3911)"/>
<path d="M105.208 191.6C104.847 192.059 104.819 192.867 105.187 193.236C105.549 193.599 106.028 193.271 107.46 193.209C108.989 193.139 109.413 193.473 110.435 193.111C110.845 192.965 111.568 192.631 111.526 192.331C111.499 192.122 111.116 192.039 109.823 191.711C107.988 191.245 107.995 191.21 107.613 191.175C106.654 191.077 105.681 190.987 105.208 191.6Z" fill="url(#paint10_linear_2_3911)"/>
<path d="M106.001 189.03L106.953 191.53C106.904 191.669 106.16 192.185 105.472 191.948L104.152 189.552L106.001 189.03Z" fill="url(#paint11_linear_2_3911)"/>
<path d="M58.3594 130.634C60.7296 129.625 64.3719 128.385 68.9455 128.044C74.0961 127.661 78.2319 127.354 81.2694 129.583C88.6373 134.987 81.9228 149.744 86.6771 159.954C87.1985 161.075 88.7346 164.627 87.9213 168.639C87.7684 169.377 87.4 170.038 86.7605 171.153C83.021 177.706 71.2602 179.092 65.4562 174.078C62.3909 171.431 59.8608 172.142 59.548 168.882C58.3385 156.033 59.3812 143.031 58.3594 130.634Z" fill="url(#paint12_linear_2_3911)"/>
<path opacity="0.3" d="M64.7054 146.701C63.5238 144.082 64.3161 140.921 62.0224 139.737C61.1813 139.305 60.1734 139.166 59.0891 139.27C59.9163 148.728 60.799 158.178 61.7582 168.04C62.078 171.299 62.495 171.431 65.8662 174.057C69.7726 177.1 76.1534 177.713 81.4847 176.23C74.0821 172.392 68.6952 168.242 69.1331 164.314C69.6405 159.738 77.7938 157.795 77.2239 154.612C76.6191 151.242 67.2842 152.433 64.7054 146.701Z" fill="url(#paint13_linear_2_3911)"/>
<path d="M60.6323 130.76C58.13 129.325 52.6944 133.81 49.7751 137.627C48.4196 139.396 43.7 145.566 45.5489 153.241C45.8478 154.494 47.245 160.344 52.5206 162.865C57.2403 165.129 63.3084 164.007 67.9376 159.961C68.5632 159.313 69.1888 158.673 69.8144 158.025C70.4191 157.266 71.0238 156.5 71.6355 155.741C70.5373 154.954 68.6814 153.839 66.1513 153.22C62.2935 152.279 59.9511 154.271 58.9641 153.15C57.7477 151.771 60.9242 148.79 61.3482 142.516C61.4733 140.83 63.4265 132.362 60.6323 130.76Z" fill="url(#paint14_linear_2_3911)"/>
<path d="M67.5275 170.999C66.332 176.244 69.0915 173.945 74.812 170.575C80.8314 167.03 94.1701 161.584 100.481 166.953C105.187 170.951 102.588 178.012 109.928 185.032C111.221 186.272 112.423 187.108 113.167 187.595C114.348 186.996 115.537 186.397 116.719 185.806C116.99 182.964 117.706 172.037 110.192 162.851C108.378 160.63 104.916 156.367 99.4319 154.856C84.5988 150.782 68.6327 166.159 67.5275 170.999Z" fill="url(#paint15_linear_2_3911)"/>
<path d="M61.4037 166.64C60.6044 169.662 61.7721 172.984 63.5863 174.962C67.6247 179.357 75.8823 178.256 80.9425 176.146C87.094 173.583 88.2201 169.655 90.7641 170.408C94.7261 171.584 92.6825 181.293 100.21 188.487C101.503 189.726 102.706 190.562 103.449 191.05C104.631 190.451 105.82 189.852 107.001 189.26C107.439 182.658 106.383 177.469 105.43 174.182C104.339 170.408 103.366 167.023 100.426 163.91C96.7696 160.045 92.2863 158.923 89.7145 158.311C78.8434 155.741 63.489 158.784 61.4037 166.64Z" fill="url(#paint16_linear_2_3911)"/>
<path d="M95.2823 156.117L66.5544 157.816L74.4575 160.936L95.4908 157.99L95.2823 156.117Z" fill="url(#paint17_linear_2_3911)"/>
<path d="M65.6021 158.652C65.6438 159.188 66.0122 159.648 66.5336 159.794L75.9659 162.719L75.8268 160.219L66.5614 157.816C66.04 157.705 65.5604 158.123 65.6021 158.652Z" fill="url(#paint18_linear_2_3911)"/>
<path d="M69.6129 157.196C69.4322 157.168 70.3149 155.03 71.1421 155.204C71.9692 155.385 76.1119 157.391 76.5429 158.317C76.9738 159.237 76.9738 159.237 76.9738 159.237C76.9738 159.237 75.25 159.501 74.1518 159.216C73.0535 158.944 71.0656 157.412 69.6129 157.196Z" fill="url(#paint19_linear_2_3911)"/>
<path d="M75.2915 142.641L74.6312 161.243C74.6103 161.883 75.5696 162.768 76.2021 162.691L105.736 158.666C106.223 158.603 106.598 158.22 106.647 157.726L109.059 139.632C109.121 138.978 107.912 138.393 107.252 138.462L76.2229 141.638C75.7086 141.694 75.3054 142.119 75.2915 142.641Z" fill="url(#paint20_linear_2_3911)"/>
<path d="M76.0076 143.128L75.3472 161.73C75.3264 162.371 75.8825 162.879 76.515 162.802L106.452 159.153C106.939 159.091 107.314 158.707 107.363 158.213L109.114 140.085C109.177 139.43 108.628 138.88 107.968 138.943L76.939 142.119C76.4246 142.181 76.0284 142.606 76.0076 143.128Z" fill="url(#paint21_linear_2_3911)"/>
<path opacity="0.3" d="M94.6706 155.678C91.9667 154.759 92.7313 152.565 89.4436 150.148C85.0993 146.959 81.0469 148.783 79.3857 146.186C78.8713 145.378 78.5585 144.083 79.1911 141.896L76.9459 142.126C76.4246 142.181 76.0284 142.606 76.0076 143.128L75.3472 161.73C75.3264 162.371 75.8825 162.879 76.515 162.803L106.452 159.153C106.939 159.091 107.314 158.708 107.363 158.213L107.606 155.713C106.654 155.274 105.535 154.891 104.242 154.724C99.7725 154.16 97.7846 156.737 94.6706 155.678Z" fill="url(#paint22_linear_2_3911)"/>
<path d="M68.9107 120.961C69.0706 122.876 68.9663 124.408 68.8412 125.46C68.6952 126.665 68.5562 126.985 68.3616 127.25C68.0697 127.647 67.6109 128.002 64.9209 128.886C63.4613 129.367 63.2666 129.374 63.2458 129.52C63.1415 130.251 67.3815 132.417 71.5312 131.512C74.0752 130.962 76.2995 129.318 76.0979 128.559C75.8963 127.793 73.3593 128.399 72.4974 127.055C71.8926 126.115 72.3862 124.687 73.0048 123.489C72.2263 122.256 69.6823 122.194 68.9107 120.961Z" fill="url(#paint23_linear_2_3911)"/>
<path d="M74.4784 122.995C75.2221 122.312 75.5141 120.926 74.9858 119.923C74.534 119.06 73.6165 118.781 73.0743 118.614C71.4895 118.134 69.3278 118.433 68.3408 119.798C67.7569 120.606 68.3338 122.612 68.4172 122.967C68.5076 123.371 68.7787 123.552 69.0011 123.886C69.3069 124.346 69.7796 125.077 70.5442 126.296C70.6763 126.003 70.857 125.641 71.1142 125.265C71.2115 125.119 71.6007 124.548 72.122 124.116C73.1438 123.224 73.7694 123.642 74.4784 122.995Z" fill="url(#paint24_linear_2_3911)"/>
<path d="M69.3279 125.16C69.3279 125.16 70.0716 127.104 72.2125 127.354C74.1309 127.577 75.1874 123.371 74.1378 122.242C73.7903 121.866 73.0049 121.595 72.3098 121.657C71.8997 121.692 71.7398 121.832 71.0725 121.88C70.4539 121.922 70.301 121.832 70.0994 121.95C69.8422 122.096 69.5989 122.528 69.738 123.837C69.446 123.405 69.0359 123.183 68.7023 123.273C68.6467 123.287 68.5007 123.35 68.4034 123.475C68.0558 123.914 68.3825 124.617 69.3279 125.16Z" fill="url(#paint25_linear_2_3911)"/>
<path d="M70.0646 121.678C70.1411 121.762 69.8005 122.054 69.6893 122.535C69.4738 123.468 70.2176 124.771 71.1698 125.042C71.7328 125.202 71.9553 124.889 72.9145 124.959C73.5123 125.007 73.9849 125.167 74.2768 125.293C74.3881 126.379 73.9154 127.354 73.1439 127.702C72.3098 128.079 71.4201 127.598 71.0517 127.396C70.8014 127.264 70.009 126.825 69.7032 125.968C69.3904 125.07 69.9326 124.666 69.5016 124.018C69.2861 123.691 68.9595 123.51 68.7162 122.911C68.6467 122.751 68.6119 122.612 68.5911 122.514C69.1819 122.082 69.9534 121.553 70.0646 121.678Z" fill="url(#paint26_linear_2_3911)"/>
<path d="M73.5261 125.543C73.5261 125.543 73.0743 125.683 72.3792 125.516C72.3445 125.509 72.3028 125.509 72.2958 125.53C72.268 125.592 72.6642 125.975 73.1091 125.94C73.4218 125.913 73.7068 125.669 73.679 125.592C73.6651 125.55 73.5956 125.543 73.5261 125.543Z" fill="url(#paint27_linear_2_3911)"/>
<defs>
<linearGradient id="paint0_linear_2_3911" x1="77.5935" y1="26.9923" x2="32.2107" y2="93.74" gradientUnits="userSpaceOnUse">
<stop stop-color="#0EB863"/>
<stop offset="0.9964" stop-color="#007C3E"/>
</linearGradient>
<linearGradient id="paint1_linear_2_3911" x1="-0.489145" y1="37.7424" x2="72.3798" y2="136.512" gradientUnits="userSpaceOnUse">
<stop stop-color="#FFC444"/>
<stop offset="0.9964" stop-color="#F36F56"/>
</linearGradient>
<linearGradient id="paint2_linear_2_3911" x1="78.0482" y1="344.984" x2="14.6099" y2="212.25" gradientUnits="userSpaceOnUse">
<stop stop-color="#FDFEFE"/>
<stop offset="0.9964" stop-color="#F9BDEB" stop-opacity="0.8"/>
</linearGradient>
<linearGradient id="paint3_linear_2_3911" x1="127.163" y1="108.148" x2="136.993" y2="176.466" gradientUnits="userSpaceOnUse">
<stop offset="0.00359712" stop-color="#FAA034"/>
<stop offset="1" stop-color="white"/>
</linearGradient>
<linearGradient id="paint4_linear_2_3911" x1="106.163" y1="6.47669" x2="127.813" y2="121.898" gradientUnits="userSpaceOnUse">
<stop offset="0.00359712" stop-color="#FAA034"/>
<stop offset="1" stop-color="white"/>
</linearGradient>
<linearGradient id="paint5_linear_2_3911" x1="163.619" y1="26.0856" x2="131.988" y2="84.4434" gradientUnits="userSpaceOnUse">
<stop offset="0.00359712" stop-color="#FAA034"/>
<stop offset="1" stop-color="#6418C3"/>
</linearGradient>
<linearGradient id="paint6_linear_2_3911" x1="160.313" y1="16.3906" x2="144.125" y2="57.2194" gradientUnits="userSpaceOnUse">
<stop offset="0.00359712" stop-color="#FAA034"/>
<stop offset="1" stop-color="#6418C3"/>
</linearGradient>
<linearGradient id="paint7_linear_2_3911" x1="88.0547" y1="126.009" x2="73.3505" y2="138.679" gradientUnits="userSpaceOnUse">
<stop stop-color="#FFC444"/>
<stop offset="0.9964" stop-color="#F36F56"/>
</linearGradient>
<linearGradient id="paint8_linear_2_3911" x1="120.621" y1="188.128" x2="114.627" y2="190.258" gradientUnits="userSpaceOnUse">
<stop stop-color="#444B8C"/>
<stop offset="0.9964" stop-color="#26264F"/>
</linearGradient>
<linearGradient id="paint9_linear_2_3911" x1="116.905" y1="189.387" x2="112.817" y2="184.764" gradientUnits="userSpaceOnUse">
<stop stop-color="#FFC444"/>
<stop offset="0.9964" stop-color="#F36F56"/>
</linearGradient>
<linearGradient id="paint10_linear_2_3911" x1="111.098" y1="191.089" x2="105.104" y2="193.22" gradientUnits="userSpaceOnUse">
<stop stop-color="#444B8C"/>
<stop offset="0.9964" stop-color="#26264F"/>
</linearGradient>
<linearGradient id="paint11_linear_2_3911" x1="107.382" y1="192.349" x2="103.294" y2="187.726" gradientUnits="userSpaceOnUse">
<stop stop-color="#FFC444"/>
<stop offset="0.9964" stop-color="#F36F56"/>
</linearGradient>
<linearGradient id="paint12_linear_2_3911" x1="79.2581" y1="122.277" x2="48.2191" y2="139.383" gradientUnits="userSpaceOnUse">
<stop stop-color="#FFC444"/>
<stop offset="0.9964" stop-color="#F36F56"/>
</linearGradient>
<linearGradient id="paint13_linear_2_3911" x1="64.9024" y1="165.728" x2="78.8122" y2="145.202" gradientUnits="userSpaceOnUse">
<stop stop-color="#AA80F9"/>
<stop offset="0.9964" stop-color="#6165D7"/>
</linearGradient>
<linearGradient id="paint14_linear_2_3911" x1="63.72" y1="126.749" x2="40.0377" y2="143.832" gradientUnits="userSpaceOnUse">
<stop stop-color="#FFC444"/>
<stop offset="0.9964" stop-color="#F36F56"/>
</linearGradient>
<linearGradient id="paint15_linear_2_3911" x1="86.3317" y1="186.654" x2="105.698" y2="158.077" gradientUnits="userSpaceOnUse">
<stop stop-color="#09A154"/>
<stop offset="1" stop-color="#5E4FD9"/>
</linearGradient>
<linearGradient id="paint16_linear_2_3911" x1="97.1783" y1="160.746" x2="74.4251" y2="189.972" gradientUnits="userSpaceOnUse">
<stop stop-color="#0EB863"/>
<stop offset="1" stop-color="#6418C3"/>
</linearGradient>
<linearGradient id="paint17_linear_2_3911" x1="86.0732" y1="168.751" x2="81.8619" y2="159.161" gradientUnits="userSpaceOnUse">
<stop stop-color="#311944"/>
<stop offset="1" stop-color="#893976"/>
</linearGradient>
<linearGradient id="paint18_linear_2_3911" x1="69.857" y1="155.598" x2="71.7866" y2="164.312" gradientUnits="userSpaceOnUse">
<stop stop-color="#311944"/>
<stop offset="1" stop-color="#893976"/>
</linearGradient>
<linearGradient id="paint19_linear_2_3911" x1="69.6176" y1="157.556" x2="76.8109" y2="157.026" gradientUnits="userSpaceOnUse">
<stop stop-color="#FFC444"/>
<stop offset="0.9964" stop-color="#F36F56"/>
</linearGradient>
<linearGradient id="paint20_linear_2_3911" x1="95.1318" y1="154.502" x2="87.6372" y2="145.389" gradientUnits="userSpaceOnUse">
<stop stop-color="#444B8C"/>
<stop offset="0.9964" stop-color="#26264F"/>
</linearGradient>
<linearGradient id="paint21_linear_2_3911" x1="83.3263" y1="171.398" x2="95.9551" y2="140.177" gradientUnits="userSpaceOnUse">
<stop stop-color="#311944"/>
<stop offset="1" stop-color="#893976"/>
</linearGradient>
<linearGradient id="paint22_linear_2_3911" x1="74.6652" y1="152.588" x2="107.201" y2="150.188" gradientUnits="userSpaceOnUse">
<stop stop-color="#311944"/>
<stop offset="1" stop-color="#893976"/>
</linearGradient>
<linearGradient id="paint23_linear_2_3911" x1="66.9489" y1="136.103" x2="73.9676" y2="118.251" gradientUnits="userSpaceOnUse">
<stop stop-color="#FFC444"/>
<stop offset="0.9964" stop-color="#F36F56"/>
</linearGradient>
<linearGradient id="paint24_linear_2_3911" x1="65.8153" y1="130.552" x2="72.8119" y2="119.223" gradientUnits="userSpaceOnUse">
<stop stop-color="#311944"/>
<stop offset="1" stop-color="#6B3976"/>
</linearGradient>
<linearGradient id="paint25_linear_2_3911" x1="71.5946" y1="122.504" x2="69.2731" y2="140.439" gradientUnits="userSpaceOnUse">
<stop stop-color="#FFC444"/>
<stop offset="0.9964" stop-color="#F36F56"/>
</linearGradient>
<linearGradient id="paint26_linear_2_3911" x1="67.1758" y1="131.399" x2="74.1794" y2="120.059" gradientUnits="userSpaceOnUse">
<stop stop-color="#311944"/>
<stop offset="1" stop-color="#6B3976"/>
</linearGradient>
<linearGradient id="paint27_linear_2_3911" x1="73.1895" y1="124.883" x2="72.5387" y2="127.067" gradientUnits="userSpaceOnUse">
<stop stop-color="#FFC444"/>
<stop offset="1" stop-color="#F36F56"/>
</linearGradient>
</defs>
</svg>
