<svg width="208" height="210" viewBox="0 0 208 210" fill="none" xmlns="http://www.w3.org/2000/svg">
<path opacity="0.5" d="M49.5963 12.5633C42.666 22.6527 50.7947 39.0164 40.5075 46.6033C30.5018 53.9883 18.2077 41.8795 8.77233 48.2404C-5.21827 57.6735 -2.66271 100.837 17.7962 127.657C23.9469 135.72 29.0869 138.858 31.3681 147.981C36.2554 167.568 19.074 179.215 22.3442 188.908C29.7077 210.717 142.932 229.02 188.362 163.472C209.579 132.857 212.755 88.6485 193.798 55.07C159.536 -5.60341 65.1462 -10.082 49.5963 12.5633Z" fill="#6418C3"/>
<path d="M119.961 11.9719L18.5685 8.54623C16.2511 8.4669 14.3669 10.2627 14.3669 12.556V196.552C14.3669 198.846 16.2511 200.598 18.5685 200.461L119.961 194.699C122.054 194.576 123.758 192.723 123.758 190.545V16.0394C123.751 13.8614 122.054 12.044 119.961 11.9719Z" fill="#FAA034"/>
<g opacity="0.3">
<path opacity="0.3" d="M78.357 147.843C76.6316 126.806 89.5682 118.123 84.6376 99.0624C78.5375 75.5012 55.0899 74.4915 47.0983 51.3847C44.0374 42.5285 42.8318 29.1505 51.5886 9.66407L18.5685 8.54623C16.2511 8.4669 14.3669 10.2627 14.3669 12.556V196.552C14.3669 198.846 16.2511 200.598 18.5685 200.461L108.973 195.326C85.9731 177.535 79.4182 160.774 78.357 147.843Z" fill="#D8DEE8"/>
</g>
<path opacity="0.3" d="M119.961 14.2941L18.5684 10.9839C17.6155 10.955 16.843 11.6906 16.843 12.6282V196.408C16.843 197.346 17.6155 198.067 18.5684 198.016L119.961 192.377C120.82 192.326 121.52 191.562 121.52 190.675V15.9673C121.52 15.073 120.82 14.3229 119.961 14.2941Z" fill="url(#paint0_linear_2_4056)"/>
<path opacity="0.6" d="M100.808 153.426L39.2872 155.64C37.8361 155.69 36.6594 156.909 36.6594 158.358C36.6594 159.808 37.8361 160.94 39.2872 160.883L100.808 158.517C102.173 158.467 103.284 157.284 103.284 155.878C103.284 154.471 102.173 153.375 100.808 153.426Z" fill="url(#paint1_linear_2_4056)"/>
<path opacity="0.6" d="M100.808 162.491L39.2872 164.979C37.8361 165.037 36.6594 166.263 36.6594 167.712C36.6594 169.162 37.8361 170.287 39.2872 170.222L100.808 167.582C102.173 167.525 103.284 166.335 103.284 164.936C103.284 163.529 102.173 162.433 100.808 162.491Z" fill="url(#paint2_linear_2_4056)"/>
<path opacity="0.6" d="M100.808 171.556L39.2872 174.318C37.8361 174.383 36.6594 175.609 36.6594 177.059C36.6594 178.508 37.8361 179.626 39.2872 179.561L100.808 176.648C102.173 176.583 103.284 175.393 103.284 173.987C103.284 172.58 102.173 171.491 100.808 171.556Z" fill="url(#paint3_linear_2_4056)"/>
<path opacity="0.6" d="M68.9072 21.6574L37.959 20.7848C37.2371 20.7631 36.6523 21.3329 36.6523 22.0469C36.6523 22.7608 37.2371 23.3594 37.959 23.3811L68.9072 24.2176C69.6075 24.2393 70.1706 23.6767 70.1706 22.97C70.1706 22.2632 69.6075 21.6718 68.9072 21.6574Z" fill="url(#paint4_linear_2_4056)"/>
<path opacity="0.6" d="M68.9072 26.2153L37.959 25.4076C37.2371 25.3859 36.6523 25.9557 36.6523 26.6697C36.6523 27.3836 37.2371 27.9822 37.959 28.0038L68.9072 28.7755C69.6075 28.7899 70.1706 28.2346 70.1706 27.5279C70.1706 26.8139 69.6075 26.2297 68.9072 26.2153Z" fill="url(#paint5_linear_2_4056)"/>
<path opacity="0.6" d="M68.9072 30.766L37.959 30.0232C37.2371 30.0088 36.6523 30.5713 36.6523 31.2925C36.6523 32.0065 37.2371 32.6051 37.959 32.6195L68.9072 33.319C69.6075 33.3335 70.1706 32.7782 70.1706 32.0714C70.1706 31.3718 69.6075 30.7877 68.9072 30.766Z" fill="url(#paint6_linear_2_4056)"/>
<path opacity="0.35" d="M78.588 147.836C76.8626 126.799 89.7992 118.116 84.8686 99.0624C78.7757 75.5012 55.328 74.4916 47.3365 51.3919C44.4056 42.9036 43.1711 30.254 50.7945 12.044L18.8067 10.9983C17.8537 10.9694 17.0813 11.705 17.0813 12.6426V196.401C17.0813 197.339 17.8537 198.06 18.8067 198.009L106.446 193.134C85.6699 176.143 79.6059 160.226 78.588 147.836Z" fill="white"/>
<path d="M180.103 52.5892C182.233 53.671 184.911 52.6757 186.08 50.3751C187.25 48.0745 186.478 45.3268 184.348 44.245C184.24 44.1873 184.124 44.1441 184.009 44.0936C184.406 42.8171 184.702 41.5334 184.904 40.2497C185.026 40.2497 185.149 40.2497 185.272 40.2352C187.705 40.0189 189.632 37.7904 189.582 35.2518C189.531 32.7133 187.517 30.8382 185.091 31.0545C184.961 31.069 184.839 31.0834 184.716 31.105C184.463 29.8501 184.117 28.6241 183.676 27.4342C183.785 27.3693 183.9 27.3044 184.009 27.225C186.088 25.7682 186.752 22.8979 185.496 20.8137C184.24 18.7294 181.532 18.2102 179.453 19.667C179.345 19.7391 179.244 19.8257 179.15 19.905C178.327 18.9963 177.432 18.1597 176.457 17.388C176.522 17.2727 176.595 17.1645 176.652 17.0419C177.822 14.7413 179.352 12.2243 177.208 11.1786C172.241 8.75543 170.112 10.8325 168.942 13.133C168.885 13.2556 168.827 13.371 168.776 13.4936C167.585 13.1619 166.372 12.9311 165.152 12.8013C165.16 12.6715 165.167 12.5417 165.167 12.4119C165.116 9.87327 165.867 8.50302 163.427 8.45975C158.106 8.35878 156.316 10.6594 156.367 13.1979C156.367 13.3278 156.381 13.4576 156.396 13.5874C155.175 13.9336 153.977 14.3807 152.815 14.9144C152.757 14.799 152.699 14.6908 152.634 14.5826C151.378 12.4984 148.671 11.9864 146.592 13.4359C144.513 14.8927 143.849 17.7631 145.105 19.8473C145.17 19.9555 145.242 20.0564 145.314 20.1502C144.39 21.0733 143.531 22.0685 142.737 23.1431C142.636 23.0782 142.528 23.0133 142.419 22.9628C140.29 21.881 137.611 22.8763 136.442 25.1769C135.272 27.4774 136.045 30.2252 138.175 31.3069C138.283 31.3646 138.398 31.4079 138.514 31.4584C138.117 32.7349 137.821 34.0186 137.619 35.3023C137.496 35.3023 137.373 35.3023 137.25 35.3167C134.818 35.5331 132.89 37.7616 132.941 40.3001C132.991 42.8387 135.005 44.7138 137.431 44.4975C137.561 44.483 137.684 44.4686 137.806 44.447C138.059 45.7018 138.406 46.9279 138.846 48.1178C138.738 48.1827 138.622 48.2476 138.514 48.327C136.435 49.7838 135.771 52.6541 137.027 54.7383C138.283 56.8225 142.455 57.7961 144.535 56.3393C144.643 56.2672 143.278 55.7263 143.379 55.647C144.202 56.5557 145.098 57.3923 146.072 58.164C146.007 58.2793 145.935 58.3875 145.877 58.5101C144.708 60.8107 145.48 63.5584 147.61 64.6402C149.74 65.722 152.418 64.7267 153.587 62.4262C153.645 62.3036 153.703 62.1882 153.753 62.0656C154.944 62.3973 156.157 62.6281 157.377 62.7579C157.37 62.8877 157.363 63.0175 157.363 63.1474C157.413 65.6859 159.428 67.561 161.853 67.3447C164.286 67.1283 166.213 64.8998 166.163 62.3613C166.163 62.2314 166.149 62.1016 166.134 61.9718C167.354 61.6256 168.552 61.1785 169.715 60.6448C169.772 60.7602 169.83 60.8684 169.895 60.9766C171.151 63.0608 173.859 63.5801 175.938 62.1233C178.017 60.6665 178.681 57.7961 177.425 55.7119C177.36 55.6037 177.288 55.5028 177.215 55.409C178.139 54.4859 178.999 53.4907 179.793 52.4161C179.886 52.4738 179.988 52.5315 180.103 52.5892ZM153.551 52.9281C145.82 49.0049 142.997 39.0453 147.249 30.6795C151.501 22.3137 161.211 18.715 168.95 22.6383C176.681 26.5615 179.504 36.5211 175.252 44.8869C171 53.2455 161.283 56.8514 153.551 52.9281Z" fill="url(#paint7_linear_2_4056)"/>
<path d="M185.265 40.2425C187.697 40.0261 189.625 37.7976 189.574 35.2591C189.524 32.7205 187.51 30.8454 185.084 31.0617C184.954 31.0762 184.831 31.0906 184.709 31.1122C184.456 29.8574 184.11 28.6313 183.669 27.4414C183.777 27.3765 183.893 27.3116 184.001 27.2322C186.08 25.7754 188.65 22.2633 187.185 20.3161C184.398 16.6236 181.518 18.2174 179.439 19.6742C179.331 19.7463 179.229 19.8329 179.136 19.9122C178.313 19.0035 177.417 18.1669 176.443 17.3952C176.508 17.2799 176.58 17.1717 176.638 17.0491C177.273 15.7942 177.331 14.4095 176.912 13.2412C174.905 16.775 172.92 20.3161 170.978 23.8787C177.143 28.3934 179.114 37.2928 175.252 44.8797C171.981 51.3055 165.492 54.9186 159.146 54.4643C158.864 55.1999 158.583 55.9355 158.28 56.6567C157.457 58.6255 156.525 60.5583 155.587 62.4839C156.172 62.5921 156.764 62.6786 157.356 62.7435C157.348 62.8733 157.341 63.0031 157.341 63.1329C157.392 65.6715 158.929 67.8207 163.333 67.5899C165.766 67.4601 166.185 64.8854 166.134 62.3541C166.134 62.2242 166.12 62.0944 166.105 61.9646C167.325 61.6184 168.524 61.1713 169.686 60.6376C169.744 60.753 169.801 60.8612 169.866 60.9694C171.122 63.0536 175.49 63.9407 177.569 62.4911C179.648 61.0343 178.652 57.7889 177.389 55.7047C177.324 55.5965 177.251 55.4956 177.179 55.4018C178.103 54.4787 178.962 53.4835 179.756 52.4089C179.858 52.4738 179.966 52.5387 180.074 52.5892C182.204 53.671 184.882 52.6757 186.052 50.3751C187.221 48.0746 186.449 45.3268 184.312 44.245C184.203 44.1874 184.088 44.1441 183.972 44.0936C184.369 42.8171 184.665 41.5334 184.868 40.2497C185.019 40.2569 185.142 40.2569 185.265 40.2425Z" fill="url(#paint8_linear_2_4056)"/>
<path d="M182.391 52.8488C184.521 53.9306 187.199 52.9353 188.369 50.6347C189.538 48.3342 188.766 45.5864 186.629 44.5047C186.521 44.447 186.405 44.4037 186.29 44.3532C186.687 43.0767 186.983 41.793 187.185 40.5093C187.308 40.5093 187.43 40.5093 187.553 40.4949C189.986 40.2785 191.913 38.05 191.863 35.5115C191.812 32.9729 189.798 31.0978 187.373 31.3141C187.243 31.3286 187.12 31.343 186.997 31.3646C186.745 30.1098 186.398 28.8837 185.958 27.6938C186.066 27.6289 186.182 27.564 186.29 27.4846C188.369 26.0278 189.033 23.1575 187.777 21.0733C186.521 18.9891 183.814 18.4698 181.735 19.9266C181.626 19.9987 181.525 20.0853 181.431 20.1646C180.608 19.2559 179.713 18.4193 178.739 17.6477C178.804 17.5323 178.876 17.4241 178.934 17.3015C180.103 15.0009 179.331 12.2532 177.201 11.1714C175.071 10.0896 172.393 11.0848 171.224 13.3854C171.166 13.508 171.108 13.6234 171.058 13.746C169.866 13.4143 168.654 13.1835 167.434 13.0537C167.441 12.9239 167.448 12.7941 167.448 12.6642C167.397 10.1257 165.383 8.25058 162.958 8.46694C160.525 8.6833 158.597 10.9118 158.648 13.4503C158.648 13.5802 158.662 13.71 158.677 13.8398C157.457 14.186 156.258 14.6331 155.096 15.1668C155.038 15.0514 154.981 14.9432 154.916 14.835C153.659 12.7508 150.952 12.2315 148.873 13.6883C146.794 15.1451 146.13 18.0155 147.386 20.0997C147.451 20.2079 147.523 20.3088 147.595 20.4026C146.671 21.3257 145.812 22.3209 145.018 23.3955C144.917 23.3306 144.809 23.2657 144.701 23.2152C142.571 22.1334 139.893 23.1287 138.723 25.4293C137.554 27.7298 138.326 30.4776 140.456 31.5594C140.564 31.617 140.68 31.6603 140.795 31.7108C140.398 32.9873 140.102 34.271 139.9 35.5547C139.777 35.5547 139.654 35.5547 139.532 35.5692C137.099 35.7855 135.171 38.014 135.222 40.5526C135.272 43.0911 137.287 44.9662 139.712 44.7499C139.842 44.7354 139.965 44.721 140.088 44.6994C140.34 45.9542 140.687 47.1803 141.127 48.3702C141.019 48.4351 140.903 48.5 140.795 48.5794C138.716 50.0362 138.052 52.9065 139.308 54.9907C140.564 57.0749 143.271 57.5942 145.35 56.1374C145.459 56.0653 145.56 55.9787 145.654 55.8994C146.476 56.8081 147.372 57.6447 148.346 58.4164C148.281 58.5317 148.209 58.6399 148.151 58.7625C146.982 61.0631 147.754 63.8108 149.884 64.8926C152.014 65.9744 154.692 64.9792 155.861 62.6786C155.919 62.556 155.977 62.4406 156.027 62.318C157.219 62.6497 158.431 62.8805 159.651 63.0103C159.644 63.1401 159.637 63.2699 159.637 63.3998C159.687 65.9383 161.702 67.8134 164.127 67.5971C166.56 67.3807 168.488 65.1522 168.437 62.6137C168.437 62.4839 168.423 62.354 168.408 62.2242C169.628 61.8781 170.826 61.4309 171.989 60.8972C172.047 61.0126 172.104 61.1208 172.169 61.229C173.425 63.3132 176.133 63.8325 178.212 62.3757C180.291 60.9189 180.955 58.0485 179.699 55.9643C179.634 55.8561 179.562 55.7552 179.489 55.6614C180.413 54.7383 181.273 53.7431 182.067 52.6685C182.175 52.7334 182.283 52.7983 182.391 52.8488ZM155.84 53.1878C148.108 49.2645 145.285 39.3049 149.537 30.9391C153.789 22.5734 163.499 18.9746 171.238 22.8979C178.97 26.8212 181.792 36.7807 177.54 45.1465C173.288 53.5051 163.579 57.111 155.84 53.1878Z" fill="url(#paint9_linear_2_4056)"/>
<path d="M117.261 172.761C111.781 172.667 106.8 159.981 106.367 149.618C106.201 145.608 106.035 141.62 108.352 137.603C112.265 130.824 118.279 132.605 121.787 127.081C126.97 118.924 117.477 109.375 122.632 102.596C126.422 97.6129 132.767 101.204 137.366 95.7306C142.701 89.3769 137.496 80.5856 142.434 77.3835C145.307 75.5229 147.819 77.9966 156.078 76.1215C159.312 75.3859 160.922 75.0181 162.279 73.893C167.029 69.9265 163.398 63.1834 166.914 58.1639C170.783 52.6396 180.998 52.517 187.351 54.2623C198.735 57.385 205.377 68.5779 207.001 78.0398C207.348 80.0664 209.412 93.3002 200.995 101.781C194.873 107.947 185.561 109.224 184.052 109.433C178.168 110.241 176.732 108.719 174.833 110.277C169.361 114.763 180.088 128.523 173.88 139.319C171.346 143.726 166.365 146.978 161.651 147.923C154.028 149.459 149.869 144.425 146.079 146.956C141.185 150.231 145.978 160.104 140.665 164.056C136.904 166.847 133.085 162.96 126.465 165.852C120.596 168.397 120.509 172.811 117.261 172.761Z" fill="url(#paint10_linear_2_4056)"/>
<path opacity="0.5" d="M116.077 163.097C118.603 163.32 118.878 156.519 125.851 146.56C133.46 135.684 138.521 136.11 145.653 126.28C153.796 115.066 148.808 112.296 155.724 103.519C165.102 91.6198 175.23 95.4709 186.55 81.4799C189.95 77.2826 194.447 71.5635 192.657 65.6642C191.105 60.551 185.034 55.9859 179.085 56.8874C178.84 56.9234 173.844 57.7672 171.252 62.0943C168.069 67.4095 172.191 71.7871 169.115 75.9195C167.506 78.0831 164.575 78.761 158.713 80.1096C150.281 82.0496 148.584 80.463 146.491 82.3813C141.762 86.7085 148.657 96.4229 143.979 101.615C139.965 106.072 132.493 101.565 129.021 105.777C124.833 110.861 133.93 119.587 130.038 127.6C126.689 134.502 118.04 131.949 113.24 139.355C107.565 148.103 112.424 162.772 116.077 163.097Z" fill="#F4F7FA"/>
<path d="M138.384 8.02703L32.6747 4.45715C30.2563 4.37782 28.2927 6.24569 28.2927 8.63282V200.469C28.2927 202.856 30.2563 204.68 32.6747 204.543L138.391 198.536C140.579 198.413 142.347 196.473 142.347 194.209V12.2676C142.34 10.0031 140.571 8.10636 138.384 8.02703Z" fill="#F7A644"/>
<g opacity="0.3">
<path opacity="0.3" d="M95.0116 149.69C93.214 127.751 106.699 118.7 101.559 98.8245C95.1993 74.2609 70.7482 73.2079 62.4246 49.1203C59.2338 39.8891 57.9704 25.9341 67.1098 5.62547L32.6747 4.45715C30.2563 4.37782 28.2927 6.24569 28.2927 8.63282V200.469C28.2927 202.856 30.2563 204.68 32.6747 204.543L126.934 199.192C102.953 180.643 96.1161 163.169 95.0116 149.69Z" fill="#D8DEE8"/>
</g>
<path d="M138.384 10.4503L32.6748 7.00299C31.6857 6.97414 30.8772 7.7386 30.8772 8.71941V200.332C30.8772 201.312 31.6857 202.062 32.6748 202.005L138.391 196.12C139.286 196.069 140.016 195.269 140.016 194.338V12.1955C140.008 11.2652 139.279 10.4791 138.384 10.4503Z" fill="url(#paint11_linear_2_4056)"/>
<path d="M118.416 155.51L54.2743 157.818C52.7583 157.875 51.531 159.145 51.531 160.652C51.531 162.166 52.7583 163.342 54.2743 163.284L118.416 160.818C119.838 160.76 120.993 159.534 120.993 158.07C121 156.606 119.845 155.459 118.416 155.51Z" fill="#F9C46B"/>
<path d="M118.416 164.965L54.2743 167.561C52.7583 167.618 51.531 168.895 51.531 170.409C51.531 171.924 52.7583 173.092 54.2743 173.027L118.416 170.272C119.838 170.215 120.993 168.974 120.993 167.51C121 166.046 119.845 164.907 118.416 164.965Z" fill="#F9C46B"/>
<path d="M118.416 174.412L54.2743 177.29C52.7583 177.355 51.531 178.638 51.531 180.153C51.531 181.667 52.7583 182.828 54.2743 182.756L118.416 179.713C119.838 179.648 120.993 178.407 120.993 176.943C121 175.487 119.845 174.347 118.416 174.412Z" fill="#F9C46B"/>
<path d="M85.1575 18.1236L52.8882 17.2077C52.1374 17.1861 51.531 17.7775 51.531 18.5203C51.531 19.2703 52.1374 19.8905 52.8882 19.9122L85.1575 20.7848C85.8867 20.8064 86.4714 20.2223 86.4714 19.4867C86.4714 18.7583 85.8867 18.1453 85.1575 18.1236Z" fill="#62D19A"/>
<path d="M85.1575 22.8762L52.8882 22.0324C52.1374 22.0108 51.531 22.6022 51.531 23.3522C51.531 24.1022 52.1374 24.7225 52.8882 24.7369L85.1575 25.5374C85.8867 25.559 86.4714 24.9749 86.4714 24.2393C86.4714 23.5037 85.8867 22.8906 85.1575 22.8762Z" fill="#62D19A"/>
<path d="M85.1575 27.6289L52.8882 26.8572C52.1374 26.8428 51.531 27.4341 51.531 28.177C51.531 28.927 52.1374 29.5472 52.8882 29.5616L85.1575 30.29C85.8867 30.3045 86.4714 29.7203 86.4714 28.9847C86.4714 28.2563 85.8867 27.6433 85.1575 27.6289Z" fill="#62D19A"/>
<path d="M72.7263 78.66C74.8198 74.7007 78.7398 71.888 83.3383 71.3616L83.656 51.7958C70.5605 52.1419 59.2843 60.2048 54.231 71.7654L72.7263 78.66Z" fill="url(#paint12_linear_2_4056)"/>
<path d="M98.4046 87.5522C97.2856 94.0501 91.6981 99.0407 84.941 99.1057C82.9413 99.1273 81.0427 98.709 79.3173 97.9518L69.0518 114.806C73.7947 117.323 79.209 118.7 84.9338 118.592C101.956 118.282 115.745 104.969 117.304 88.2734L98.4046 87.5522Z" fill="#0EB863"/>
<path d="M65.8898 112.88L76.1842 96.0117C73.0872 93.4731 71.102 89.5859 71.102 85.2227C71.102 84.1698 71.2175 83.1385 71.4413 82.1505L52.9171 75.292C51.9425 78.4508 51.4155 81.8043 51.4155 85.2804C51.4155 96.7978 57.1619 106.902 65.8898 112.88Z" fill="#FFD365"/>
<path d="M86.9985 71.4337C93.1781 72.3929 97.9788 77.5205 98.5491 83.867L129.837 85.1002C129.837 85.0858 129.837 85.0714 129.837 85.0569C129.837 60.8323 111.32 40.7039 87.5328 38.9154L86.9985 71.4337Z" fill="url(#paint13_linear_2_4056)"/>
<path opacity="0.35" d="M95.1197 149.683C93.3222 127.751 106.807 118.7 101.667 98.8245C95.3146 74.2609 70.8636 73.208 62.54 49.1203C59.4791 40.2713 58.1941 27.0808 66.1495 8.09918L32.7973 7.01019C31.8083 6.98134 30.9998 7.7458 30.9998 8.72662V200.317C30.9998 201.298 31.8083 202.048 32.7973 201.99L124.177 196.906C102.498 179.194 96.1737 162.606 95.1197 149.683Z" fill="white"/>
<path d="M59.8978 59.9742L8.73612 59.4622C7.58106 59.4477 6.64258 58.5318 6.64258 57.4068V37.9708C6.64258 36.8457 7.58106 35.9587 8.73612 35.9875L53.2779 37.0476C54.3752 37.0765 55.2632 37.978 55.2632 39.0742V55.7841L59.8978 59.9742Z" fill="url(#paint14_linear_2_4056)"/>
<path opacity="0.67" d="M48.0731 44.072L14.1938 43.4085V41.0791L48.0731 41.7859V44.072Z" fill="white"/>
<path opacity="0.67" d="M48.0731 48.6371L14.1938 48.0673V45.7379L48.0731 46.3509V48.6371Z" fill="white"/>
<path opacity="0.67" d="M48.0731 53.2023L14.1938 52.7335V50.3969L48.0731 50.9233V53.2023Z" fill="white"/>
<path opacity="0.3" d="M85.2803 125.4L130.992 124.419C132.183 124.39 133.143 125.371 133.143 126.597V147.858C133.143 149.084 132.183 150.115 130.992 150.159L82.8113 151.781C81.5624 151.824 80.5518 150.836 80.5518 149.574V121.78L85.2803 125.4Z" fill="url(#paint15_linear_2_4056)"/>
<path opacity="0.67" d="M88.6877 143.394L125.339 142.305V144.872L88.6877 146.012V143.394Z" fill="white"/>
<path opacity="0.67" d="M88.6877 138.165L125.339 137.163V139.73L88.6877 140.783V138.165Z" fill="white"/>
<path opacity="0.67" d="M88.6877 132.937L125.339 132.021V134.595L88.6877 135.555V132.937Z" fill="white"/>
<path d="M143.047 198.882C143.047 198.882 136.326 201.954 136.218 202.437C136.11 202.928 140.542 202.264 142.354 202.329C144.166 202.394 145.653 201.86 145.487 201.089C145.321 200.324 144.686 198.399 144.686 198.399L143.047 198.882Z" fill="url(#paint16_linear_2_4056)"/>
<path d="M142.795 196.408L143.213 199.43C143.213 199.43 144.282 199.805 144.997 199.358L145.293 196.04L142.795 196.408Z" fill="url(#paint17_linear_2_4056)"/>
<path d="M174.479 196.401L175.266 197.656C175.483 198.009 175.555 198.428 175.447 198.831C175.172 199.877 174.631 201.911 174.4 202.445C174.075 203.166 169.722 203.606 169.722 203.606C169.722 203.606 169.332 203.058 170.234 202.401C171.137 201.738 171.714 201.637 172.032 200.663C172.35 199.69 172.552 196.935 172.552 196.935L174.479 196.401Z" fill="url(#paint18_linear_2_4056)"/>
<path d="M171.209 193.221C171.498 193.444 172.905 197.685 172.905 197.685C172.905 197.685 173.36 198.262 174.219 197.403C175.078 196.545 174.609 197.021 174.609 197.021L174.436 192.853L171.209 193.221Z" fill="url(#paint19_linear_2_4056)"/>
<path d="M138.947 135.627C138.615 144.656 138.622 154.457 139.171 164.936C139.784 176.727 140.99 187.631 142.491 197.512C143.04 197.526 143.625 197.526 144.224 197.512C144.635 197.497 145.025 197.476 145.408 197.454C146.173 195.406 147.075 192.709 147.884 189.485C148.729 186.095 149.241 183.059 149.602 180.16C150.873 169.933 149.349 169.046 150.389 161.467C151.306 154.752 152.627 154.493 154.157 144.959C155.818 134.617 154.562 133.074 153.948 132.511C151.342 130.124 145.242 131.768 138.947 135.627Z" fill="url(#paint20_linear_2_4056)"/>
<path opacity="0.3" d="M153.948 132.504C151.465 130.232 145.798 131.624 139.82 135.115C146.729 142.536 147.487 147.353 146.671 150.483C145.747 154.024 142.91 155.048 142.932 158.914C142.953 163.666 147.256 164.914 147.177 169.941C147.126 173.265 145.235 173.237 144.801 177.347C144.289 182.208 146.758 183.874 145.964 187.473C145.624 189.023 144.65 191.043 141.863 193.134C142.065 194.613 142.275 196.069 142.499 197.505C143.047 197.519 143.632 197.519 144.231 197.505C144.643 197.49 145.032 197.468 145.415 197.447C146.18 195.399 147.083 192.701 147.891 189.478C148.736 186.088 149.248 183.052 149.609 180.153C150.88 169.926 149.357 169.039 150.396 161.46C151.313 154.745 152.634 154.486 154.165 144.952C155.818 134.61 154.562 133.066 153.948 132.504Z" fill="url(#paint21_linear_2_4056)"/>
<path d="M143.213 135.468C149.162 144.122 155.587 154.897 161.341 167.799C165.686 177.549 168.848 186.701 171.166 194.865C171.476 195.009 172.213 195.29 173.151 195.168C174.429 194.995 175.194 194.18 175.396 193.949C176.32 188.093 176.205 183.131 175.88 179.554C175.67 177.261 175.302 173.446 173.83 168.744C172.176 163.472 171.05 163.176 168.906 157.601C166.675 151.81 167.21 150.368 165.066 143.12C164.185 140.141 162.712 135.713 160.294 130.42C154.605 132.1 148.909 133.788 143.213 135.468Z" fill="url(#paint22_linear_2_4056)"/>
<path d="M119.037 123.258C119.094 125.364 122.559 127.218 125.346 127.787C131.872 129.114 139.43 124.383 143.018 119.148C143.726 118.116 144.506 116.869 144.693 116.97C145.119 117.186 141.199 123.626 139.495 130.946C138.629 134.689 138.853 136.449 137.229 138.937C136.86 139.499 136.406 140.091 136.564 140.761C136.962 142.435 140.795 142.867 143.452 143.17C146.26 143.488 148.873 143.459 151.457 143.423C155.601 143.365 155.926 143.149 156.872 143.61C159.752 145.024 159.557 148.406 161.723 148.853C163.542 149.235 165.39 147.202 165.975 146.56C169.014 143.214 168.855 139.182 169.397 135.107C170.653 125.645 175.793 115.282 180.832 108.719C182.355 106.729 183.416 105.683 183.489 103.837C183.683 98.4062 175.071 92.4131 167.91 91.728C165.946 91.5405 162.431 91.5982 159.131 91.9083C157.81 92.0309 156.41 92.2184 154.901 92.478C151.241 93.1199 148.7 93.5598 146.101 94.7498C135.633 99.5312 137.922 110.183 126.595 117.546C122.697 120.071 118.979 121.051 119.037 123.258Z" fill="url(#paint23_linear_2_4056)"/>
<path d="M161.918 86.0883C161.918 86.0883 162.366 88.5908 163.405 90.3793C164.344 91.9948 168.206 92.5717 169.014 92.853C169.823 93.1342 167.802 94.5333 165.65 95.0454C163.499 95.5502 157.218 95.8892 155.984 95.2113C154.75 94.5333 156.785 94.3314 158.265 93.5525C159.745 92.7736 160.236 89.6221 159.781 88.2807C159.312 86.9248 161.918 86.0883 161.918 86.0883Z" fill="url(#paint24_linear_2_4056)"/>
<path d="M157.832 85.3599C156.273 84.2493 155.84 81.2347 156.706 80.5568C156.951 80.3621 157.19 80.4558 160.712 81.8621C162.459 82.5617 163.319 82.9367 163.6 83.7084C163.773 84.1772 163.744 84.8118 163.557 85.3166C163.456 85.5763 163.268 85.8936 162.842 86.5066C162.467 87.0475 162.488 87.0331 162.373 87.1917C162.091 87.5739 161.557 88.2086 160.575 88.9514C160.518 88.6774 160.431 88.3312 160.287 87.9562C160.229 87.8119 160.005 87.2494 159.651 86.7734C159.038 85.9585 158.337 85.7277 157.832 85.3599Z" fill="url(#paint25_linear_2_4056)"/>
<path d="M161.831 88.223C161.831 88.223 160.813 89.7447 158.922 89.5356C157.233 89.3481 157.146 85.5402 158.265 84.783C158.641 84.5305 159.37 84.4512 159.947 84.6387C160.294 84.7541 160.402 84.8983 160.965 85.0714C161.485 85.2301 161.636 85.1796 161.788 85.3166C161.983 85.4897 162.106 85.908 161.723 87.0042C162.062 86.6941 162.452 86.5787 162.727 86.7229C162.77 86.7446 162.885 86.8311 162.943 86.9537C163.167 87.4081 162.748 87.9417 161.831 88.223Z" fill="url(#paint26_linear_2_4056)"/>
<path opacity="0.3" d="M128.19 122.934C132.919 121.866 134.803 121.902 137.142 120.02C141.033 116.883 141.618 112.116 143.885 112.174C144.953 112.202 145.819 113.291 146.44 114.359C145.87 115.253 145.3 116.14 144.729 117.034C144.729 116.998 144.722 116.977 144.7 116.962C144.513 116.869 143.726 118.116 143.026 119.14C139.438 124.376 131.872 129.114 125.353 127.78C123.483 127.398 121.311 126.439 120.069 125.213C123.281 124.131 126.032 123.417 128.19 122.934Z" fill="url(#paint27_linear_2_4056)"/>
<path d="M120.488 126.994C120.488 126.994 117.817 126.727 116.228 126.049C114.64 125.371 113.608 126.345 113.759 127.023C113.904 127.701 116.524 128.638 117.564 128.674C118.611 128.703 120.488 126.994 120.488 126.994Z" fill="url(#paint28_linear_2_4056)"/>
<path d="M177.966 141.093C180.832 141.346 187.279 141.468 191.841 137.249C199.436 130.232 195.667 116.869 193.025 111.128C189.993 104.543 185.171 100.851 182.24 98.6153C178.601 95.8387 176.385 94.1367 173.714 94.519C166.805 95.4998 162.026 109.642 165.816 113.695C167.058 115.022 168.285 114.272 171.88 115.412C173.05 115.787 181.785 118.563 183.301 124.989C184.362 129.482 181.655 134.754 176.833 138.288C177.208 139.218 177.583 140.156 177.966 141.093Z" fill="url(#paint29_linear_2_4056)"/>
<path opacity="0.3" d="M145.848 138.764C149.09 136.716 149.573 134.639 153.205 133.24C157.926 131.415 160.193 133.73 162.532 131.862C165.318 129.641 162.849 125.761 164.936 119.039C165.289 117.9 167.975 109.231 174.14 108.128C177.013 107.616 180.81 108.712 182.276 111.142C183.424 113.046 182.355 114.467 183.749 116.566C185.142 118.664 186.802 118.152 188.578 119.905C191.394 122.689 191.827 128.552 189.286 131.869C188.102 133.42 186.557 134.026 183.662 135.18C181.893 135.886 180.247 136.319 178.825 136.6C182.377 133.196 184.218 128.804 183.308 124.975C182.363 120.972 178.609 118.383 175.634 116.912C172.66 122.508 170.227 128.992 169.419 135.093C168.877 139.161 169.043 143.199 165.997 146.545C165.412 147.187 163.564 149.221 161.745 148.839C159.579 148.385 159.774 145.002 156.894 143.596C155.948 143.134 155.623 143.351 151.479 143.408C148.895 143.444 146.274 143.48 143.473 143.156C141.113 142.889 137.828 142.514 136.846 141.259C141.098 141.144 143.95 139.968 145.848 138.764Z" fill="url(#paint30_linear_2_4056)"/>
<path d="M176.082 143.343L176.414 142.363C176.948 140.798 176.075 139.132 174.458 138.641L111.319 119.429L109.392 125.941L172.212 145.269C173.822 145.767 175.555 144.908 176.082 143.343Z" fill="url(#paint31_linear_2_4056)"/>
<path d="M48.5783 101.774C53.4079 82.7203 72.3219 71.239 91.0338 76.6191C110.085 82.1001 120.993 102.719 115.203 122.162C109.551 141.144 90.1675 151.385 72.0765 145.529C54.2958 139.781 43.857 120.395 48.5783 101.774ZM109.71 120.482C114.496 104.212 105.364 86.9825 89.4528 82.3597C73.7802 77.809 57.8621 87.3648 53.7544 103.361C49.7261 119.054 58.5262 135.41 73.5347 140.228C88.767 145.117 105.017 136.434 109.71 120.482Z" fill="url(#paint32_linear_2_4056)"/>
<path opacity="0.3" d="M111.319 119.429L119.369 121.881C119.924 124.448 120.993 125.912 122.076 126.814C126.14 130.182 131.576 126.511 139.149 130.456C142.953 132.439 142.231 133.701 145.79 135.079C151.681 137.365 154.381 134.199 159.593 136.276C164.863 138.382 165.383 142.925 168.379 142.766C169.657 142.694 171.303 141.764 173.144 138.245L174.465 138.648C176.075 139.139 176.948 140.805 176.421 142.37L176.089 143.351C175.562 144.908 173.829 145.774 172.227 145.276L109.406 125.948L111.319 119.429Z" fill="#D8DEE8"/>
<path opacity="0.56" d="M72.0404 142.831C87.7996 147.894 104.62 138.93 109.486 122.422C114.453 105.575 104.996 87.7254 88.5143 82.9439C72.293 78.2346 55.8191 88.1437 51.5815 104.702C47.4233 120.936 56.5265 137.848 72.0404 142.831Z" fill="white"/>
<path d="M47.351 103.411C52.1806 84.3574 71.0946 72.8761 89.8065 78.2562C108.858 83.7372 119.766 104.356 113.976 123.799C108.323 142.781 88.9402 153.022 70.8491 147.166C53.0757 141.411 42.6369 122.032 47.351 103.411ZM108.482 122.119C113.269 105.849 104.136 88.6196 88.2255 83.9968C72.5528 79.4461 56.6347 89.0019 52.5271 104.998C48.4988 120.691 57.2989 137.047 72.3074 141.865C87.5469 146.747 103.79 138.064 108.482 122.119Z" fill="url(#paint33_linear_2_4056)"/>
<path d="M49.1773 103.974C53.7542 86.0017 71.6143 75.2056 89.2433 80.2899C107.183 85.468 117.456 104.89 112.027 123.201C106.714 141.108 88.442 150.808 71.3616 145.29C54.5628 139.874 44.7015 121.556 49.1773 103.974ZM108.482 122.119C113.268 105.849 104.136 88.6196 88.2254 83.9968C72.5528 79.4461 56.6347 89.0019 52.527 104.998C48.4987 120.691 57.2988 137.047 72.3073 141.865C87.5468 146.747 103.79 138.064 108.482 122.119Z" fill="url(#paint34_linear_2_4056)"/>
<path d="M177.721 140.495L177.085 138.908C177.085 138.908 176.046 138.973 175.187 138.36C174.718 138.028 173.895 137.927 173.656 137.992C173.418 138.057 172.509 138.021 173.541 138.511C174.573 139.002 174.566 139.37 174.133 139.773C173.7 140.177 172.061 141.05 171.469 141.093C170.877 141.136 171.945 142.045 172.545 142.161C173.137 142.276 174.118 142.427 175.324 141.713C175.764 141.454 177.721 140.495 177.721 140.495Z" fill="url(#paint35_linear_2_4056)"/>
<path d="M128.111 34.1917C128.934 34.61 129.966 34.2278 130.421 33.3335C130.876 32.4465 130.573 31.3863 129.75 30.968C129.707 30.9464 129.663 30.9247 129.62 30.9103C129.772 30.4199 129.887 29.9223 129.966 29.4247C130.017 29.4247 130.06 29.4247 130.111 29.4175C131.049 29.3309 131.793 28.4727 131.771 27.4919C131.75 26.5111 130.977 25.7899 130.039 25.8692C129.988 25.8764 129.945 25.8836 129.894 25.8909C129.793 25.4077 129.663 24.9317 129.49 24.4701C129.533 24.4485 129.577 24.4196 129.62 24.3908C130.421 23.8283 130.681 22.7176 130.19 21.9171C129.707 21.1094 128.66 20.9147 127.858 21.4772C127.815 21.506 127.779 21.5349 127.743 21.5709C127.425 21.2176 127.079 20.893 126.703 20.5973C126.732 20.5541 126.754 20.5108 126.776 20.4675C127.23 19.5805 127.815 18.6069 126.992 18.203C125.072 17.2655 124.249 18.066 123.801 18.9602C123.78 19.0035 123.758 19.054 123.736 19.0973C123.274 18.9675 122.805 18.8809 122.336 18.8304C122.336 18.78 122.343 18.7295 122.343 18.679C122.321 17.6982 122.617 17.1717 121.672 17.1501C119.621 17.1068 118.928 18.0011 118.943 18.9819C118.943 19.0324 118.95 19.0828 118.95 19.1333C118.481 19.2704 118.019 19.4362 117.564 19.6454C117.542 19.6021 117.521 19.5588 117.492 19.5156C117.008 18.7078 115.961 18.5131 115.16 19.0756C114.359 19.6382 114.099 20.7488 114.59 21.5493C114.611 21.5926 114.64 21.6286 114.669 21.6647C114.315 22.0181 113.983 22.4075 113.673 22.8186C113.63 22.797 113.594 22.7681 113.55 22.7465C112.727 22.3282 111.695 22.7104 111.24 23.6047C110.785 24.4918 111.088 25.5519 111.911 25.9702C111.955 25.9918 111.998 26.0135 112.041 26.0279C111.89 26.5183 111.774 27.0159 111.695 27.5135C111.644 27.5135 111.601 27.5135 111.551 27.5207C110.612 27.6073 109.868 28.4655 109.89 29.4463C109.912 30.4271 110.684 31.1483 111.623 31.069C111.673 31.0618 111.717 31.0546 111.767 31.0473C111.868 31.5305 111.998 32.0065 112.171 32.4681C112.128 32.4897 112.085 32.5186 112.041 32.5474C111.24 33.1099 110.98 34.2206 111.471 35.0211C111.955 35.8288 113.565 36.2038 114.366 35.6413C114.409 35.6125 113.882 35.4033 113.918 35.3745C114.236 35.7279 114.583 36.0524 114.958 36.3481C114.929 36.3913 114.907 36.4346 114.886 36.4779C114.431 37.3649 114.734 38.4251 115.557 38.8434C116.38 39.2617 117.412 38.8794 117.867 37.9852C117.889 37.9419 117.911 37.8914 117.932 37.8481C118.394 37.978 118.863 38.0645 119.333 38.115C119.333 38.1655 119.325 38.2159 119.325 38.2664C119.347 39.2472 120.12 39.9684 121.058 39.8891C121.997 39.8026 122.74 38.9443 122.718 37.9635C122.718 37.9131 122.711 37.8626 122.711 37.8121C123.18 37.6751 123.642 37.5092 124.097 37.3C124.119 37.3433 124.141 37.3866 124.169 37.4299C124.653 38.2376 125.7 38.4323 126.501 37.8698C127.303 37.3073 127.562 36.1966 127.072 35.3961C127.05 35.3528 127.021 35.3168 126.992 35.2807C127.346 34.9273 127.678 34.5379 127.988 34.1268C128.024 34.1485 128.068 34.1701 128.111 34.1917ZM117.86 34.3215C114.871 32.807 113.781 28.9631 115.427 25.7322C117.066 22.5013 120.82 21.1094 123.801 22.6239C126.79 24.1384 127.88 27.9823 126.234 31.2132C124.595 34.4441 120.849 35.836 117.86 34.3215Z" fill="url(#paint36_linear_2_4056)"/>
<path d="M130.104 29.4247C131.042 29.3382 131.786 28.4799 131.764 27.4991C131.742 26.5183 130.97 25.7971 130.031 25.8765C129.981 25.8837 129.937 25.8909 129.887 25.8981C129.786 25.4149 129.656 24.9389 129.483 24.4773C129.526 24.4557 129.569 24.4269 129.613 24.398C130.414 23.8355 131.41 22.4797 130.84 21.7296C129.764 20.3017 128.653 20.9219 127.851 21.4844C127.808 21.5133 127.772 21.5421 127.736 21.5782C127.418 21.2248 127.072 20.9003 126.696 20.6046C126.725 20.5613 126.747 20.518 126.768 20.4748C127.014 19.9916 127.035 19.4579 126.877 19.0035C126.104 20.3666 125.339 21.7368 124.588 23.1143C126.97 24.8596 127.728 28.2924 126.241 31.2204C124.978 33.7013 122.473 35.0932 120.026 34.9201C119.917 35.2014 119.809 35.4899 119.694 35.7711C119.376 36.5284 119.015 37.2784 118.654 38.0212C118.878 38.0645 119.109 38.1006 119.34 38.1222C119.34 38.1727 119.333 38.2232 119.333 38.2737C119.354 39.2545 119.946 40.0838 121.65 39.9973C122.588 39.9468 122.754 38.9516 122.733 37.978C122.733 37.9275 122.726 37.877 122.726 37.8265C123.195 37.6895 123.657 37.5236 124.112 37.3145C124.133 37.3578 124.155 37.401 124.184 37.4443C124.668 38.252 126.357 38.591 127.158 38.0285C127.959 37.4659 127.577 36.2111 127.093 35.4105C127.072 35.3673 127.043 35.3312 127.014 35.2952C127.368 34.9418 127.7 34.5523 128.01 34.1413C128.053 34.1629 128.089 34.1917 128.133 34.2134C128.956 34.6317 129.988 34.2494 130.443 33.3552C130.898 32.4681 130.594 31.408 129.771 30.9897C129.728 30.968 129.685 30.9464 129.642 30.932C129.793 30.4416 129.909 29.9439 129.988 29.4463C130.01 29.4319 130.06 29.4319 130.104 29.4247Z" fill="url(#paint37_linear_2_4056)"/>
<path d="M128.992 34.2927C129.815 34.711 130.847 34.3288 131.302 33.4345C131.757 32.5475 131.454 31.4873 130.631 31.069C130.587 31.0474 130.544 31.0258 130.501 31.0113C130.652 30.5209 130.768 30.0233 130.847 29.5257C130.898 29.5257 130.941 29.5257 130.992 29.5185C131.93 29.4319 132.674 28.5737 132.652 27.5929C132.63 26.6121 131.858 25.8909 130.919 25.9702C130.869 25.9774 130.826 25.9847 130.775 25.9919C130.674 25.5087 130.544 25.0327 130.371 24.5711C130.414 24.5495 130.457 24.5206 130.501 24.4918C131.302 23.9293 131.562 22.8186 131.071 22.0181C130.587 21.2104 129.541 21.0157 128.739 21.5782C128.696 21.6071 128.66 21.6359 128.624 21.672C128.306 21.3186 127.96 20.994 127.584 20.6984C127.613 20.6551 127.635 20.6118 127.656 20.5685C128.111 19.6815 127.808 18.6213 126.985 18.2031C126.162 17.7848 125.13 18.167 124.675 19.0613C124.653 19.1045 124.632 19.155 124.61 19.1983C124.148 19.0685 123.679 18.9819 123.209 18.9315C123.209 18.881 123.217 18.8305 123.217 18.78C123.195 17.7992 122.423 17.078 121.484 17.1573C120.546 17.2439 119.802 18.1021 119.824 19.0829C119.824 19.1334 119.831 19.1839 119.831 19.2343C119.362 19.3714 118.9 19.5372 118.445 19.7464C118.423 19.7031 118.402 19.6598 118.373 19.6166C117.889 18.8088 116.842 18.6141 116.041 19.1767C115.24 19.7392 114.98 20.8498 115.471 21.6503C115.492 21.6936 115.521 21.7297 115.55 21.7657C115.196 22.1191 114.864 22.5085 114.554 22.9196C114.51 22.898 114.474 22.8691 114.431 22.8475C113.608 22.4292 112.576 22.8114 112.121 23.7057C111.666 24.5928 111.969 25.6529 112.792 26.0712C112.836 26.0928 112.879 26.1145 112.922 26.1289C112.771 26.6193 112.655 27.1169 112.576 27.6145C112.525 27.6145 112.482 27.6145 112.431 27.6217C111.493 27.7083 110.749 28.5665 110.771 29.5473C110.793 30.5281 111.565 31.2493 112.504 31.17C112.554 31.1628 112.597 31.1556 112.648 31.1484C112.749 31.6315 112.879 32.1075 113.052 32.5691C113.009 32.5907 112.966 32.6196 112.922 32.6484C112.121 33.2109 111.861 34.3216 112.352 35.1221C112.836 35.9298 113.882 36.1245 114.684 35.562C114.727 35.5332 114.763 35.5043 114.799 35.4683C115.117 35.8216 115.463 36.1462 115.839 36.4419C115.81 36.4851 115.788 36.5284 115.767 36.5717C115.312 37.4587 115.615 38.5189 116.438 38.9372C117.261 39.3555 118.293 38.9732 118.748 38.079C118.77 38.0357 118.791 37.9852 118.813 37.9419C119.275 38.0717 119.744 38.1583 120.214 38.2088C120.214 38.2593 120.206 38.3097 120.206 38.3602C120.228 39.341 121 40.0622 121.939 39.9829C122.877 39.8963 123.621 39.0381 123.599 38.0573C123.599 38.0068 123.592 37.9564 123.592 37.9059C124.061 37.7688 124.523 37.603 124.978 37.3938C125 37.4371 125.021 37.4804 125.05 37.5236C125.534 38.3314 126.581 38.5261 127.382 37.9636C128.183 37.401 128.443 36.2904 127.952 35.4899C127.931 35.4466 127.902 35.4106 127.873 35.3745C128.227 35.0211 128.559 34.6317 128.869 34.2206C128.913 34.2495 128.956 34.2711 128.992 34.2927ZM118.748 34.4225C115.759 32.908 114.669 29.0641 116.315 25.8332C117.954 22.6023 121.708 21.2104 124.689 22.7249C127.678 24.2394 128.768 28.0833 127.122 31.3142C125.483 34.5451 121.73 35.937 118.748 34.4225Z" fill="url(#paint38_linear_2_4056)"/>
<defs>
<linearGradient id="paint0_linear_2_4056" x1="119.218" y1="19.8641" x2="44.4891" y2="142.271" gradientUnits="userSpaceOnUse">
<stop stop-color="white"/>
<stop offset="0.9964" stop-color="#EBEFF2"/>
</linearGradient>
<linearGradient id="paint1_linear_2_4056" x1="36.6564" y1="157.155" x2="103.283" y2="157.155" gradientUnits="userSpaceOnUse">
<stop stop-color="white"/>
<stop offset="0.9964" stop-color="#EBEFF2"/>
</linearGradient>
<linearGradient id="paint2_linear_2_4056" x1="36.6564" y1="166.357" x2="103.283" y2="166.357" gradientUnits="userSpaceOnUse">
<stop stop-color="white"/>
<stop offset="0.9964" stop-color="#EBEFF2"/>
</linearGradient>
<linearGradient id="paint3_linear_2_4056" x1="36.6564" y1="175.558" x2="103.283" y2="175.558" gradientUnits="userSpaceOnUse">
<stop stop-color="white"/>
<stop offset="0.9964" stop-color="#EBEFF2"/>
</linearGradient>
<linearGradient id="paint4_linear_2_4056" x1="36.6565" y1="22.4966" x2="70.1702" y2="22.4966" gradientUnits="userSpaceOnUse">
<stop stop-color="white"/>
<stop offset="0.9964" stop-color="#EBEFF2"/>
</linearGradient>
<linearGradient id="paint5_linear_2_4056" x1="36.6565" y1="27.0876" x2="70.1702" y2="27.0876" gradientUnits="userSpaceOnUse">
<stop stop-color="white"/>
<stop offset="0.9964" stop-color="#EBEFF2"/>
</linearGradient>
<linearGradient id="paint6_linear_2_4056" x1="36.6565" y1="31.6787" x2="70.1702" y2="31.6787" gradientUnits="userSpaceOnUse">
<stop stop-color="white"/>
<stop offset="0.9964" stop-color="#EBEFF2"/>
</linearGradient>
<linearGradient id="paint7_linear_2_4056" x1="103.096" y1="7.40756" x2="234.385" y2="75.0811" gradientUnits="userSpaceOnUse">
<stop stop-color="#AB700B"/>
<stop offset="0.9964" stop-color="#FAA034"/>
</linearGradient>
<linearGradient id="paint8_linear_2_4056" x1="103.425" y1="6.76825" x2="234.714" y2="74.4418" gradientUnits="userSpaceOnUse">
<stop stop-color="#FAA034"/>
<stop offset="0.9964" stop-color="#C68019"/>
</linearGradient>
<linearGradient id="paint9_linear_2_4056" x1="143.848" y1="8.93347" x2="152.621" y2="66.287" gradientUnits="userSpaceOnUse">
<stop offset="0.00359712" stop-color="#FAA034"/>
<stop offset="1" stop-color="white"/>
</linearGradient>
<linearGradient id="paint10_linear_2_4056" x1="224.456" y1="507.931" x2="208.789" y2="455.013" gradientUnits="userSpaceOnUse">
<stop stop-color="#DBADE6"/>
<stop offset="0.9964" stop-color="#DBADE6"/>
</linearGradient>
<linearGradient id="paint11_linear_2_4056" x1="137.613" y1="16.2564" x2="59.698" y2="143.881" gradientUnits="userSpaceOnUse">
<stop stop-color="white"/>
<stop offset="0.9964" stop-color="#EBEFF2"/>
</linearGradient>
<linearGradient id="paint12_linear_2_4056" x1="67.496" y1="48.7168" x2="74.4633" y2="111.755" gradientUnits="userSpaceOnUse">
<stop stop-color="#FFC444"/>
<stop offset="0.9964" stop-color="#F36F56"/>
</linearGradient>
<linearGradient id="paint13_linear_2_4056" x1="108.418" y1="38.9154" x2="108.418" y2="85.1002" gradientUnits="userSpaceOnUse">
<stop stop-color="#FF85B3"/>
<stop offset="1" stop-color="#4700D8"/>
</linearGradient>
<linearGradient id="paint14_linear_2_4056" x1="38.2425" y1="32.5519" x2="9.52381" y2="126.737" gradientUnits="userSpaceOnUse">
<stop stop-color="#FFC444"/>
<stop offset="0.9964" stop-color="#F36F56"/>
</linearGradient>
<linearGradient id="paint15_linear_2_4056" x1="73.1978" y1="182.072" x2="114.828" y2="123.962" gradientUnits="userSpaceOnUse">
<stop stop-color="#62D19A"/>
<stop offset="1" stop-color="#005029"/>
</linearGradient>
<linearGradient id="paint16_linear_2_4056" x1="139.765" y1="188.296" x2="141.483" y2="209.539" gradientUnits="userSpaceOnUse">
<stop stop-color="#311944"/>
<stop offset="1" stop-color="#A03976"/>
</linearGradient>
<linearGradient id="paint17_linear_2_4056" x1="144.107" y1="200.114" x2="143.751" y2="178.109" gradientUnits="userSpaceOnUse">
<stop stop-color="#FFC444"/>
<stop offset="0.9964" stop-color="#F36F56"/>
</linearGradient>
<linearGradient id="paint18_linear_2_4056" x1="171.338" y1="185.741" x2="173.057" y2="206.984" gradientUnits="userSpaceOnUse">
<stop stop-color="#311944"/>
<stop offset="1" stop-color="#A03976"/>
</linearGradient>
<linearGradient id="paint19_linear_2_4056" x1="173.047" y1="199.646" x2="172.691" y2="177.641" gradientUnits="userSpaceOnUse">
<stop stop-color="#FFC444"/>
<stop offset="0.9964" stop-color="#F36F56"/>
</linearGradient>
<linearGradient id="paint20_linear_2_4056" x1="138.764" y1="164.479" x2="155.051" y2="164.439" gradientUnits="userSpaceOnUse">
<stop stop-color="#444B8C"/>
<stop offset="0.9964" stop-color="#3E4177"/>
</linearGradient>
<linearGradient id="paint21_linear_2_4056" x1="138.764" y1="164.479" x2="155.051" y2="164.44" gradientUnits="userSpaceOnUse">
<stop stop-color="#444B8C"/>
<stop offset="0.9964" stop-color="#3E4177"/>
</linearGradient>
<linearGradient id="paint22_linear_2_4056" x1="143.282" y1="162.864" x2="176.069" y2="162.785" gradientUnits="userSpaceOnUse">
<stop stop-color="#444B8C"/>
<stop offset="0.9964" stop-color="#3E4177"/>
</linearGradient>
<linearGradient id="paint23_linear_2_4056" x1="164.246" y1="85.2373" x2="121.63" y2="128.993" gradientUnits="userSpaceOnUse">
<stop stop-color="#FFC444"/>
<stop offset="0.9964" stop-color="#F36F56"/>
</linearGradient>
<linearGradient id="paint24_linear_2_4056" x1="163.066" y1="88.0223" x2="159.593" y2="118.684" gradientUnits="userSpaceOnUse">
<stop stop-color="#FFC444"/>
<stop offset="0.9964" stop-color="#F36F56"/>
</linearGradient>
<linearGradient id="paint25_linear_2_4056" x1="164.01" y1="95.1723" x2="159.111" y2="80.7414" gradientUnits="userSpaceOnUse">
<stop stop-color="#444B8C"/>
<stop offset="0.9964" stop-color="#3E4177"/>
</linearGradient>
<linearGradient id="paint26_linear_2_4056" x1="159.934" y1="84.4933" x2="162.663" y2="107.086" gradientUnits="userSpaceOnUse">
<stop stop-color="#FFC444"/>
<stop offset="0.9964" stop-color="#F36F56"/>
</linearGradient>
<linearGradient id="paint27_linear_2_4056" x1="120.064" y1="120.092" x2="146.44" y2="120.092" gradientUnits="userSpaceOnUse">
<stop stop-color="#41BC80"/>
<stop offset="0.9964" stop-color="#007C3E"/>
</linearGradient>
<linearGradient id="paint28_linear_2_4056" x1="114.451" y1="125.507" x2="119.522" y2="128.583" gradientUnits="userSpaceOnUse">
<stop stop-color="#FFC444"/>
<stop offset="0.9964" stop-color="#F36F56"/>
</linearGradient>
<linearGradient id="paint29_linear_2_4056" x1="186.82" y1="89.2577" x2="155.626" y2="108.657" gradientUnits="userSpaceOnUse">
<stop stop-color="#FFC444"/>
<stop offset="0.9964" stop-color="#F36F56"/>
</linearGradient>
<linearGradient id="paint30_linear_2_4056" x1="136.835" y1="128.45" x2="190.95" y2="128.45" gradientUnits="userSpaceOnUse">
<stop stop-color="#5FC995"/>
<stop offset="0.9964" stop-color="#007C3E"/>
</linearGradient>
<linearGradient id="paint31_linear_2_4056" x1="109.396" y1="132.42" x2="176.572" y2="132.42" gradientUnits="userSpaceOnUse">
<stop stop-color="#444B8C"/>
<stop offset="0.9964" stop-color="#26264F"/>
</linearGradient>
<linearGradient id="paint32_linear_2_4056" x1="47.4421" y1="111.237" x2="116.755" y2="111.237" gradientUnits="userSpaceOnUse">
<stop stop-color="#444B8C"/>
<stop offset="0.9964" stop-color="#26264F"/>
</linearGradient>
<linearGradient id="paint33_linear_2_4056" x1="72.7422" y1="150.154" x2="83.8682" y2="99.0065" gradientUnits="userSpaceOnUse">
<stop stop-color="#444B8C"/>
<stop offset="0.9964" stop-color="#26264F"/>
</linearGradient>
<linearGradient id="paint34_linear_2_4056" x1="89.3201" y1="75.3119" x2="73.7929" y2="143.906" gradientUnits="userSpaceOnUse">
<stop stop-color="#444B8C"/>
<stop offset="0.9964" stop-color="#26264F"/>
</linearGradient>
<linearGradient id="paint35_linear_2_4056" x1="172.879" y1="145.046" x2="175.603" y2="138.013" gradientUnits="userSpaceOnUse">
<stop stop-color="#FFC444"/>
<stop offset="0.9964" stop-color="#F36F56"/>
</linearGradient>
<linearGradient id="paint36_linear_2_4056" x1="98.3605" y1="16.7435" x2="149.07" y2="42.893" gradientUnits="userSpaceOnUse">
<stop stop-color="#DF8F26"/>
<stop offset="0.9964" stop-color="#C68019"/>
</linearGradient>
<linearGradient id="paint37_linear_2_4056" x1="98.5337" y1="16.5032" x2="149.206" y2="42.5855" gradientUnits="userSpaceOnUse">
<stop stop-color="#FBB057"/>
<stop offset="0.9964" stop-color="#D68A22"/>
</linearGradient>
<linearGradient id="paint38_linear_2_4056" x1="114.103" y1="17.338" x2="117.487" y2="39.4774" gradientUnits="userSpaceOnUse">
<stop offset="0.00359712" stop-color="#FAA034"/>
<stop offset="1" stop-color="#FBE3C5"/>
</linearGradient>
</defs>
</svg>
