<svg width="216" height="214" viewBox="0 0 216 214" fill="none" xmlns="http://www.w3.org/2000/svg">
<path opacity="0.5" d="M110.023 0.045933C58.2403 -1.51922 13.3936 36.9924 6.61939 87.5329C-0.788723 142.784 39.9891 192.501 90.1579 200.467C152.563 210.372 213.096 153.071 207.663 90.913C203.565 44.0833 162.654 1.64048 110.023 0.045933Z" fill="#6418C3"/>
<path d="M84.7547 189.489C87.5189 181.09 90.3348 168.267 87.0398 154.026C83.2584 137.677 74.8772 134.407 67.3512 116.933C56.6112 91.9934 68.7664 73.9243 57.6432 66.2969C52.218 62.5788 43.6968 62.5788 38.4337 66.3116C23.4406 76.9591 27.5537 123.348 51.3482 141.446C62.1102 149.632 71.5012 148.662 79.5801 159.258C86.7155 168.62 86.1553 180.965 84.7547 189.489Z" fill="url(#paint0_linear_2_4180)"/>
<path d="M86.4426 168.355C85.5433 164.821 84.3271 161.352 82.8381 158.038C79.4178 150.426 75.6363 146.237 70.8524 140.932C67.7344 137.471 64.1962 133.547 60.1051 127.926C52.4537 117.403 50.0802 113.707 47.9573 107.748C43.7483 95.954 44.397 85.38 45.1562 80.1261C46.2324 72.6751 48.746 65.5841 52.6085 59.0516L52.837 59.1913C48.9892 65.6944 46.4904 72.7559 45.4142 80.1702C44.6549 85.4021 44.0137 95.9246 48.2005 107.66C50.3161 113.59 52.6823 117.271 60.3115 127.771C64.3952 133.385 67.926 137.302 71.0441 140.756C75.8427 146.076 79.6316 150.279 83.074 157.936C84.5703 161.264 85.7866 164.747 86.6932 168.296L86.4426 168.355Z" fill="white"/>
<path d="M45.9081 99.4076L45.7165 99.3048C45.6722 99.2827 41.2274 96.8431 37.2837 91.8905C33.6423 87.3199 29.6766 79.597 31.512 68.8026L31.7774 68.8467C29.9641 79.5456 33.8856 87.195 37.4975 91.7288C40.9473 96.0569 44.7656 98.4377 45.6575 98.9594C45.9007 90.3327 51.4513 84.7407 56.0878 81.559C61.1445 78.0907 66.2307 76.6651 66.2823 76.6578L66.356 76.915C66.3044 76.9297 61.2551 78.3405 56.2352 81.7868C51.6135 84.9612 46.0777 90.5531 45.9229 99.1872L45.9081 99.4076Z" fill="white"/>
<path d="M47.1685 127.154C42.6794 127.154 37.3943 126.052 32.5219 122.268L32.684 122.055C43.6303 130.549 56.6406 125.369 57.9306 124.818C55.7192 116.301 57.6726 110.018 59.707 106.241C61.9258 102.126 64.7121 100.01 64.7416 99.9955L64.9038 100.209C64.8743 100.231 62.1248 102.317 59.9356 106.381C57.9158 110.129 55.9846 116.382 58.2181 124.869L58.2475 124.979L58.1443 125.023C58.0706 125.06 53.3678 127.154 47.1685 127.154Z" fill="white"/>
<path d="M57.1935 143.401C53.8249 143.401 49.7928 142.791 45.0973 141.079L45.1931 140.829C60.5622 146.428 68.7738 140.153 69.6215 139.455C65.8769 130.733 71.1473 116.617 71.2063 116.477L71.4569 116.573C71.4053 116.713 66.1349 130.821 69.909 139.44L69.9458 139.529L69.8721 139.595C69.8131 139.646 65.5525 143.401 57.1935 143.401Z" fill="white"/>
<path d="M93.3275 176.321C94.2636 170.677 94.8018 161.867 90.1947 153.982C82.16 140.234 67.506 144.797 53.4858 130.064C42.1783 118.182 45.7387 108.953 33.2075 101.054C31.1067 99.731 20.0277 92.4563 11.7793 96.8431C7.13537 99.3121 5.45472 104.382 5.13776 105.33C0.361183 119.711 15.0521 142.218 34.2026 152.513C45.2006 158.428 48.7535 156.495 68.1104 163.395C79.4769 167.444 88.0202 172.669 93.3275 176.321Z" fill="url(#paint1_linear_2_4180)"/>
<path d="M94.9492 183.11C92.1481 169.693 86.8408 160.684 79.1821 156.334C75.4449 154.21 72.4595 153.872 69.2972 153.519C65.8475 153.13 62.2798 152.726 57.5548 149.882C52.9625 147.112 51.3187 144.452 49.24 141.086C47.3898 138.096 45.09 134.37 39.9301 129.41C35.4042 125.06 32.1092 123.025 29.1976 121.232C26.0132 119.27 23.4996 117.712 20.5806 113.906C15.8261 107.696 13.342 99.7383 13.1946 90.2519L13.4599 90.2445C13.6074 99.6722 16.0694 107.571 20.787 113.737C23.6765 117.506 26.168 119.049 29.3303 120.996C32.2493 122.797 35.559 124.84 40.107 129.212C45.289 134.194 47.6036 137.934 49.4612 140.939C51.5251 144.275 53.1468 146.913 57.6875 149.647C62.3609 152.461 65.8991 152.858 69.3193 153.247C72.5111 153.608 75.5186 153.946 79.3074 156.099C87.0325 160.485 92.384 169.553 95.1998 183.052L94.9492 183.11Z" fill="white"/>
<path d="M29.3671 122.062C19.5338 122.062 12.1921 118.307 7.70297 115.081C2.65365 111.451 0.029485 107.689 0 107.652L0.221138 107.498C0.243252 107.535 2.85268 111.26 7.8725 114.868C12.4795 118.175 20.1088 122.04 30.3622 121.783C29.7651 119.872 24.5979 102.516 31.2468 95.0723L31.4458 95.2486C24.5389 102.972 30.6055 121.68 30.6718 121.864L30.7308 122.033L30.5539 122.04C30.1558 122.055 29.7578 122.062 29.3671 122.062Z" fill="white"/>
<path d="M28.6153 138.015C22.3276 138.015 14.3003 136.721 6.25085 131.916L6.39091 131.688C16.4085 137.677 26.3891 138.176 32.9938 137.544C39.569 136.913 44.1907 135.068 44.9426 134.752C42.2742 124.95 44.6477 111.113 44.6772 110.974L44.9426 111.018C44.9205 111.157 42.5322 125.038 45.2375 134.796L45.2669 134.907L45.1637 134.951C45.1121 134.973 40.2324 137.118 33.0306 137.809C31.6817 137.934 30.2001 138.015 28.6153 138.015Z" fill="white"/>
<path d="M135.123 177.092C131.872 169.935 128.149 158.876 129.69 145.988C131.459 131.188 138.543 127.492 143.511 111.341C150.595 88.2825 138.123 73.4834 147.211 65.687C151.642 61.8807 159.175 61.065 164.18 63.8573C178.451 71.83 179.284 113.193 160.008 131.46C151.288 139.72 142.899 139.764 136.788 149.889C131.378 158.839 133.066 169.693 135.123 177.092Z" fill="#62D19A"/>
<g opacity="0.5">
<path opacity="0.5" d="M131.614 158.582L131.349 158.545C131.806 155.327 132.55 152.13 133.545 149.044C135.845 141.953 138.793 137.875 142.516 132.717C144.934 129.366 147.676 125.567 150.742 120.218C156.47 110.217 158.209 106.734 159.507 101.296C162.079 90.531 160.494 81.2944 159.322 76.7532C157.664 70.3089 154.774 64.3128 150.75 58.934L150.963 58.7723C155.01 64.1732 157.907 70.1987 159.58 76.6798C160.76 81.2503 162.345 90.531 159.765 101.355C158.46 106.822 156.72 110.32 150.971 120.35C147.897 125.707 145.155 129.513 142.73 132.871C139.015 138.015 136.081 142.071 133.796 149.125C132.801 152.197 132.064 155.378 131.614 158.582Z" fill="white"/>
<path opacity="0.5" d="M160.76 93.823L160.73 93.6025C159.765 85.9898 154.332 81.5809 149.946 79.2222C145.184 76.665 140.599 75.9008 140.548 75.8935L140.592 75.629C140.636 75.6363 145.273 76.4079 150.071 78.9871C154.472 81.3532 159.905 85.7547 160.959 93.3453C161.733 92.7722 164.843 90.3032 167.453 86.1882C170.202 81.8455 172.922 74.7178 170.291 65.4518L170.549 65.3783C173.21 74.7472 170.453 81.9484 167.674 86.3352C164.667 91.0895 160.974 93.6686 160.937 93.6907L160.76 93.823Z" fill="white"/>
<path opacity="0.5" d="M159.573 118.586C155.453 118.586 152.475 117.631 152.416 117.609L152.312 117.572L152.327 117.462C154.538 102.714 144.16 96.3949 144.049 96.3361L144.182 96.1083C144.285 96.1744 154.767 102.545 152.6 117.389C153.853 117.763 165.794 121.048 174.61 112.531L174.795 112.722C169.9 117.455 164.062 118.586 159.573 118.586Z" fill="white"/>
<path opacity="0.5" d="M152.423 133.907C151.214 133.907 150.145 133.812 149.231 133.665C145.509 133.077 143.533 131.659 143.452 131.6L143.378 131.541L143.408 131.453C145.907 123.487 139.899 111.532 139.84 111.414L140.076 111.297C140.135 111.414 146.15 123.37 143.688 131.446C144.543 132.004 152.393 136.707 165.374 130.314L165.492 130.549C160.192 133.158 155.762 133.907 152.423 133.907Z" fill="white"/>
</g>
<path d="M122.584 178.576C120.896 172.544 119.267 163.02 123.343 153.894C130.464 137.985 146.946 141.218 160.465 123.531C171.367 109.269 166.391 99.6353 179.092 89.5684C181.215 87.8857 192.419 78.6637 201.914 82.4554C207.265 84.5937 209.698 89.9137 210.155 90.9057C217.054 105.991 203.742 132.224 184.119 145.686C172.849 153.424 168.758 151.734 148.501 161.529C136.604 167.29 127.928 173.976 122.584 178.576Z" fill="url(#paint2_linear_2_4180)"/>
<g opacity="0.7">
<path opacity="0.7" d="M121.611 186.16L121.346 186.13C122.813 171.111 127.552 160.618 135.44 154.93C139.302 152.145 142.538 151.425 145.966 150.653C149.644 149.83 153.455 148.978 158.202 145.363C162.816 141.85 164.276 138.786 166.126 134.914C167.792 131.423 169.863 127.081 174.913 121.048C179.343 115.757 182.697 113.149 185.66 110.841C188.866 108.343 191.402 106.374 194.1 101.928C198.508 94.6606 200.255 85.762 199.289 75.4893L199.555 75.4673C200.52 85.8061 198.759 94.7562 194.321 102.068C191.601 106.557 189.051 108.541 185.822 111.054C182.866 113.354 179.52 115.956 175.112 121.224C170.084 127.228 168.021 131.556 166.362 135.031C164.497 138.941 163.03 142.027 158.357 145.576C153.558 149.228 149.725 150.088 146.017 150.918C142.619 151.682 139.405 152.395 135.587 155.151C127.773 160.787 123.071 171.221 121.611 186.16Z" fill="white"/>
<path opacity="0.7" d="M184.289 112.105L184.326 111.929C184.37 111.716 188.756 90.6339 180.323 83.0359L180.5 82.8375C188.638 90.1636 185.033 109.746 184.621 111.804C195.84 110.885 203.69 105.764 208.319 101.619C213.354 97.1003 215.742 92.7428 215.764 92.6987L216 92.8236C215.978 92.8677 213.568 97.2693 208.496 101.81C203.815 106.006 195.854 111.194 184.466 112.076L184.289 112.105Z" fill="white"/>
<path opacity="0.7" d="M183.021 129.535C175.436 129.535 170.158 127.867 170.107 127.852L169.996 127.815L170.018 127.705C171.802 116.771 167.556 101.935 167.519 101.788L167.777 101.715C167.822 101.862 172.053 116.646 170.306 127.632C171.116 127.874 176.394 129.359 183.662 129.263C190.93 129.175 201.729 127.448 211.916 119.755L212.079 119.968C201.825 127.713 190.96 129.439 183.655 129.535C183.441 129.535 183.235 129.535 183.021 129.535Z" fill="white"/>
<path opacity="0.7" d="M174.212 155.452C167.549 155.452 162.146 154.489 158.379 153.512C152.541 151.998 149.253 150.117 149.224 150.102L149.099 150.029L149.172 149.911C156.182 139.198 151.266 123.282 151.214 123.12L151.465 123.039C151.516 123.201 156.44 139.117 149.474 149.941C150.846 150.683 163.583 157.164 183.419 154.585L183.456 154.849C180.168 155.275 177.072 155.452 174.212 155.452Z" fill="white"/>
</g>
<path d="M162.735 13.7796L63.8572 10.4435C61.5942 10.37 59.7588 12.1116 59.7588 14.3454V193.398C59.7588 195.631 61.5942 197.329 63.8572 197.204L162.735 191.597C164.777 191.48 166.436 189.672 166.436 187.556V17.7329C166.428 15.6166 164.777 13.8457 162.735 13.7796Z" fill="#FAA034"/>
<g opacity="0.3">
<path opacity="0.3" d="M122.164 145.987C120.483 125.515 133.095 117.065 128.289 98.5184C122.341 75.5922 99.4678 74.6076 91.6837 52.1222C88.6984 43.5102 87.5189 30.4819 96.0622 11.5237L63.8572 10.4362C61.5942 10.3627 59.7588 12.1042 59.7588 14.3381V193.39C59.7588 195.624 61.5942 197.322 63.8572 197.197L152.025 192.2C129.587 174.888 123.196 158.575 122.164 145.987Z" fill="#D8DEE8"/>
</g>
<path d="M162.735 16.0355L63.8572 12.817C62.9284 12.7876 62.1765 13.5078 62.1765 14.4189V193.258C62.1765 194.169 62.9284 194.875 63.8572 194.823L162.735 189.334C163.576 189.29 164.254 188.541 164.254 187.673V17.6595C164.254 16.7924 163.568 16.0649 162.735 16.0355Z" fill="url(#paint3_linear_2_4180)"/>
<path d="M144.057 151.425L84.0618 153.578C82.6465 153.629 81.4966 154.813 81.4966 156.223C81.4966 157.634 82.6465 158.736 84.0618 158.678L144.057 156.37C145.391 156.319 146.467 155.173 146.467 153.806C146.467 152.446 145.391 151.381 144.057 151.425Z" fill="#6E21D1"/>
<path d="M144.057 160.25L84.0618 162.675C82.6465 162.734 81.4966 163.924 81.4966 165.335C81.4966 166.746 82.6465 167.841 84.0618 167.782L144.057 165.21C145.391 165.151 146.467 163.998 146.467 162.631C146.467 161.257 145.391 160.191 144.057 160.25Z" fill="#6E21D1"/>
<path d="M144.057 169.068L84.0618 171.757C82.6465 171.823 81.4966 173.014 81.4966 174.425C81.4966 175.835 82.6465 176.923 84.0618 176.857L144.057 174.021C145.391 173.954 146.467 172.801 146.467 171.434C146.467 170.067 145.391 169.009 144.057 169.068Z" fill="#6E21D1"/>
<path d="M112.942 23.1999L82.7644 22.3476C82.0642 22.3255 81.4966 22.8766 81.4966 23.5747C81.4966 24.2728 82.0642 24.8533 82.7644 24.8753L112.942 25.691C113.621 25.713 114.173 25.1692 114.173 24.4785C114.181 23.7878 113.628 23.2146 112.942 23.1999Z" fill="#FFD365"/>
<path d="M112.942 27.6309L82.7644 26.8446C82.0642 26.83 81.4966 27.3811 81.4966 28.0791C81.4966 28.7772 82.0642 29.3577 82.7644 29.3724L112.942 30.1219C113.621 30.1366 114.173 29.5929 114.173 28.9095C114.181 28.2188 113.628 27.6529 112.942 27.6309Z" fill="#FFD365"/>
<path d="M112.942 32.0692L82.7644 31.349C82.0642 31.3343 81.4966 31.8855 81.4966 32.5835C81.4966 33.2816 82.0642 33.8621 82.7644 33.8768L112.942 34.5602C113.621 34.5749 114.173 34.0311 114.173 33.3404C114.181 32.6497 113.628 32.0839 112.942 32.0692Z" fill="#FFD365"/>
<path d="M101.318 79.6999C103.279 76.0038 106.942 73.3805 111.24 72.8882L111.542 54.6281C99.2982 54.944 88.7426 62.4759 84.0176 73.2629L101.318 79.6999Z" fill="url(#paint4_linear_2_4180)"/>
<path d="M125.341 88.0033C124.294 94.0729 119.068 98.7243 112.751 98.783C110.878 98.7977 109.102 98.4156 107.495 97.7029L97.8977 113.428C102.335 115.779 107.399 117.058 112.751 116.962C128.673 116.668 141.572 104.25 143.025 88.6646L125.341 88.0033Z" fill="#0EB863"/>
<path d="M94.9271 111.642L104.554 95.9025C101.657 93.5291 99.7995 89.9065 99.7995 85.8356C99.7995 84.8509 99.91 83.8957 100.116 82.9698L82.794 76.5623C81.8799 79.5089 81.3934 82.6392 81.3934 85.887C81.3861 96.63 86.7597 106.058 94.9271 111.642Z" fill="url(#paint5_linear_2_4180)"/>
<path d="M114.667 72.9543C120.446 73.8507 124.936 78.6344 125.474 84.557L154.737 85.7107C154.737 85.696 154.737 85.6813 154.737 85.6739C154.737 63.0637 137.422 44.2818 115.169 42.6064L114.667 72.9543Z" fill="url(#paint6_linear_2_4180)"/>
<path opacity="0.35" d="M122.392 145.98C120.712 125.508 133.324 117.058 128.518 98.5111C122.569 75.5849 99.7036 74.6002 91.9196 52.1223C89.0595 43.8629 87.858 31.5548 95.2956 13.8311L64.1004 12.817C63.1717 12.7876 62.4198 13.5078 62.4198 14.4189V193.236C62.4198 194.147 63.1717 194.853 64.1004 194.801L149.57 190.054C129.299 173.536 123.38 158.046 122.392 145.98Z" fill="white"/>
<path opacity="0.3" d="M91.9934 59.9113L28.6005 59.2793C27.1705 59.2647 26.0059 58.1257 26.0059 56.7369V32.7011C26.0059 31.3123 27.1705 30.2101 28.6005 30.2469L83.7892 31.5548C85.1455 31.5842 86.2438 32.7085 86.2438 34.0605V54.7235L91.9934 59.9113Z" fill="#005029"/>
<path opacity="0.67" d="M77.3393 40.2477L35.3527 39.432V36.5442L77.3393 37.4186V40.2477Z" fill="white"/>
<path opacity="0.67" d="M77.3393 45.891L35.3527 45.193V42.3125L77.3393 43.0694V45.891Z" fill="white"/>
<path opacity="0.67" d="M77.3393 51.5418L35.3527 50.954V48.0735L77.3393 48.7201V51.5418Z" fill="white"/>
<path opacity="0.3" d="M113.06 123.318L155.814 122.4C156.927 122.378 157.826 123.289 157.826 124.435V144.275C157.826 145.422 156.927 146.384 155.814 146.421L110.753 147.935C109.589 147.971 108.645 147.053 108.645 145.877V119.938L113.06 123.318Z" fill="#0EB863"/>
<path opacity="0.67" d="M116.252 140.116L150.528 139.095V141.498L116.252 142.556V140.116Z" fill="white"/>
<path opacity="0.67" d="M116.252 135.237L150.528 134.304V136.699L116.252 137.677V135.237Z" fill="white"/>
<path opacity="0.67" d="M116.252 130.358L150.528 129.505V131.901L116.252 132.797V130.358Z" fill="white"/>
<path d="M183.471 207.19C183.574 206.639 185.365 206.132 186.257 206.874C186.699 207.242 187.001 207.991 186.751 208.329C186.655 208.454 187.038 208.667 186.677 208.674C185.461 208.689 183.368 207.741 183.471 207.19Z" fill="url(#paint7_linear_2_4180)"/>
<path d="M185.432 207.19L187.296 207.286C186.648 206.117 187.429 202.936 187.429 202.936L185.417 202.994C185.417 202.994 185.468 203.92 185.586 205.294C185.631 205.757 185.549 206.463 185.432 207.19Z" fill="url(#paint8_linear_2_4180)"/>
<path d="M185.188 207.161C185.188 207.161 187.414 206.646 187.65 207.087C187.893 207.528 188.078 208.704 186.67 208.667C185.254 208.63 185.063 207.536 185.188 207.161Z" fill="url(#paint9_linear_2_4180)"/>
<path d="M159.875 211.21C160.052 210.673 161.902 210.431 162.676 211.29C163.06 211.717 163.259 212.503 162.956 212.797C162.846 212.907 163.192 213.172 162.831 213.128C161.637 212.973 159.698 211.746 159.875 211.21Z" fill="url(#paint10_linear_2_4180)"/>
<path d="M162.065 211.724L163.893 212.084C163.421 210.835 164.652 207.793 164.652 207.793L162.654 207.565C162.654 207.565 162.573 208.483 162.492 209.865C162.463 210.335 162.286 211.026 162.065 211.724Z" fill="url(#paint11_linear_2_4180)"/>
<path d="M161.578 211.423C161.578 211.423 163.856 211.224 164.025 211.695C164.202 212.165 164.224 213.355 162.831 213.12C161.445 212.892 161.408 211.775 161.578 211.423Z" fill="url(#paint12_linear_2_4180)"/>
<path d="M178.407 147.479C178.908 155.981 179.601 164.821 180.544 173.969C181.635 184.565 182.955 194.691 184.444 204.317C186.272 204.942 187.967 204.317 187.967 204.317C187.967 204.317 190.105 200.827 191.741 191.539C192.788 185.579 192.862 185.66 192.877 184.617C192.936 179.377 191.093 177.856 190.739 173.168C190.415 168.833 191.8 167.532 192.626 162.653C193.26 158.898 193.503 153.431 191.491 146.281C187.12 146.678 182.763 147.075 178.407 147.479Z" fill="url(#paint13_linear_2_4180)"/>
<path opacity="0.3" d="M178.407 147.479C178.908 155.981 179.601 164.821 180.544 173.969C181.635 184.565 182.955 194.691 184.444 204.317C186.272 204.942 187.967 204.317 187.967 204.317C187.945 203.428 187.879 202.083 187.694 200.459C187.201 196.161 186.412 194.933 186.331 192.295C186.228 188.923 187.451 188.82 187.694 185.491C188.07 180.34 185.232 179.12 184.967 174.608C184.687 169.84 187.68 168.274 189.972 162.366C191.328 158.876 192.53 153.637 191.491 146.289C187.12 146.678 182.763 147.075 178.407 147.479Z" fill="url(#paint14_linear_2_4180)"/>
<path d="M169.222 147.215C166.716 155.628 164.291 166.077 162.934 178.224C161.622 190.018 161.644 200.489 162.183 209.101C162.979 209.321 163.775 209.542 164.571 209.769C169.2 204.942 170.858 200.503 171.485 197.255C172.421 192.457 171.013 190.833 172.237 185.41C172.517 184.161 172.915 182.824 177.515 173.83C181.908 165.247 182.807 163.998 183.552 160.919C184.613 156.517 184.333 152.615 183.928 150.007C179.033 149.074 174.131 148.14 169.222 147.215Z" fill="url(#paint15_linear_2_4180)"/>
<path d="M149.474 129.028L141.617 110.68C141.226 109.761 141.749 108.718 142.722 108.475L157.118 104.992C157.9 104.801 158.696 105.213 158.998 105.947L166.229 123.583C166.59 124.465 166.111 125.457 165.205 125.736L151.443 129.932C150.646 130.174 149.806 129.785 149.474 129.028Z" fill="#26264F"/>
<path d="M149.836 128.146L142.494 111.003C142.125 110.143 142.619 109.166 143.526 108.945L156.971 105.69C157.701 105.514 158.445 105.896 158.725 106.587L165.477 123.061C165.817 123.884 165.374 124.81 164.519 125.075L151.664 128.999C150.927 129.219 150.138 128.852 149.836 128.146Z" fill="url(#paint16_linear_2_4180)"/>
<path d="M145.302 123.105L145.066 120.945L143.813 118.572C143.644 118.248 143.555 117.888 143.555 117.521V115.162L145.066 118.638C145.066 118.638 146.054 117.741 146.437 117.557C146.813 117.366 146.769 118.123 146.482 118.403C146.202 118.682 146.622 120.989 146.342 121.224L146.437 122.635L145.302 123.105Z" fill="url(#paint17_linear_2_4180)"/>
<path d="M157.281 109.335C158.453 106.476 160.974 104.831 162.278 103.978C165.367 101.957 167.35 102.325 174.441 101.252C183.898 99.8191 185.033 98.4597 188.21 99.5619C192.383 101.009 194.564 104.786 195.567 106.521C200.609 115.25 194.712 119.688 196.23 137.074C196.85 144.172 198.434 150.345 194.623 153.997C193.82 154.768 192.928 155.165 191.137 155.974C184.031 159.163 177.655 158.611 173.785 158.229C169.524 157.811 167.372 157.568 166.237 156.069C164.431 153.674 166.288 150.624 166.613 145.348C166.849 141.564 165.979 138.566 164.254 132.562C160.244 118.608 155.032 114.809 157.281 109.335Z" fill="url(#paint18_linear_2_4180)"/>
<path d="M173.114 96.1009C172.687 94.5724 173.438 93.1543 173.601 92.853C174.293 91.5744 174.47 91.398 174.802 91.1776L175.266 90.891C175.266 90.891 175.296 90.8837 175.318 90.869C175.613 90.7661 176.623 90.7367 176.829 90.7735C177.478 90.9131 178.178 93.5584 177.979 97.306C178.009 97.4456 178.031 97.5925 178.06 97.7395C178.163 98.3273 178.244 98.9078 178.311 99.4737C178.37 100.017 179.144 100.003 179.689 99.966C181.908 99.8264 182.992 100.01 183.087 100.341C183.264 100.958 180.633 102.971 177.389 103.427C173.033 103.456 169.487 102.993 169.871 102.31C170.04 102.009 173.416 101.127 174.367 100.253C175.237 99.4516 175.163 98.6286 175.237 98.0408C174.957 97.9232 173.431 97.2251 173.114 96.1009Z" fill="url(#paint19_linear_2_4180)"/>
<path d="M173.91 89.8329C173.918 90.9939 174.463 92.2284 174.743 92.4342C174.78 92.4562 174.979 92.6179 175.163 92.8898C175.185 92.9265 175.208 92.9706 175.23 93.0294C175.488 93.7568 174.316 94.6239 174.544 94.9472C174.706 95.1824 175.502 94.8664 175.591 95.0722C175.679 95.2632 175.023 95.6674 175.119 95.8952C175.193 96.0715 175.598 95.9099 175.856 96.1744C175.982 96.3067 175.945 96.4095 176.085 96.821C176.158 97.0488 176.269 97.306 176.35 97.4456C176.755 98.129 177.891 98.3788 178.112 98.0996C178.171 98.0261 178.119 97.96 178.186 97.7028C178.186 97.7028 178.244 97.4677 178.407 97.1958C178.643 96.8063 179.21 96.5271 179.785 96.1156C180.847 95.3514 181.134 94.7048 181.222 94.4843C181.252 94.4035 181.274 94.3447 181.289 94.308C181.562 93.4556 181.569 92.199 181.178 91.4275C180.53 90.1342 179.077 90.7515 177.883 89.4655C176.505 87.9885 177.323 85.9678 176.579 85.74C175.76 85.4828 173.903 87.6873 173.91 89.8329Z" fill="#26264F"/>
<path d="M174.964 94.6679C175.252 94.2785 175.753 94.6459 175.753 95.1529C175.753 95.6599 175.267 96.1817 174.787 96.0861C174.308 95.9833 174.581 95.197 174.964 94.6679Z" fill="url(#paint20_linear_2_4180)"/>
<path d="M175.193 93.823L174.529 94.6827C174.529 94.6827 173.814 95.7335 173.401 95.1604C173.062 94.6901 172.974 94.6974 172.952 94.7195C172.944 94.7268 172.944 94.7268 172.944 94.7268C172.937 94.7268 172.996 94.4917 173.048 94.2859C172.871 94.5358 172.627 94.9473 172.48 95.4984C172.34 96.0348 172.185 96.6079 172.487 97.1517C172.502 97.1811 172.841 97.7689 173.46 97.9086C173.46 97.9086 173.704 97.9673 174.736 97.7836C174.736 97.7836 173.608 96.968 173.586 96.7696C173.541 96.2405 174.271 95.954 174.817 94.8738C175.038 94.4623 175.141 94.0875 175.193 93.823Z" fill="#26264F"/>
<path opacity="0.3" d="M177.463 153.233C176.21 150.742 179.284 147.435 177.271 143.643C175.569 140.425 172.473 141.145 171.05 138.191C169.333 134.627 173.07 131.96 172.937 126.537C172.775 120.048 167.18 113.56 163.885 114.126C161.755 114.493 161.482 117.668 159.979 121.136C161.305 124.038 162.853 127.668 164.261 132.555C165.986 138.558 166.849 141.556 166.62 145.341C166.296 150.617 164.438 153.659 166.244 156.062C167.372 157.561 169.524 157.803 173.792 158.222C177.662 158.604 184.038 159.155 191.144 155.966C192.044 155.562 192.714 155.261 193.267 154.959C182.151 156.62 178.458 155.209 177.463 153.233Z" fill="url(#paint21_linear_2_4180)"/>
<path d="M144.875 122.679C145.568 122.378 146.261 122.084 146.946 121.783C148.118 122.973 149.607 124.134 150.86 123.759C152.733 123.201 152.261 119.769 154.538 113.744C157.118 106.917 160.045 105.168 161.519 104.529C162.345 104.176 162.912 103.941 163.59 104.103C166.731 104.867 167.77 113.038 166.893 119.145C166.399 122.584 165.418 129.337 159.868 132.54C159.079 132.996 154.737 135.502 150.44 133.525C146.769 131.857 144.499 127.529 144.875 122.679Z" fill="url(#paint22_linear_2_4180)"/>
<path d="M104.023 98.7169L141.513 68.0531L141.712 68.1486L104.517 99.5546L104.023 98.7169Z" fill="url(#paint23_linear_2_4180)"/>
<path d="M101.731 100.752L103.198 99.1578L103.964 97.3942C104.097 97.093 104.303 96.8284 104.576 96.63L105.018 96.3067C105.269 96.123 105.571 96.0201 105.888 96.0201H107.326C107.326 96.0201 107.075 96.4904 106.669 96.5566C106.264 96.63 105.409 97.5926 105.409 97.5926L105.291 98.7169L106.927 97.5265L108.667 95.5352V96.6447C108.667 97.0268 108.527 97.3869 108.284 97.6735L106.869 99.3048C106.522 99.7089 106.043 99.9734 105.512 100.062L105.166 100.12C104.443 100.238 103.795 100.642 103.382 101.245L102.387 102.692L101.731 100.752Z" fill="url(#paint24_linear_2_4180)"/>
<path d="M22.4971 153.85C22.4971 153.85 22.0917 155.76 21.7379 157.362C21.384 158.972 19.9688 160.199 19.3496 161.485C18.7304 162.763 18.4503 161.264 18.2807 160.338C18.1112 159.412 18.2807 157.495 19.0473 156.841C19.814 156.187 20.3963 155.613 20.3594 155.481C20.3226 155.349 20.8533 153.145 20.8533 153.145L22.4971 153.85Z" fill="url(#paint25_linear_2_4180)"/>
<path d="M39.5099 211.195C39.4141 210.798 39.4804 210.269 39.8269 209.909C40.2987 209.431 41.08 209.468 41.5739 209.689C41.8614 209.821 42.0825 210.027 42.8712 211.665C43.7042 213.399 43.7042 213.679 43.5641 213.833C43.2914 214.156 42.5248 213.914 42.3626 213.87C41.8171 213.701 41.6844 213.443 40.5493 212.385C39.7827 211.672 39.5984 211.555 39.5099 211.195Z" fill="black"/>
<path d="M40.0406 208.483L40.2323 210.489C40.6893 210.725 40.9768 210.71 41.1242 210.489L41.5075 208.483H40.0406Z" fill="url(#paint26_linear_2_4180)"/>
<path d="M59.2945 210.945C59.0217 210.636 58.8375 210.137 58.9775 209.659C59.1692 209.02 59.8842 208.696 60.4223 208.667C60.7392 208.652 61.0341 208.733 62.4862 209.821C64.0268 210.974 64.1521 211.224 64.1079 211.423C64.0121 211.834 63.2234 211.974 63.0538 212.003C62.4862 212.106 62.2504 211.937 60.7614 211.518C59.7662 211.239 59.5377 211.224 59.2945 210.945Z" fill="black"/>
<path d="M59.4271 207.587L59.6188 209.593C60.0758 209.828 60.3633 209.814 60.5107 209.593L60.894 207.587H59.4271Z" fill="url(#paint27_linear_2_4180)"/>
<path d="M39.5247 208.88C40.2471 208.924 40.9768 208.968 41.6992 209.012C43.2324 201.554 44.9205 193.919 46.7706 186.123C48.7977 177.577 50.9133 169.296 53.1026 161.279C53.7955 164.328 54.481 167.9 55.0191 171.912C55.8225 177.864 55.9847 182.427 56.0216 183.691C56.2206 190.15 55.653 190.914 55.9184 194.948C56.1248 198.115 56.8177 202.774 59.1249 208.432C59.8178 208.388 60.5033 208.351 61.1962 208.307C62.7073 201.018 64.0046 192.156 64.3658 182.045C64.8155 169.634 63.7393 158.883 62.324 150.404C56.0511 150.595 49.7707 150.793 43.4978 150.984C41.5371 155.342 40.6451 159.074 40.1955 161.698C39.2888 166.966 39.8417 169.568 39.1561 178.547C38.8023 183.184 38.5443 183.919 38.2863 187.005C37.8588 192.097 37.7851 199.467 39.5247 208.88Z" fill="url(#paint28_linear_2_4180)"/>
<path opacity="0.3" d="M43.6968 191.068C44.2718 184.999 42.0752 185.131 43.0924 179.884C44.0359 175.064 46.0261 174.256 47.5004 168.105C48.6798 163.167 47.7805 162.08 48.7019 159.92C49.8445 157.245 53.1689 154.335 62.7441 153.093C62.6041 152.175 62.464 151.271 62.324 150.396C56.0511 150.587 49.7707 150.786 43.4978 150.977C41.5371 155.334 40.6451 159.067 40.1955 161.69C39.2888 166.959 39.8417 169.56 39.1561 178.54C38.8023 183.176 38.5443 183.911 38.2863 186.997C37.8588 192.097 37.7851 199.467 39.5247 208.88C40.2471 208.924 40.9768 208.968 41.6992 209.012C41.7435 208.792 41.795 208.572 41.8393 208.359C41.4707 207.771 41.139 207.102 40.8958 206.352C39.3036 201.481 42.9818 198.652 43.6968 191.068Z" fill="url(#paint29_linear_2_4180)"/>
<path d="M19.9613 154.232C20.8975 154.401 21.8336 154.563 22.7624 154.732C23.3374 152.99 24.1777 150.36 25.077 147.127C26.109 143.423 26.6397 141.035 26.8682 140.16C27.7675 136.67 30.3991 131.776 38.1536 125.817C38.0799 129.609 38.0136 132.731 37.9767 134.87C37.6524 152.064 37.6745 155.187 39.9669 156.9C41.9572 158.391 43.0629 156.863 52.1074 157.039C60.3632 157.193 62.0955 158.516 64.1963 157.002C67.5944 154.548 66.275 148.728 66.3266 141.461C66.3708 135.458 67.3586 126.971 71.7371 116.602C74.9583 116.911 80.3393 116.999 86.4575 114.905C95.959 111.65 101.355 105.154 103.382 102.428C102.711 101.531 102.048 100.627 101.377 99.731C97.964 101.215 92.6788 103.177 86.0152 104.265C74.4571 106.146 69.1424 103.699 58.4172 104.125C52.2401 104.368 39.6131 104.867 31.0772 111.312C15.3764 123.164 19.3938 150.69 19.9613 154.232Z" fill="url(#paint30_linear_2_4180)"/>
<path opacity="0.3" d="M49.9034 152.233C49.4242 149.581 50.8616 148.457 50.1024 145.444C49.0335 141.189 45.6059 141.16 44.7951 137.559C44.0211 134.128 46.8959 133.092 47.5962 127.676C48.1121 123.693 47.3824 117.932 44.6919 116.992C41.3453 115.823 36.4287 122.628 35.8759 123.385C33.9814 126.001 32.8831 128.697 32.2418 131.115C33.775 129.462 35.7063 127.691 38.1462 125.817C38.0725 129.609 38.0061 132.732 37.9693 134.87C37.645 152.064 37.6671 155.187 39.9595 156.9C41.9498 158.391 43.0555 156.863 52.1 157.039C52.358 157.046 52.5939 157.054 52.8371 157.061C50.8911 155.268 50.1466 153.6 49.9034 152.233Z" fill="url(#paint31_linear_2_4180)"/>
<path d="M54.9306 96.9313C54.9306 96.9313 54.562 99.8485 53.4785 101.965C52.4981 103.883 48.068 104.779 47.1539 105.147C46.2399 105.521 48.6577 107.013 51.1713 107.469C53.6849 107.924 60.9603 107.931 62.3461 107.079C63.7245 106.227 61.3731 106.109 59.6114 105.301C57.857 104.493 57.0978 100.885 57.54 99.3121C57.9897 97.7469 54.9306 96.9313 54.9306 96.9313Z" fill="url(#paint32_linear_2_4180)"/>
<path d="M59.604 95.851C60.2011 94.8444 59.8178 93.022 58.6531 92.2431C57.7833 91.6626 56.7955 91.861 56.0732 92.0006C55.7415 92.0668 53.3827 92.5591 52.8446 94.3006C52.675 94.8517 52.7414 95.5865 52.992 96.1523C53.1247 96.4462 53.3605 96.799 53.8913 97.4823C54.363 98.0849 54.3335 98.0628 54.4736 98.2392C54.82 98.658 55.4761 99.3635 56.6555 100.157C56.6997 99.8337 56.7808 99.4296 56.9282 98.9887C56.9872 98.8197 57.2083 98.1584 57.5916 97.5852C58.373 96.4315 59.1396 96.6373 59.604 95.851Z" fill="url(#paint33_linear_2_4180)"/>
<path d="M55.1665 99.3928C55.1665 99.3928 56.4344 101.083 58.6089 100.73C60.5549 100.414 60.4148 96.02 59.0806 95.2117C58.631 94.9398 57.7907 94.8958 57.1273 95.1456C56.7366 95.2926 56.6186 95.4763 55.9773 95.7114C55.3876 95.9245 55.2107 95.8731 55.0412 96.0494C54.8274 96.2625 54.7095 96.7548 55.2107 97.9893C54.7979 97.6513 54.3409 97.5484 54.0387 97.7248C53.9871 97.7542 53.8618 97.8571 53.8028 98.004C53.5669 98.5257 54.0829 99.1209 55.1665 99.3928Z" fill="url(#paint34_linear_2_4180)"/>
<path d="M54.7242 96.9092C54.7242 96.9092 55.5498 98.4376 56.0142 98.7976C56.4786 99.1577 57.5106 99.3781 58.5204 98.827C59.5303 98.2759 60.0905 97.7616 60.0905 97.7616C60.0905 97.7616 60.5033 99.8778 60.2527 100.142C60.002 100.407 58.1445 101.538 57.6064 101.458C57.0757 101.377 55.771 100.326 55.4687 99.6794C55.1665 99.0328 54.8053 97.3427 54.8053 97.3427L54.7242 96.9092Z" fill="url(#paint35_linear_2_4180)"/>
<defs>
<linearGradient id="paint0_linear_2_4180" x1="38.6129" y1="64.5397" x2="74.2693" y2="178.349" gradientUnits="userSpaceOnUse">
<stop offset="0.00359712" stop-color="#0EB863"/>
<stop offset="1" stop-color="#9571F6"/>
</linearGradient>
<linearGradient id="paint1_linear_2_4180" x1="105.998" y1="403.001" x2="70.1915" y2="260.453" gradientUnits="userSpaceOnUse">
<stop stop-color="#FDFEFE"/>
<stop offset="0.9964" stop-color="#F9BDEB" stop-opacity="0.8"/>
</linearGradient>
<linearGradient id="paint2_linear_2_4180" x1="180.566" y1="91.2874" x2="150.607" y2="180.956" gradientUnits="userSpaceOnUse">
<stop stop-color="#DBADE6"/>
<stop offset="0.9964" stop-color="#4700D8"/>
</linearGradient>
<linearGradient id="paint3_linear_2_4180" x1="162.01" y1="21.4542" x2="89.3601" y2="140.709" gradientUnits="userSpaceOnUse">
<stop stop-color="white"/>
<stop offset="0.9964" stop-color="#EBEFF2"/>
</linearGradient>
<linearGradient id="paint4_linear_2_4180" x1="96.4257" y1="51.7545" x2="102.914" y2="110.59" gradientUnits="userSpaceOnUse">
<stop stop-color="#FAA034"/>
<stop offset="0.9964" stop-color="#F36F56"/>
</linearGradient>
<linearGradient id="paint5_linear_2_4180" x1="81.1051" y1="77.4565" x2="115.969" y2="122.423" gradientUnits="userSpaceOnUse">
<stop stop-color="#FFD365"/>
<stop offset="0.9964" stop-color="#F5A41C"/>
</linearGradient>
<linearGradient id="paint6_linear_2_4180" x1="134.702" y1="42.6064" x2="134.702" y2="85.7107" gradientUnits="userSpaceOnUse">
<stop stop-color="#FF85B3"/>
<stop offset="1" stop-color="#4700D8"/>
</linearGradient>
<linearGradient id="paint7_linear_2_4180" x1="182.47" y1="205.588" x2="186.418" y2="208.22" gradientUnits="userSpaceOnUse">
<stop stop-color="#444B8C"/>
<stop offset="0.9964" stop-color="#26264F"/>
</linearGradient>
<linearGradient id="paint8_linear_2_4180" x1="186.202" y1="208.197" x2="186.508" y2="202.042" gradientUnits="userSpaceOnUse">
<stop stop-color="#FFC444"/>
<stop offset="0.9964" stop-color="#F36F56"/>
</linearGradient>
<linearGradient id="paint9_linear_2_4180" x1="182.767" y1="205.142" x2="186.715" y2="207.774" gradientUnits="userSpaceOnUse">
<stop stop-color="#444B8C"/>
<stop offset="0.9964" stop-color="#26264F"/>
</linearGradient>
<linearGradient id="paint10_linear_2_4180" x1="159.113" y1="209.487" x2="162.652" y2="212.645" gradientUnits="userSpaceOnUse">
<stop stop-color="#444B8C"/>
<stop offset="0.9964" stop-color="#26264F"/>
</linearGradient>
<linearGradient id="paint11_linear_2_4180" x1="162.678" y1="212.832" x2="163.862" y2="206.783" gradientUnits="userSpaceOnUse">
<stop stop-color="#FFC444"/>
<stop offset="0.9964" stop-color="#F36F56"/>
</linearGradient>
<linearGradient id="paint12_linear_2_4180" x1="159.469" y1="209.087" x2="163.008" y2="212.245" gradientUnits="userSpaceOnUse">
<stop stop-color="#444B8C"/>
<stop offset="0.9964" stop-color="#26264F"/>
</linearGradient>
<linearGradient id="paint13_linear_2_4180" x1="178.404" y1="175.435" x2="193.068" y2="175.435" gradientUnits="userSpaceOnUse">
<stop stop-color="#311944"/>
<stop offset="1" stop-color="#6B3976"/>
</linearGradient>
<linearGradient id="paint14_linear_2_4180" x1="178.404" y1="175.435" x2="191.874" y2="175.435" gradientUnits="userSpaceOnUse">
<stop stop-color="#311944"/>
<stop offset="1" stop-color="#6B3976"/>
</linearGradient>
<linearGradient id="paint15_linear_2_4180" x1="205.53" y1="185.439" x2="165.199" y2="178.139" gradientUnits="userSpaceOnUse">
<stop stop-color="#311944"/>
<stop offset="0.7407" stop-color="#5C3169"/>
<stop offset="1" stop-color="#6B3976"/>
</linearGradient>
<linearGradient id="paint16_linear_2_4180" x1="145.908" y1="105.839" x2="149.265" y2="128.572" gradientUnits="userSpaceOnUse">
<stop offset="0.00359712" stop-color="#0EB863"/>
<stop offset="1" stop-color="#9571F6"/>
</linearGradient>
<linearGradient id="paint17_linear_2_4180" x1="145.523" y1="116.499" x2="143.367" y2="126.373" gradientUnits="userSpaceOnUse">
<stop stop-color="#FFC444"/>
<stop offset="0.9964" stop-color="#F36F56"/>
</linearGradient>
<linearGradient id="paint18_linear_2_4180" x1="185.434" y1="92.5433" x2="145.613" y2="117.581" gradientUnits="userSpaceOnUse">
<stop stop-color="#FFC444"/>
<stop offset="0.9964" stop-color="#F36F56"/>
</linearGradient>
<linearGradient id="paint19_linear_2_4180" x1="173.065" y1="93.6668" x2="183.062" y2="116.673" gradientUnits="userSpaceOnUse">
<stop stop-color="#FFC444"/>
<stop offset="0.9964" stop-color="#F36F56"/>
</linearGradient>
<linearGradient id="paint20_linear_2_4180" x1="172.314" y1="88.9477" x2="183.476" y2="114.635" gradientUnits="userSpaceOnUse">
<stop stop-color="#FFC444"/>
<stop offset="0.9964" stop-color="#F36F56"/>
</linearGradient>
<linearGradient id="paint21_linear_2_4180" x1="155.862" y1="125.318" x2="180.873" y2="149.275" gradientUnits="userSpaceOnUse">
<stop stop-color="#FF9085"/>
<stop offset="1" stop-color="#FB6FBB"/>
</linearGradient>
<linearGradient id="paint22_linear_2_4180" x1="160.516" y1="100.683" x2="139.655" y2="114.763" gradientUnits="userSpaceOnUse">
<stop stop-color="#FFC444"/>
<stop offset="0.9964" stop-color="#F36F56"/>
</linearGradient>
<linearGradient id="paint23_linear_2_4180" x1="140.106" y1="62.8097" x2="103.188" y2="107.25" gradientUnits="userSpaceOnUse">
<stop stop-color="#311944"/>
<stop offset="1" stop-color="#A03976"/>
</linearGradient>
<linearGradient id="paint24_linear_2_4180" x1="109.324" y1="94.6826" x2="90.7502" y2="111.713" gradientUnits="userSpaceOnUse">
<stop stop-color="#FFC444"/>
<stop offset="0.9964" stop-color="#F36F56"/>
</linearGradient>
<linearGradient id="paint25_linear_2_4180" x1="18.6788" y1="167.666" x2="23.0583" y2="138.31" gradientUnits="userSpaceOnUse">
<stop stop-color="#FFC444"/>
<stop offset="0.9964" stop-color="#F36F56"/>
</linearGradient>
<linearGradient id="paint26_linear_2_4180" x1="40.5566" y1="210.751" x2="41.7509" y2="198.238" gradientUnits="userSpaceOnUse">
<stop stop-color="#FFC444"/>
<stop offset="0.9964" stop-color="#F36F56"/>
</linearGradient>
<linearGradient id="paint27_linear_2_4180" x1="59.6842" y1="212.577" x2="60.8786" y2="200.063" gradientUnits="userSpaceOnUse">
<stop stop-color="#FFC444"/>
<stop offset="0.9964" stop-color="#F36F56"/>
</linearGradient>
<linearGradient id="paint28_linear_2_4180" x1="44.1598" y1="209.118" x2="62.7446" y2="139.072" gradientUnits="userSpaceOnUse">
<stop stop-color="#444B8C"/>
<stop offset="0.9964" stop-color="#26264F"/>
</linearGradient>
<linearGradient id="paint29_linear_2_4180" x1="38.0044" y1="207.485" x2="56.5893" y2="137.439" gradientUnits="userSpaceOnUse">
<stop stop-color="#444B8C"/>
<stop offset="0.9964" stop-color="#26264F"/>
</linearGradient>
<linearGradient id="paint30_linear_2_4180" x1="78.2132" y1="93.2682" x2="36.7182" y2="148.302" gradientUnits="userSpaceOnUse">
<stop stop-color="#FFC444"/>
<stop offset="0.9964" stop-color="#F36F56"/>
</linearGradient>
<linearGradient id="paint31_linear_2_4180" x1="79.3393" y1="94.1174" x2="37.8444" y2="149.151" gradientUnits="userSpaceOnUse">
<stop stop-color="#FFC444"/>
<stop offset="0.9964" stop-color="#F36F56"/>
</linearGradient>
<linearGradient id="paint32_linear_2_4180" x1="55.4041" y1="106.67" x2="46.8837" y2="94.0968" gradientUnits="userSpaceOnUse">
<stop stop-color="#FFC444"/>
<stop offset="0.9964" stop-color="#F36F56"/>
</linearGradient>
<linearGradient id="paint33_linear_2_4180" x1="53.2401" y1="105.718" x2="56.9498" y2="92.5445" gradientUnits="userSpaceOnUse">
<stop stop-color="#444B8C"/>
<stop offset="0.9964" stop-color="#3E4177"/>
</linearGradient>
<linearGradient id="paint34_linear_2_4180" x1="65.0827" y1="101.785" x2="51.4379" y2="94.3297" gradientUnits="userSpaceOnUse">
<stop stop-color="#FFC444"/>
<stop offset="0.9964" stop-color="#F36F56"/>
</linearGradient>
<linearGradient id="paint35_linear_2_4180" x1="64.0351" y1="103.215" x2="55.3044" y2="97.2407" gradientUnits="userSpaceOnUse">
<stop stop-color="#444B8C"/>
<stop offset="0.9964" stop-color="#3E4177"/>
</linearGradient>
</defs>
</svg>
