<svg width="211" height="199" viewBox="0 0 211 199" fill="none" xmlns="http://www.w3.org/2000/svg">
<path opacity="0.5" d="M96.403 1.33876C96.403 1.33876 27.9311 5.49018 29.6205 44.1287C30.1043 55.2064 27.3391 66.2985 19.2025 74.5653C14.0909 79.7546 7.2683 83.5384 3.6801 89.989C-3.41689 102.739 1.25427 118.328 5.16736 131.107C9.05879 143.813 11.6001 157.169 19.1881 168.477C23.3394 174.661 28.9347 180.701 35.0787 185.162C43.5979 191.353 54.5358 193.991 65.1488 194.149C126.112 195.079 193.45 190.784 200.273 114.285C207.088 37.7863 161.734 -8.62179 96.403 1.33876Z" fill="#6418C3"/>
<path d="M44.6086 65.1742C46.1825 65.9742 48.1679 65.2391 49.0343 63.5382C49.9007 61.8372 49.3231 59.8048 47.7492 59.0048C47.6698 58.9615 47.5832 58.9255 47.5037 58.8966C47.7997 57.9525 48.0163 57.0011 48.1679 56.0497C48.2618 56.0497 48.3484 56.0497 48.4423 56.0425C50.24 55.884 51.6695 54.2335 51.6334 52.3596C51.5973 50.4857 50.1101 49.0947 48.3051 49.2532C48.2113 49.2604 48.1174 49.2748 48.0236 49.2893C47.8358 48.3595 47.5759 47.4514 47.251 46.5721C47.3305 46.5216 47.4171 46.4712 47.4965 46.4207C49.0343 45.3468 49.5253 43.2207 48.5939 41.6783C47.6626 40.1359 45.6555 39.7539 44.1177 40.8278C44.0383 40.8855 43.9661 40.9432 43.8939 41.0008C43.2874 40.3305 42.616 39.7107 41.9012 39.1413C41.9518 39.0548 42.0023 38.9756 42.0456 38.8891C42.912 37.1881 44.0455 35.3214 42.4571 34.5502C38.7823 32.7556 37.2012 34.2908 36.3348 35.9989C36.2915 36.0854 36.2482 36.1791 36.2121 36.2656C35.3313 36.0205 34.4288 35.8476 33.5336 35.7539C33.5408 35.6602 33.5408 35.5665 33.5408 35.4656C33.5047 33.5917 34.0606 32.5754 32.2557 32.5394C28.3209 32.4601 26.9925 34.1683 27.0286 36.0422C27.0286 36.1431 27.0358 36.2368 27.0503 36.3305C26.1478 36.5899 25.2598 36.9143 24.4006 37.3107C24.3573 37.2242 24.314 37.1449 24.2707 37.0656C23.3393 35.5232 21.3323 35.1412 19.7945 36.2151C18.2567 37.289 17.7657 39.4152 18.6971 40.9576C18.7476 41.0369 18.7981 41.1089 18.8487 41.181C18.17 41.8585 17.5275 42.6008 16.9427 43.3937C16.8632 43.3432 16.791 43.3 16.7044 43.2567C15.1305 42.4567 13.1451 43.1918 12.2787 44.8928C11.4124 46.5937 11.9899 48.6262 13.5638 49.4262C13.6432 49.4694 13.7299 49.5055 13.8093 49.5343C13.5133 50.4785 13.2967 51.4298 13.1451 52.3812C13.0512 52.3812 12.9646 52.3812 12.8707 52.3884C11.073 52.547 9.64353 54.1975 9.67962 56.0714C9.71572 57.9453 11.203 59.3363 13.0079 59.1777C13.1018 59.1705 13.1956 59.1561 13.2895 59.1417C13.4772 60.0714 13.7371 60.9796 14.062 61.8589C13.9826 61.9093 13.8959 61.9598 13.8165 62.0102C12.2787 63.0841 11.7878 65.2103 12.7191 66.7526C13.6505 68.295 16.7333 69.0157 18.2783 67.9346C18.3577 67.877 17.347 67.4806 17.4192 67.4229C18.0256 68.0932 18.6971 68.713 19.4118 69.2824C19.3613 69.3689 19.3107 69.4482 19.2674 69.5347C18.401 71.2356 18.9786 73.2681 20.5525 74.0681C22.1264 74.8681 24.1118 74.133 24.9782 72.432C25.0215 72.3455 25.0648 72.2518 25.1009 72.1654C25.9818 72.4104 26.8842 72.5834 27.7795 72.6771C27.7722 72.7708 27.7722 72.8645 27.7722 72.9654C27.8083 74.8393 29.2956 76.2303 31.1005 76.0717C32.8982 75.9132 34.3277 74.2627 34.2916 72.3888C34.2916 72.2879 34.2844 72.1942 34.27 72.1005C35.1725 71.841 36.0605 71.5167 36.9196 71.1203C36.9629 71.2068 37.0063 71.2861 37.0496 71.3653C37.9809 72.9077 39.988 73.2897 41.5258 72.2158C43.0636 71.1419 43.5546 69.0157 42.6232 67.4734C42.5727 67.3941 42.5221 67.322 42.4716 67.2499C43.1502 66.5725 43.7928 65.8301 44.3776 65.0373C44.4498 65.0877 44.522 65.131 44.6086 65.1742ZM24.9566 65.4265C19.2313 62.5219 17.1448 55.156 20.2926 48.9721C23.4404 42.781 30.6313 40.1215 36.3565 43.0189C42.0817 45.9234 44.1682 53.2893 41.0204 59.4732C37.8654 65.6643 30.6746 68.3238 24.9566 65.4265Z" fill="url(#paint0_linear_2_3792)"/>
<path d="M48.4279 56.0425C50.2256 55.8839 51.6551 54.2334 51.619 52.3595C51.5829 50.4856 50.0956 49.0946 48.2907 49.2531C48.1968 49.2604 48.103 49.2748 48.0091 49.2892C47.8214 48.3594 47.5615 47.4513 47.2366 46.572C47.316 46.5216 47.4027 46.4711 47.4821 46.4207C49.0199 45.3468 50.9259 42.7449 49.8357 41.3034C47.7781 38.5719 45.6411 39.7539 44.1033 40.8278C44.0238 40.8854 43.9516 40.9431 43.8794 41.0007C43.273 40.3305 42.6015 39.7106 41.8868 39.1412C41.9373 39.0548 41.9879 38.9755 42.0312 38.889C42.5005 37.9592 42.5438 36.9358 42.2333 36.0709C40.7461 38.68 39.2805 41.3035 37.8438 43.9413C42.4138 47.2783 43.865 53.8658 41.0132 59.4804C38.5946 64.2372 33.7863 66.9039 29.0935 66.5724C28.8841 67.1129 28.6819 67.6607 28.4509 68.194C27.8444 69.6499 27.1513 71.077 26.4583 72.504C26.8914 72.5833 27.3318 72.6482 27.7722 72.6986C27.765 72.7923 27.765 72.886 27.765 72.9869C27.8011 74.8608 28.9418 76.4536 32.2052 76.2807C34.0101 76.187 34.3205 74.277 34.2772 72.4031C34.2772 72.3022 34.27 72.2085 34.2556 72.1148C35.158 71.8554 36.046 71.531 36.9052 71.1346C36.9485 71.2211 36.9918 71.3004 37.0351 71.3797C37.9665 72.922 41.2009 73.5779 42.7387 72.504C44.2765 71.4301 43.5401 69.0301 42.6088 67.4805C42.5582 67.4012 42.5077 67.3292 42.4572 67.2571C43.1358 66.5796 43.7784 65.8372 44.3632 65.0444C44.4426 65.0949 44.5148 65.1381 44.6014 65.1814C46.1753 65.9814 48.1607 65.2462 49.0271 63.5453C49.8935 61.8444 49.3159 59.8119 47.742 59.0119C47.6626 58.9686 47.5759 58.9326 47.4965 58.9038C47.7925 57.9596 48.0091 57.0082 48.1607 56.0569C48.2474 56.0497 48.3412 56.0497 48.4279 56.0425Z" fill="url(#paint1_linear_2_3792)"/>
<path d="M46.3053 65.3687C47.8792 66.1687 49.8646 65.4336 50.731 63.7327C51.5974 62.0317 51.0198 59.9993 49.4459 59.1992C49.3665 59.156 49.2798 59.12 49.2004 59.0911C49.4964 58.147 49.713 57.1956 49.8646 56.2442C49.9585 56.2442 50.0451 56.2442 50.139 56.237C51.9367 56.0785 53.3662 54.428 53.3301 52.5541C53.294 50.6802 51.8067 49.2891 50.0018 49.4477C49.9079 49.4549 49.8141 49.4693 49.7202 49.4837C49.5325 48.554 49.2726 47.6459 48.9477 46.7666C49.0271 46.7161 49.1138 46.6657 49.1932 46.6152C50.731 45.5413 51.2219 43.4152 50.2906 41.8728C49.3592 40.3304 47.3522 39.9484 45.8144 41.0223C45.7349 41.08 45.6627 41.1376 45.5905 41.1953C44.9841 40.525 44.3127 39.9052 43.5979 39.3358C43.6484 39.2493 43.699 39.17 43.7423 39.0836C44.6087 37.3826 44.0311 35.3501 42.4572 34.5501C40.8833 33.7501 38.8979 34.4853 38.0315 36.1862C37.9882 36.2727 37.9449 36.3664 37.9088 36.4529C37.028 36.2078 36.1255 36.0348 35.2302 35.9412C35.2375 35.8475 35.2375 35.7538 35.2375 35.6529C35.2014 33.779 33.7141 32.3879 31.9092 32.5465C30.1115 32.7051 28.682 34.3555 28.7181 36.2294C28.7181 36.3303 28.7253 36.424 28.7397 36.5177C27.8373 36.7772 26.9492 37.1015 26.0901 37.4979C26.0468 37.4114 26.0034 37.3322 25.9601 37.2529C25.0288 35.7105 23.0217 35.3285 21.4839 36.4024C19.9461 37.4763 19.4552 39.6025 20.3865 41.1449C20.437 41.2241 20.4876 41.2962 20.5381 41.3683C19.8595 42.0458 19.2169 42.7881 18.6321 43.5809C18.5527 43.5305 18.4805 43.4872 18.3939 43.444C16.82 42.644 14.8345 43.3791 13.9682 45.0801C13.1018 46.781 13.6794 48.8135 15.2533 49.6135C15.3327 49.6567 15.4193 49.6928 15.4988 49.7216C15.2027 50.6657 14.9862 51.6171 14.8345 52.5685C14.7407 52.5685 14.654 52.5685 14.5602 52.5757C12.7625 52.7343 11.333 54.3847 11.3691 56.2586C11.4052 58.1325 12.8924 59.5236 14.6974 59.365C14.7912 59.3578 14.8851 59.3434 14.9789 59.329C15.1666 60.2587 15.4266 61.1668 15.7514 62.0461C15.672 62.0966 15.5854 62.147 15.506 62.1975C13.9682 63.2714 13.4772 65.3975 14.4086 66.9399C15.3399 68.4823 17.347 68.8643 18.8848 67.7904C18.9642 67.7327 19.0364 67.6751 19.1086 67.6174C19.7151 68.2877 20.3865 68.9075 21.1013 69.4769C21.0507 69.5634 21.0002 69.6427 20.9569 69.7292C20.0905 71.4301 20.6681 73.4626 22.242 74.2626C23.8159 75.0626 25.8013 74.3274 26.6677 72.6265C26.711 72.54 26.7543 72.4463 26.7904 72.3598C27.6784 72.6049 28.5737 72.7779 29.4689 72.8716C29.4617 72.9653 29.4617 73.0589 29.4617 73.1599C29.4978 75.0338 30.9851 76.4248 32.79 76.2662C34.5877 76.1077 36.0172 74.4572 35.9811 72.5833C35.9811 72.4824 35.9739 72.3887 35.9594 72.295C36.8619 72.0355 37.7499 71.7112 38.6091 71.3148C38.6524 71.4013 38.6957 71.4805 38.739 71.5598C39.6704 73.1022 41.6775 73.4842 43.2153 72.4103C44.7531 71.3364 45.244 69.2102 44.3127 67.6679C44.2621 67.5886 44.2116 67.5165 44.161 67.4444C44.8397 66.7669 45.4823 66.0246 46.067 65.2318C46.1465 65.2822 46.2187 65.3255 46.3053 65.3687ZM26.646 65.6138C20.9208 62.7092 18.8343 55.3433 21.9821 49.1594C25.1299 42.9755 32.3207 40.3088 38.0459 43.2061C43.7712 46.1107 45.8577 53.4766 42.7099 59.6605C39.5621 65.8516 32.3712 68.5183 26.646 65.6138Z" fill="url(#paint2_linear_2_3792)"/>
<path d="M73.5165 32.042C74.7727 32.6763 76.3538 32.0925 77.0469 30.7375C77.74 29.3753 77.2779 27.7609 76.0217 27.1194C75.9567 27.0834 75.8917 27.0617 75.8268 27.0329C76.0578 26.2834 76.2383 25.5266 76.3538 24.7626C76.426 24.7626 76.4982 24.7626 76.5704 24.7554C78.0071 24.6257 79.1406 23.3139 79.1117 21.8148C79.0829 20.3157 77.8916 19.213 76.4621 19.3355C76.3899 19.3427 76.3105 19.3571 76.2383 19.3643C76.0867 18.622 75.8845 17.9012 75.6246 17.1949C75.6896 17.1589 75.7546 17.1156 75.8195 17.0724C77.0469 16.2147 77.4368 14.521 76.6931 13.2885C75.9495 12.0561 74.3539 11.7534 73.1266 12.611C73.0616 12.6543 73.0039 12.7047 72.9461 12.748C72.4624 12.2146 71.9281 11.7173 71.3578 11.2633C71.4011 11.1984 71.4372 11.1335 71.4733 11.0615C72.1664 9.69927 73.0688 8.21456 71.7982 7.60193C68.8669 6.17488 67.6107 7.39292 66.9176 8.75511C66.8815 8.82718 66.8526 8.89925 66.8238 8.97133C66.1162 8.77673 65.4015 8.63979 64.6867 8.56051C64.6939 8.48844 64.6939 8.40915 64.6939 8.32987C64.6651 6.83075 65.1055 6.02353 63.6687 5.9947C60.5282 5.93704 59.4669 7.29202 59.503 8.79114C59.503 8.87042 59.5102 8.9425 59.5174 9.02178C58.7954 9.22358 58.0879 9.49026 57.402 9.80738C57.3659 9.74251 57.337 9.67765 57.2937 9.61278C56.5501 8.38032 54.9545 8.07762 53.7272 8.93529C52.4998 9.79296 52.11 11.4867 52.8536 12.7191C52.8897 12.784 52.933 12.8417 52.9763 12.8993C52.4349 13.4399 51.9223 14.0309 51.453 14.6651C51.3952 14.6291 51.3302 14.5931 51.2653 14.557C50.009 13.9228 48.4279 14.5066 47.7348 15.8615C47.0417 17.2237 47.5038 18.8382 48.76 19.4796C48.825 19.5157 48.89 19.5373 48.9549 19.5661C48.7239 20.3157 48.5434 21.0724 48.4279 21.8364C48.3557 21.8364 48.2835 21.8364 48.2113 21.8436C46.7746 21.9734 45.6411 23.2851 45.67 24.7842C45.6989 26.2834 46.8901 27.3861 48.3196 27.2635C48.3918 27.2563 48.4712 27.2419 48.5434 27.2347C48.695 27.9771 48.8972 28.6978 49.1571 29.4041C49.0921 29.4402 49.0271 29.4834 48.9622 29.5267C47.7348 30.3843 47.3449 32.0781 48.0886 33.3105C48.8322 34.543 51.2941 35.1123 52.5215 34.2547C52.5865 34.2114 51.7779 33.8943 51.8356 33.8438C52.3193 34.3772 52.8536 34.8745 53.424 35.3286C53.3806 35.3934 53.3445 35.4583 53.3084 35.5304C52.6154 36.8926 53.0774 38.507 54.3336 39.1484C55.5899 39.7827 57.171 39.1989 57.8641 37.8439C57.9002 37.7718 57.9291 37.6998 57.9579 37.6277C58.6655 37.8223 59.3802 37.9592 60.095 38.0385C60.0878 38.1106 60.0878 38.1899 60.0878 38.2692C60.1166 39.7683 61.3079 40.871 62.7374 40.7485C64.1741 40.6187 65.3076 39.307 65.2787 37.8079C65.2787 37.7286 65.2715 37.6565 65.2643 37.5773C65.9863 37.3754 66.6938 37.1088 67.3797 36.7917C67.4158 36.8565 67.4447 36.9214 67.488 36.9862C68.2316 38.2187 69.8272 38.5214 71.0545 37.6637C72.2819 36.8061 72.6717 35.1123 71.9281 33.8799C71.892 33.815 71.8487 33.7574 71.8054 33.6997C72.3469 33.1592 72.8595 32.5682 73.3287 31.9339C73.3937 31.9699 73.4515 32.006 73.5165 32.042ZM57.8424 32.2366C53.2796 29.9231 51.6118 24.0491 54.1243 19.1121C56.6367 14.175 62.3692 12.0561 66.9321 14.3696C71.4949 16.6832 73.1627 22.5572 70.6502 27.4942C68.145 32.4312 62.4053 34.5502 57.8424 32.2366Z" fill="url(#paint3_linear_2_3792)"/>
<path d="M76.5704 24.7554C78.0071 24.6256 79.1406 23.3139 79.1117 21.8148C79.0828 20.3157 77.8916 19.2129 76.4621 19.3355C76.3899 19.3427 76.3105 19.3571 76.2383 19.3643C76.0866 18.6219 75.8845 17.9012 75.6246 17.1949C75.6896 17.1588 75.7545 17.1156 75.8195 17.0724C77.0469 16.2147 78.563 14.139 77.6966 12.993C76.0505 10.8092 74.3539 11.7533 73.1266 12.6182C73.0616 12.6615 73.0038 12.7119 72.9461 12.7552C72.4623 12.2218 71.9281 11.7245 71.3577 11.2704C71.401 11.2056 71.4371 11.1407 71.4732 11.0686C71.8487 10.3263 71.8848 9.51185 71.6321 8.81995C70.448 10.9029 69.2784 12.993 68.1305 15.0975C71.7692 17.7643 72.9316 23.0112 70.6574 27.487C68.7297 31.278 64.8961 33.4114 61.149 33.1447C60.983 33.5772 60.8169 34.0096 60.6364 34.4421C60.1527 35.6024 59.5968 36.7412 59.0481 37.88C59.3946 37.9448 59.7412 37.9953 60.095 38.0313C60.0877 38.1034 60.0877 38.1827 60.0877 38.2619C60.1166 39.7611 61.0263 41.0296 63.6254 40.8926C65.0621 40.8133 65.3076 39.2998 65.2787 37.8007C65.2787 37.7214 65.2715 37.6493 65.2643 37.57C65.9862 37.3682 66.6938 37.1016 67.3797 36.7844C67.4158 36.8493 67.4446 36.9142 67.488 36.979C68.2316 38.2115 70.809 38.7304 72.0364 37.8727C73.2637 37.0151 72.6717 35.0979 71.9353 33.8655C71.8992 33.8006 71.8559 33.7429 71.8126 33.6853C72.354 33.1447 72.8666 32.5537 73.3359 31.9195C73.3937 31.9555 73.4587 31.9916 73.5236 32.0276C74.7799 32.6618 76.361 32.078 77.0541 30.7231C77.7472 29.3609 77.2851 27.7464 76.0289 27.105C75.9639 27.0689 75.8989 27.0473 75.834 27.0185C76.065 26.2689 76.2455 25.5049 76.361 24.7482C76.4187 24.7626 76.4909 24.7626 76.5704 24.7554Z" fill="url(#paint4_linear_2_3792)"/>
<path d="M74.8665 32.1933C76.1228 32.8276 77.7039 32.2438 78.397 30.8888C79.0901 29.5266 78.628 27.9122 77.3718 27.2707C77.3068 27.2347 77.2418 27.213 77.1768 27.1842C77.4079 26.4347 77.5884 25.6779 77.7039 24.9139C77.7761 24.9139 77.8483 24.9139 77.9205 24.9067C79.3572 24.777 80.4907 23.4652 80.4618 21.9661C80.4329 20.467 79.2417 19.3643 77.8122 19.4868C77.74 19.494 77.6605 19.5084 77.5884 19.5156C77.4367 18.7733 77.2346 18.0525 76.9747 17.3462C77.0397 17.3102 77.1046 17.2669 77.1696 17.2237C78.397 16.366 78.7868 14.6723 78.0432 13.4398C77.2996 12.2074 75.704 11.9047 74.4767 12.7623C74.4117 12.8056 74.3539 12.856 74.2962 12.8993C73.8124 12.3659 73.2782 11.8686 72.7078 11.4146C72.7511 11.3497 72.7872 11.2848 72.8233 11.2128C73.5164 9.85057 73.0544 8.23613 71.7981 7.59468C70.5419 6.96043 68.9608 7.54422 68.2677 8.8992C68.2316 8.97128 68.2027 9.04335 68.1738 9.11542C67.4663 8.92083 66.7516 8.78389 66.0368 8.70461C66.044 8.63253 66.044 8.55325 66.044 8.47397C66.0151 6.97485 64.8239 5.87212 63.3944 5.99465C61.9577 6.12438 60.8242 7.43611 60.8531 8.93524C60.8531 9.01452 60.8603 9.08659 60.8675 9.16588C60.1455 9.36768 59.438 9.63435 58.7521 9.95148C58.716 9.88661 58.6871 9.82174 58.6438 9.75688C57.9002 8.52442 56.3046 8.22171 55.0773 9.07939C53.8499 9.93706 53.4601 11.6308 54.2037 12.8632C54.2398 12.9281 54.2831 12.9858 54.3264 13.0434C53.7849 13.584 53.2723 14.175 52.8031 14.8092C52.7453 14.7732 52.6803 14.7371 52.6154 14.7011C51.3591 14.0669 49.778 14.6507 49.0849 16.0056C48.3918 17.3678 48.8539 18.9823 50.1101 19.6237C50.1751 19.6598 50.2401 19.6814 50.305 19.7102C50.074 20.4598 49.8935 21.2165 49.778 21.9805C49.7058 21.9805 49.6336 21.9805 49.5614 21.9877C48.1247 22.1175 46.9912 23.4292 47.0201 24.9283C47.0489 26.4274 48.2402 27.5302 49.6697 27.4076C49.7419 27.4004 49.8213 27.386 49.8935 27.3788C50.0451 28.1212 50.2473 28.8419 50.5072 29.5482C50.4422 29.5843 50.3772 29.6275 50.3123 29.6708C49.0849 30.5284 48.695 32.2221 49.4387 33.4546C50.1823 34.6871 51.7779 34.9898 53.0052 34.1321C53.0702 34.0888 53.128 34.0384 53.1857 33.9952C53.6694 34.5285 54.2037 35.0258 54.774 35.4799C54.7307 35.5447 54.6946 35.6096 54.6585 35.6817C53.9654 37.0439 54.4275 38.6583 55.6837 39.2998C56.94 39.934 58.5211 39.3502 59.2142 37.9952C59.2503 37.9232 59.2792 37.8511 59.308 37.779C60.0156 37.9736 60.7303 38.1105 61.4451 38.1898C61.4378 38.2619 61.4378 38.3412 61.4378 38.4205C61.4667 39.9196 62.658 41.0223 64.0875 40.8998C65.5242 40.7701 66.6577 39.4583 66.6288 37.9592C66.6288 37.8799 66.6216 37.8078 66.6144 37.7286C67.3364 37.5267 68.0439 37.2601 68.7298 36.943C68.7659 37.0078 68.7947 37.0727 68.8381 37.1376C69.5817 38.37 71.1772 38.6727 72.4046 37.815C73.632 36.9574 74.0218 35.2636 73.2782 34.0312C73.2421 33.9663 73.1988 33.9087 73.1554 33.851C73.6969 33.3105 74.2095 32.7195 74.6788 32.0852C74.7438 32.1212 74.8015 32.1645 74.8665 32.1933ZM59.1997 32.3951C54.6369 30.0816 52.9691 24.2076 55.4816 19.2706C57.994 14.3335 63.7265 12.2146 68.2894 14.5281C72.8522 16.8417 74.52 22.7157 72.0075 27.6527C69.4951 32.5825 63.7626 34.7087 59.1997 32.3951Z" fill="url(#paint5_linear_2_3792)"/>
<path d="M127.83 172.491C130.754 164.693 133.852 152.851 131.303 139.51C127.96 122.018 117.86 117.326 105.68 90.9258C97.984 74.2336 92.7714 62.5073 98.0562 52.2584C102.193 44.2295 112.272 38.0672 120.885 39.3789C128.047 40.4672 135.036 46.8457 138.761 52.0134C141.8 56.2297 142.833 59.8694 146.681 60.9793C150.616 62.1181 152.847 59.2712 156.29 59.855C163.265 61.037 166.376 74.803 166.882 77.0301C172.47 101.787 159.431 126.768 153.612 137.593C148.796 146.552 140.797 159.266 127.83 172.491Z" fill="url(#paint6_linear_2_3792)"/>
<g opacity="0.5">
<path opacity="0.5" d="M123.628 179.655L123.246 179.302C130.942 171.043 136.97 162.74 141.165 154.632C147.352 142.675 149.352 131.474 147.1 121.348C145.338 113.413 141.093 106.386 135.216 96.6557C130.53 88.8862 126.502 83.805 122.95 79.322C118.307 73.4625 114.647 68.8281 111.701 60.9433C108.712 52.936 107.485 44.1214 108.048 34.7446L108.568 34.7735C108.012 44.0781 109.232 52.8278 112.192 60.7631C115.109 68.5759 118.748 73.1742 123.361 79.0049C126.921 83.5023 130.956 88.5979 135.664 96.3962C141.338 105.802 145.822 113.233 147.605 121.247C149.887 131.496 147.872 142.811 141.627 154.884C137.411 163.021 131.354 171.36 123.628 179.655Z" fill="white"/>
<path opacity="0.5" d="M131.303 91.0988C129.577 91.0988 123.852 90.897 117.037 88.4825C109.521 85.8158 99.0958 79.8409 92.0999 66.5001L92.5619 66.2623C99.4784 79.4445 109.774 85.3545 117.196 87.9852C124.278 90.5006 130.169 90.5871 131.52 90.5798C128.704 73.7291 132.039 60.6478 135.346 52.626C138.956 43.8763 143.317 39.0762 143.36 39.0258L143.743 39.3717C143.699 39.4222 139.389 44.1646 135.815 52.8422C132.516 60.8424 129.195 73.9237 132.075 90.7816L132.126 91.0699L131.837 91.0844C131.823 91.0916 131.642 91.0988 131.303 91.0988Z" fill="white"/>
<path opacity="0.5" d="M144.197 112.418L144.031 112.324C143.937 112.274 134.761 107.142 124.545 103.791C114.387 100.461 97.2042 106.032 97.0309 106.09L96.8721 105.6C97.0453 105.542 114.387 99.9206 124.704 103.301C134.212 106.414 142.826 111.07 144.118 111.784C149.995 106.249 154.067 93.8231 155.9 75.8264C157.294 62.0964 156.897 49.8512 156.897 49.7286L157.417 49.7142C157.424 49.8368 157.821 62.1181 156.42 75.8841C154.536 94.4069 150.471 106.659 144.342 112.296L144.197 112.418Z" fill="white"/>
<path opacity="0.5" d="M143.259 151.59L143.295 151.078C143.634 145.817 142.378 141.103 139.577 137.074C137.331 133.846 134.082 131.035 129.931 128.736C122.834 124.8 115.455 123.683 115.383 123.676L115.455 123.164C115.528 123.179 122.993 124.303 130.169 128.274C136.725 131.907 144.363 138.718 143.836 150.588C145.555 149.413 152.197 144.693 159.698 137.074C167.705 128.945 178.339 115.748 183.581 99.0846L193.761 66.7164L194.252 66.875L184.072 99.2431C178.801 116.015 168.102 129.276 160.052 137.449C151.338 146.307 143.764 151.266 143.685 151.309L143.259 151.59Z" fill="white"/>
</g>
<path d="M129.072 170.307C142.241 170.264 159.012 168.34 175.026 160.916C179.112 159.021 204.345 147.323 201.241 135.827C200.143 131.777 196.461 131.172 194.902 125.788C193.053 119.402 197.046 116.166 199.761 108.159C201.378 103.38 206.114 89.3978 197.674 81.7652C192.627 77.203 183.112 75.1201 175.899 76.8715C165.322 79.4445 161.778 89.787 156.081 107.387C151.035 122.991 152.406 126.789 148.58 137.961C145.735 146.249 140.342 157.68 129.072 170.307Z" fill="url(#paint7_linear_2_3792)"/>
<g opacity="0.5">
<path opacity="0.5" d="M95.2405 177.76C87.8764 177.76 80.3463 176.78 72.6934 174.826L72.8233 174.329C87.2844 178.019 101.32 178.207 114.539 174.884C132.155 170.459 147.36 159.749 159.749 143.049C172.643 125.665 179.249 106.14 182.513 92.8213C184.772 83.6031 184.216 73.4264 180.859 62.5721L181.35 62.4208C184.736 73.3615 185.292 83.632 183.011 92.9439C179.733 106.306 173.105 125.896 160.16 143.352C147.706 160.145 132.393 170.92 114.662 175.381C108.359 176.967 101.868 177.76 95.2405 177.76Z" fill="white"/>
<path opacity="0.5" d="M173.827 119.359L173.676 119.179C173.639 119.135 169.9 114.573 166.846 107.589C164.023 101.131 161.222 91.2213 163.9 80.6553L164.405 80.7851C161.763 91.1997 164.528 100.994 167.315 107.373C170.001 113.521 173.221 117.766 173.935 118.674C201.695 100.259 201.212 79.5166 200.403 73.5849C200.381 73.4047 200.367 73.3399 200.367 73.2894H200.887H200.627H200.887C200.887 73.3255 200.901 73.3975 200.916 73.5201C201.739 79.5382 202.237 100.627 174.022 119.243L173.827 119.359Z" fill="white"/>
<path opacity="0.5" d="M170.181 143.878C167.084 143.878 163.741 143.662 160.124 143.165L159.987 143.143L159.929 143.02C159.85 142.862 152.168 126.811 153.605 104.865L155.049 82.7383L155.569 82.7743L154.125 104.901C152.767 125.687 159.633 141.139 160.341 142.674C169.799 143.95 183.408 144.044 194.858 137.348C201.717 133.334 204.569 128.728 204.598 128.685L205.038 128.952C205.009 129.002 202.092 133.716 195.118 137.795C190.043 140.765 181.913 143.878 170.181 143.878Z" fill="white"/>
</g>
<path d="M209.565 181.587L5.76636 179.857V184.989C5.76636 186.38 6.65438 187.569 7.86008 187.778L65.4879 197.883C66.1738 198.005 66.8669 198.034 67.5527 197.976L207.348 186.452C208.597 186.351 209.565 185.162 209.565 183.728V181.587Z" fill="#663B06"/>
<path d="M135.606 173.363L7.87459 182.755C5.58594 182.92 3.73047 181.14 3.73047 178.769V83.8122C3.73047 81.441 5.58594 79.5238 7.87459 79.5238H135.606C137.49 79.5238 139.014 81.2608 139.014 83.4013V169.241C139.014 171.381 137.49 173.226 135.606 173.363Z" fill="#26264F"/>
<path d="M137.642 173.363L9.91048 182.755C7.62183 182.92 5.76636 181.14 5.76636 178.769V83.8122C5.76636 81.441 7.62183 79.5238 9.91048 79.5238H137.642C139.526 79.5238 141.049 81.2608 141.049 83.4013V169.241C141.049 171.381 139.526 173.226 137.642 173.363Z" fill="#F4AB53"/>
<path d="M133.664 167.316L14.69 175.468C12.8273 175.598 11.3184 174.127 11.3184 172.196V89.0591C11.3184 87.1275 12.8273 85.5491 14.69 85.5419L133.664 85.0302C135.216 85.023 136.472 86.45 136.472 88.2086V163.929C136.472 165.695 135.216 167.208 133.664 167.316Z" fill="#BCBCBC"/>
<path d="M78.2884 82.1185C78.2884 82.9978 77.6314 83.7185 76.8156 83.7185C75.9998 83.7185 75.3428 83.005 75.3428 82.1185C75.3428 81.232 75.9998 80.5184 76.8156 80.5184C77.6314 80.5184 78.2884 81.232 78.2884 82.1185Z" fill="white"/>
<path opacity="0.48" d="M9.91048 182.755L136.999 173.414L137.649 173.363C138.515 173.299 139.295 172.873 139.902 172.225C130.754 171.727 125.079 168.484 121.412 165.14C114.055 158.415 115.333 151.785 107.391 147.367C97.4929 141.853 89.71 148.837 82.2015 141.947C77.6459 137.766 79.884 134.653 74.2815 128.404C68.0725 121.485 64.0367 123.813 57.7989 117.586C49.9149 109.715 53.8569 103.589 47.0632 97.9386C38.8255 91.0844 29.938 97.4268 22.0901 90.8538C18.7041 88.0213 16.8486 83.8987 15.8812 79.5094H9.91048C7.62183 79.5094 5.76636 81.4338 5.76636 83.7978V178.754C5.76636 181.133 7.62183 182.92 9.91048 182.755Z" fill="white"/>
<path d="M142.732 172.844L5.76636 182.726L65.4879 193.198C66.1738 193.321 66.8669 193.349 67.5527 193.292L209.565 181.587L144.912 172.909C144.19 172.816 143.461 172.794 142.732 172.844Z" fill="#F4AB53"/>
<path d="M25.7507 182.812L139.779 174.459L175.076 179.158L62.0226 188.088L25.7507 182.812Z" fill="#F8D3A7"/>
<path d="M153.504 147.849C153.504 158.358 144.919 167.417 134.184 168.095L14.5674 175.677C27.2163 174.877 37.3167 165.003 37.3167 153.608V22.557L153.504 26.9967V147.849Z" fill="url(#paint8_linear_2_3792)"/>
<path d="M52.6152 98.9692L45.511 98.9476V46.1682L52.6369 46.37L52.6152 98.9692Z" fill="#FAA034"/>
<path d="M66.6864 99.0052L59.4089 98.9836L59.4306 63.0406L66.7225 63.192L66.6864 99.0052Z" fill="#FAA034"/>
<path d="M80.2885 99.0412L73.1121 99.0196L73.1698 53.8728L80.3679 54.053L80.2885 99.0412Z" fill="#FAA034"/>
<path d="M93.7098 99.07L87.1543 99.0556L87.2265 63.3577L93.7892 63.4946L93.7098 99.07Z" fill="#FAA034"/>
<path d="M107.463 99.1061L100.222 99.0917L100.287 73.448L107.543 73.5633L107.463 99.1061Z" fill="#FAA034"/>
<path d="M120.264 99.1422L113.889 99.1278L114.048 48.1431L120.444 48.3305L120.264 99.1422Z" fill="#FAA034"/>
<path d="M133.649 99.1781L126.855 99.1565L126.913 84.0427L133.714 84.1148L133.649 99.1781Z" fill="#FAA034"/>
<path d="M146.356 99.2069L139.656 99.1925L139.83 58.7738L146.551 58.9324L146.356 99.2069Z" fill="#FAA034"/>
<path d="M146.291 114.393L45.511 114.941V109.787L146.313 109.499L146.291 114.393Z" fill="#FAA034"/>
<path d="M146.11 152.03L45.5037 154.559V149.421L146.132 147.15L146.11 152.03Z" fill="#FAA034"/>
<path d="M93.8542 37.1807L45.511 35.5302V30.0742L93.8615 31.8616L93.8542 37.1807Z" fill="#FAA034"/>
<path opacity="0.5" d="M83.4217 121.564L83.3928 140.498L44.1392 141.226V121.91L83.4217 121.564Z" fill="#FAA034"/>
<path d="M44.1392 133.19V141.226L83.3928 140.498L83.4217 125.759C81.0464 124.959 78.4112 124.534 76.3391 125.852C71.9928 128.606 72.5343 130.17 68.022 129.442C64.4988 128.872 60.5712 128.361 57.5534 130.653C55.6835 132.072 54.7233 133.579 52.0375 133.391C49.5106 133.218 46.4639 131.561 44.1392 133.19Z" fill="#FAA034"/>
<path d="M146.241 124.426L92.8723 124.995L92.8795 121.478L146.255 121.002L146.241 124.426Z" fill="#FAA034"/>
<path d="M146.204 131.763L92.8506 132.534L92.8578 129.269L146.219 128.584L146.204 131.763Z" fill="#FAA034"/>
<path d="M146.175 139.337L92.8362 140.325L92.8434 136.808L146.19 135.914L146.175 139.337Z" fill="#FAA034"/>
<path d="M158.045 176.708C158.045 176.708 151.489 179.699 151.388 180.174C151.28 180.65 155.605 180.001 157.373 180.066C159.142 180.131 160.593 179.605 160.427 178.863C160.269 178.113 159.64 176.239 159.64 176.239L158.045 176.708Z" fill="url(#paint9_linear_2_3792)"/>
<path d="M157.799 174.293L158.204 177.241C158.204 177.241 159.243 177.608 159.936 177.169L160.225 173.933L157.799 174.293Z" fill="url(#paint10_linear_2_3792)"/>
<path d="M188.685 174.293L189.451 175.511C189.667 175.85 189.732 176.261 189.631 176.657C189.364 177.673 188.837 179.655 188.606 180.174C188.288 180.881 184.05 181.306 184.05 181.306C184.05 181.306 183.668 180.773 184.548 180.131C185.429 179.49 185.992 179.382 186.303 178.437C186.613 177.486 186.815 174.805 186.815 174.805L188.685 174.293Z" fill="url(#paint11_linear_2_3792)"/>
<path d="M185.509 171.187C185.79 171.41 187.162 175.533 187.162 175.533C187.162 175.533 187.602 176.095 188.44 175.259C189.277 174.423 188.815 174.884 188.815 174.884L188.649 170.819L185.509 171.187Z" fill="url(#paint12_linear_2_3792)"/>
<path d="M154.045 115.07C153.72 123.863 153.727 133.42 154.262 143.626C154.861 155.122 156.031 165.738 157.503 175.367C158.038 175.382 158.608 175.382 159.193 175.367C159.59 175.353 159.98 175.338 160.348 175.309C161.091 173.313 161.972 170.682 162.759 167.547C163.582 164.246 164.08 161.284 164.434 158.459C165.676 148.498 164.189 147.633 165.199 140.246C166.095 133.709 167.38 133.449 168.874 124.159C170.492 114.083 169.264 112.577 168.672 112.029C166.131 109.708 160.182 111.308 154.045 115.07Z" fill="url(#paint13_linear_2_3792)"/>
<path opacity="0.3" d="M168.672 112.029C166.246 109.816 160.723 111.171 154.897 114.573C161.633 121.802 162.377 126.501 161.575 129.55C160.673 132.995 157.908 133.997 157.929 137.766C157.951 142.401 162.146 143.612 162.066 148.513C162.016 151.756 160.175 151.727 159.749 155.727C159.243 160.462 161.655 162.091 160.882 165.594C160.55 167.1 159.597 169.075 156.882 171.108C157.085 172.549 157.287 173.969 157.503 175.367C158.038 175.382 158.608 175.382 159.193 175.367C159.59 175.353 159.98 175.338 160.348 175.309C161.091 173.313 161.972 170.682 162.759 167.547C163.582 164.246 164.08 161.284 164.434 158.459C165.676 148.498 164.189 147.633 165.199 140.246C166.095 133.709 167.38 133.449 168.874 124.159C170.499 114.083 169.271 112.577 168.672 112.029Z" fill="url(#paint14_linear_2_3792)"/>
<path d="M158.211 114.912C164.016 123.344 170.275 133.846 175.885 146.415C180.123 155.914 183.206 164.837 185.465 172.787C185.769 172.924 186.483 173.205 187.4 173.082C188.649 172.917 189.393 172.116 189.588 171.893C190.49 166.185 190.375 161.356 190.057 157.868C189.855 155.633 189.494 151.922 188.057 147.33C186.447 142.192 185.35 141.911 183.256 136.476C181.083 130.833 181.603 129.427 179.516 122.364C178.657 119.467 177.228 115.15 174.86 109.989C169.308 111.633 163.756 113.276 158.211 114.912Z" fill="url(#paint15_linear_2_3792)"/>
<path d="M134.631 103.013C134.689 105.067 138.068 106.876 140.782 107.423C147.143 108.721 154.514 104.108 158.016 99.0053C158.702 98.0034 159.467 96.7854 159.648 96.8791C160.066 97.0953 156.24 103.366 154.579 110.494C153.735 114.141 153.951 115.849 152.37 118.285C152.009 118.833 151.569 119.409 151.72 120.058C152.11 121.687 155.843 122.112 158.435 122.407C161.171 122.717 163.72 122.689 166.246 122.653C170.282 122.595 170.6 122.386 171.524 122.833C174.333 124.209 174.145 127.503 176.253 127.943C178.029 128.31 179.827 126.335 180.397 125.708C183.364 122.451 183.206 118.516 183.733 114.551C184.953 105.333 189.97 95.2358 194.88 88.8429C196.367 86.9041 197.4 85.8807 197.465 84.0789C197.652 78.7887 189.263 72.9507 182.267 72.2804C180.354 72.0931 176.924 72.1579 173.704 72.4606C172.419 72.5832 171.048 72.7561 169.582 73.0156C166.015 73.6354 163.532 74.0751 161.005 75.2283C150.803 79.8914 153.027 90.2628 141.981 97.4413C138.198 99.9062 134.574 100.865 134.631 103.013Z" fill="url(#paint16_linear_2_3792)"/>
<path d="M176.441 66.8029C176.441 66.8029 176.881 69.2461 177.884 70.9831C178.794 72.5543 182.563 73.1165 183.35 73.3904C184.137 73.6642 182.166 75.0264 180.072 75.5237C177.978 76.021 171.849 76.3454 170.65 75.6823C169.452 75.0264 171.43 74.8246 172.874 74.0679C174.318 73.3111 174.794 70.2336 174.354 68.929C173.906 67.6173 176.441 66.8029 176.441 66.8029Z" fill="url(#paint17_linear_2_3792)"/>
<path d="M172.463 66.0966C170.939 65.0083 170.521 62.0749 171.365 61.419C171.603 61.2316 171.835 61.3181 175.271 62.6947C176.975 63.3794 177.812 63.7398 178.087 64.4893C178.253 64.9506 178.231 65.5704 178.043 66.0533C177.95 66.3056 177.762 66.6155 177.343 67.2137C176.975 67.7398 176.997 67.7254 176.888 67.8768C176.614 68.2444 176.094 68.8714 175.134 69.5921C175.083 69.3255 174.997 68.9867 174.852 68.6191C174.795 68.475 174.578 67.9272 174.231 67.466C173.632 66.6732 172.954 66.4497 172.463 66.0966Z" fill="url(#paint18_linear_2_3792)"/>
<path d="M176.354 68.8858C176.354 68.8858 175.358 70.3633 173.517 70.1615C171.864 69.9813 171.784 66.2696 172.882 65.5272C173.243 65.2822 173.957 65.2029 174.52 65.3903C174.853 65.4984 174.961 65.6425 175.517 65.8155C176.022 65.9741 176.174 65.9236 176.325 66.0605C176.513 66.2335 176.636 66.6371 176.268 67.7038C176.6 67.4011 176.982 67.293 177.242 67.4299C177.286 67.4516 177.394 67.5308 177.452 67.6534C177.661 68.0858 177.249 68.6119 176.354 68.8858Z" fill="url(#paint19_linear_2_3792)"/>
<path opacity="0.3" d="M143.555 102.703C148.168 101.665 150.002 101.701 152.283 99.863C156.081 96.807 156.651 92.1583 158.861 92.216C159.9 92.2448 160.752 93.3043 161.351 94.3494C160.796 95.2142 160.24 96.0863 159.684 96.9512C159.684 96.9152 159.676 96.8935 159.655 96.8863C159.474 96.7926 158.709 98.0107 158.023 99.0125C154.522 104.115 147.15 108.728 140.79 107.431C138.963 107.056 136.848 106.126 135.635 104.93C138.775 103.87 141.454 103.171 143.555 102.703Z" fill="url(#paint20_linear_2_3792)"/>
<path d="M136.046 107.834C136.046 107.834 133.447 107.575 131.895 106.912C130.343 106.249 129.339 107.2 129.484 107.856C129.628 108.512 132.176 109.427 133.194 109.463C134.212 109.499 136.046 107.834 136.046 107.834Z" fill="url(#paint21_linear_2_3792)"/>
<path d="M192.093 120.397C194.887 120.649 201.175 120.757 205.623 116.649C213.03 109.809 209.355 96.7926 206.778 91.1925C203.825 84.7708 199.118 81.1815 196.259 78.9977C192.714 76.2877 190.548 74.6372 187.942 75.0048C181.206 75.9634 176.542 89.7438 180.238 93.6862C181.451 94.9763 182.65 94.2484 186.151 95.3583C187.292 95.7187 195.804 98.4287 197.291 104.692C198.331 109.074 195.688 114.206 190.988 117.651C191.349 118.573 191.718 119.488 192.093 120.397Z" fill="url(#paint22_linear_2_3792)"/>
<path opacity="0.3" d="M160.774 118.134C163.936 116.137 164.405 114.119 167.95 112.75C172.549 110.977 174.766 113.233 177.047 111.409C179.762 109.24 177.357 105.47 179.393 98.9188C179.74 97.8089 182.361 89.3619 188.368 88.288C191.169 87.7835 194.873 88.8574 196.295 91.2286C197.414 93.0809 196.374 94.4647 197.732 96.5188C199.089 98.5657 200.713 98.0684 202.439 99.7693C205.182 102.479 205.608 108.195 203.125 111.431C201.969 112.937 200.468 113.535 197.638 114.66C195.912 115.344 194.309 115.77 192.923 116.043C196.381 112.728 198.179 108.454 197.298 104.714C196.374 100.814 192.721 98.2918 189.819 96.8575C186.916 102.306 184.548 108.627 183.754 114.573C183.227 118.537 183.386 122.472 180.419 125.73C179.848 126.357 178.051 128.339 176.275 127.964C174.159 127.525 174.354 124.231 171.546 122.854C170.621 122.4 170.304 122.609 166.268 122.674C163.748 122.71 161.193 122.739 158.456 122.429C156.153 122.17 152.948 121.802 151.995 120.577C156.146 120.447 158.926 119.301 160.774 118.134Z" fill="url(#paint23_linear_2_3792)"/>
<path d="M190.252 122.595L190.577 121.636C191.097 120.116 190.245 118.487 188.671 118.011L127.101 99.2864L125.224 105.636L186.483 124.469C188.05 124.952 189.739 124.108 190.252 122.595Z" fill="url(#paint24_linear_2_3792)"/>
<path d="M65.9211 82.0897C70.6283 63.5236 89.0747 52.3378 107.319 57.5775C125.895 62.9181 136.53 83.0122 130.891 101.953C125.383 120.447 106.474 130.429 88.8365 124.721C71.5019 119.114 61.3221 100.231 65.9211 82.0897ZM125.534 100.317C130.198 84.4681 121.296 67.675 105.781 63.1704C90.5042 58.7307 74.9818 68.0498 70.9749 83.632C67.0474 98.9188 75.6244 114.854 90.2588 119.553C105.117 124.317 120.957 115.856 125.534 100.317Z" fill="url(#paint25_linear_2_3792)"/>
<path opacity="0.3" d="M127.108 99.2864L134.956 101.672C135.498 104.173 136.544 105.6 137.598 106.479C141.562 109.759 146.861 106.184 154.247 110.033C157.951 111.964 157.251 113.189 160.723 114.537C166.47 116.764 169.098 113.679 174.181 115.705C179.321 117.759 179.827 122.184 182.743 122.026C183.992 121.961 185.595 121.053 187.386 117.615L188.671 118.004C190.245 118.48 191.097 120.108 190.577 121.629L190.252 122.588C189.732 124.108 188.05 124.945 186.483 124.469L125.224 105.636L127.108 99.2864Z" fill="#D8DEE8"/>
<path opacity="0.56" d="M88.9275 122.089C104.291 127.026 120.694 118.284 125.438 102.204C130.282 85.7861 121.062 68.3948 104.991 63.7388C89.173 59.1549 73.1091 68.8056 68.9794 84.9428C64.922 100.756 73.795 117.232 88.9275 122.089Z" fill="white"/>
<path d="M64.7299 83.6825C69.4372 65.1164 87.8836 53.9234 106.128 59.1703C124.704 64.511 135.339 84.605 129.7 103.546C124.192 122.04 105.283 132.022 87.6453 126.314C70.3108 120.707 60.131 101.823 64.7299 83.6825ZM124.343 101.91C129.007 86.0609 120.105 69.2678 104.59 64.7632C89.3131 60.3235 73.7907 69.6426 69.7837 85.2249C65.8562 100.512 74.4332 116.447 89.0676 121.146C103.926 125.91 119.766 117.449 124.343 101.91Z" fill="url(#paint26_linear_2_3792)"/>
<path d="M66.5132 84.223C70.975 66.7091 88.3889 56.1864 105.579 61.1451C123.072 66.1902 133.093 85.1095 127.794 102.962C122.618 120.411 104.799 129.86 88.1435 124.49C71.7619 119.207 62.1525 101.362 66.5132 84.223ZM124.343 101.91C129.007 86.0609 120.105 69.2678 104.59 64.7632C89.313 60.3234 73.7907 69.6425 69.7837 85.2248C65.8562 100.512 74.4332 116.447 89.0676 121.146C103.926 125.91 119.766 117.449 124.343 101.91Z" fill="url(#paint27_linear_2_3792)"/>
<path d="M191.855 119.813L191.234 118.27C191.234 118.27 190.216 118.335 189.386 117.737C188.931 117.413 188.122 117.312 187.891 117.377C187.66 117.442 186.772 117.406 187.783 117.881C188.794 118.364 188.786 118.717 188.36 119.114C187.942 119.51 186.339 120.353 185.769 120.397C185.191 120.44 186.231 121.326 186.815 121.442C187.393 121.557 188.346 121.701 189.523 121.009C189.949 120.75 191.855 119.813 191.855 119.813Z" fill="url(#paint28_linear_2_3792)"/>
<defs>
<linearGradient id="paint0_linear_2_3792" x1="-12.4264" y1="31.7613" x2="84.7404" y2="81.9422" gradientUnits="userSpaceOnUse">
<stop stop-color="#AB700B"/>
<stop offset="0.9964" stop-color="#FAA034"/>
</linearGradient>
<linearGradient id="paint1_linear_2_3792" x1="13.2012" y1="35.3546" x2="79.5554" y2="57.6047" gradientUnits="userSpaceOnUse">
<stop stop-color="#AB700B"/>
<stop offset="0.9964" stop-color="#FAA034"/>
</linearGradient>
<linearGradient id="paint2_linear_2_3792" x1="17.7599" y1="32.8917" x2="24.2341" y2="75.3011" gradientUnits="userSpaceOnUse">
<stop offset="0.00359712" stop-color="#FAA034"/>
<stop offset="1" stop-color="#FBE3C5"/>
</linearGradient>
<linearGradient id="paint3_linear_2_3792" x1="28.0491" y1="5.37383" x2="105.551" y2="45.3383" gradientUnits="userSpaceOnUse">
<stop stop-color="#AB700B"/>
<stop offset="0.9964" stop-color="#FAA034"/>
</linearGradient>
<linearGradient id="paint4_linear_2_3792" x1="48.4767" y1="8.24862" x2="101.392" y2="25.9874" gradientUnits="userSpaceOnUse">
<stop stop-color="#AB700B"/>
<stop offset="0.9964" stop-color="#FAA034"/>
</linearGradient>
<linearGradient id="paint5_linear_2_3792" x1="52.1134" y1="6.27076" x2="57.2907" y2="40.1261" gradientUnits="userSpaceOnUse">
<stop offset="0.00359712" stop-color="#FAA034"/>
<stop offset="1" stop-color="#FBE3C5"/>
</linearGradient>
<linearGradient id="paint6_linear_2_3792" x1="94.3689" y1="49.1339" x2="206.205" y2="154.031" gradientUnits="userSpaceOnUse">
<stop stop-color="#FFC444"/>
<stop offset="0.9964" stop-color="#F36F56"/>
</linearGradient>
<linearGradient id="paint7_linear_2_3792" x1="212.405" y1="433.946" x2="156.623" y2="277.597" gradientUnits="userSpaceOnUse">
<stop stop-color="#FDFEFE"/>
<stop offset="0.9964" stop-color="#F9BDEB" stop-opacity="0.8"/>
</linearGradient>
<linearGradient id="paint8_linear_2_3792" x1="115.467" y1="46.0233" x2="39.5656" y2="203.258" gradientUnits="userSpaceOnUse">
<stop stop-color="white"/>
<stop offset="0.9964" stop-color="#EBEFF2"/>
</linearGradient>
<linearGradient id="paint9_linear_2_3792" x1="154.843" y1="166.39" x2="156.516" y2="187.09" gradientUnits="userSpaceOnUse">
<stop stop-color="#311944"/>
<stop offset="1" stop-color="#A03976"/>
</linearGradient>
<linearGradient id="paint10_linear_2_3792" x1="159.077" y1="177.906" x2="158.73" y2="156.466" gradientUnits="userSpaceOnUse">
<stop stop-color="#FFC444"/>
<stop offset="0.9964" stop-color="#F36F56"/>
</linearGradient>
<linearGradient id="paint11_linear_2_3792" x1="185.629" y1="163.902" x2="187.302" y2="184.6" gradientUnits="userSpaceOnUse">
<stop stop-color="#311944"/>
<stop offset="1" stop-color="#A03976"/>
</linearGradient>
<linearGradient id="paint12_linear_2_3792" x1="187.296" y1="177.45" x2="186.949" y2="156.008" gradientUnits="userSpaceOnUse">
<stop stop-color="#FFC444"/>
<stop offset="0.9964" stop-color="#F36F56"/>
</linearGradient>
<linearGradient id="paint13_linear_2_3792" x1="153.867" y1="143.184" x2="169.748" y2="143.145" gradientUnits="userSpaceOnUse">
<stop stop-color="#444B8C"/>
<stop offset="0.9964" stop-color="#3E4177"/>
</linearGradient>
<linearGradient id="paint14_linear_2_3792" x1="153.867" y1="143.184" x2="169.748" y2="143.146" gradientUnits="userSpaceOnUse">
<stop stop-color="#444B8C"/>
<stop offset="0.9964" stop-color="#3E4177"/>
</linearGradient>
<linearGradient id="paint15_linear_2_3792" x1="158.272" y1="141.61" x2="190.242" y2="141.533" gradientUnits="userSpaceOnUse">
<stop stop-color="#444B8C"/>
<stop offset="0.9964" stop-color="#3E4177"/>
</linearGradient>
<linearGradient id="paint16_linear_2_3792" x1="112.193" y1="162.002" x2="213.49" y2="53.627" gradientUnits="userSpaceOnUse">
<stop stop-color="#FFC444"/>
<stop offset="0.9964" stop-color="#F36F56"/>
</linearGradient>
<linearGradient id="paint17_linear_2_3792" x1="176.622" y1="76.9682" x2="173.241" y2="106.846" gradientUnits="userSpaceOnUse">
<stop stop-color="#FFC444"/>
<stop offset="0.9964" stop-color="#F36F56"/>
</linearGradient>
<linearGradient id="paint18_linear_2_3792" x1="178.484" y1="75.6525" x2="173.713" y2="61.5891" gradientUnits="userSpaceOnUse">
<stop stop-color="#444B8C"/>
<stop offset="0.9964" stop-color="#3E4177"/>
</linearGradient>
<linearGradient id="paint19_linear_2_3792" x1="174.51" y1="65.247" x2="177.166" y2="87.262" gradientUnits="userSpaceOnUse">
<stop stop-color="#DE9B0A"/>
<stop offset="0.9964" stop-color="#F36F56"/>
</linearGradient>
<linearGradient id="paint20_linear_2_3792" x1="135.633" y1="99.9336" x2="161.352" y2="99.9336" gradientUnits="userSpaceOnUse">
<stop stop-color="#FFC444"/>
<stop offset="0.9964" stop-color="#F36F56"/>
</linearGradient>
<linearGradient id="paint21_linear_2_3792" x1="133.264" y1="106.67" x2="123.97" y2="125.549" gradientUnits="userSpaceOnUse">
<stop stop-color="#FFC444"/>
<stop offset="0.9964" stop-color="#F36F56"/>
</linearGradient>
<linearGradient id="paint22_linear_2_3792" x1="123.683" y1="172.742" x2="224.981" y2="64.3671" gradientUnits="userSpaceOnUse">
<stop stop-color="#FFC444"/>
<stop offset="0.9964" stop-color="#F36F56"/>
</linearGradient>
<linearGradient id="paint23_linear_2_3792" x1="151.986" y1="108.077" x2="204.752" y2="108.077" gradientUnits="userSpaceOnUse">
<stop stop-color="#FFC444"/>
<stop offset="0.9964" stop-color="#F36F56"/>
</linearGradient>
<linearGradient id="paint24_linear_2_3792" x1="125.231" y1="111.946" x2="190.733" y2="111.946" gradientUnits="userSpaceOnUse">
<stop stop-color="#444B8C"/>
<stop offset="0.9964" stop-color="#26264F"/>
</linearGradient>
<linearGradient id="paint25_linear_2_3792" x1="64.8201" y1="91.3054" x2="132.406" y2="91.3054" gradientUnits="userSpaceOnUse">
<stop stop-color="#444B8C"/>
<stop offset="0.9964" stop-color="#26264F"/>
</linearGradient>
<linearGradient id="paint26_linear_2_3792" x1="89.4901" y1="129.226" x2="100.324" y2="79.3853" gradientUnits="userSpaceOnUse">
<stop stop-color="#444B8C"/>
<stop offset="0.9964" stop-color="#26264F"/>
</linearGradient>
<linearGradient id="paint27_linear_2_3792" x1="105.655" y1="56.3007" x2="90.5352" y2="123.142" gradientUnits="userSpaceOnUse">
<stop stop-color="#444B8C"/>
<stop offset="0.9964" stop-color="#26264F"/>
</linearGradient>
<linearGradient id="paint28_linear_2_3792" x1="187.132" y1="124.249" x2="189.784" y2="117.395" gradientUnits="userSpaceOnUse">
<stop stop-color="#FFC444"/>
<stop offset="0.9964" stop-color="#F36F56"/>
</linearGradient>
</defs>
</svg>
