<svg width="32" height="32" viewBox="0 0 32 32" fill="none" xmlns="http://www.w3.org/2000/svg">
<ellipse cx="15.7994" cy="16" rx="15.7994" ry="16" fill="#00AAE4"/>
<rect width="31.5987" height="32" rx="10" fill="#00AAE4"/>
<path d="M21.6854 18.2052C21.0038 17.7969 20.2362 17.6786 19.4759 17.6511C18.8381 17.6279 17.8864 17.2039 17.8864 16.0001C17.8864 15.1031 18.5872 14.3813 19.4763 14.3491C20.2365 14.3215 21.004 14.203 21.6854 13.7949C23.3776 12.7814 24.1241 10.6536 23.4557 8.74878C22.7874 6.84392 20.8973 5.71182 18.973 6.06387C17.0487 6.41592 15.6458 8.15048 15.6459 10.1776C15.6459 10.9869 15.9234 11.7317 16.2774 12.4224C16.5751 13.0034 16.7258 14.0817 15.7046 14.6933C14.9449 15.1483 13.9968 14.8602 13.5232 14.074C13.1232 13.4099 12.6404 12.7876 11.9643 12.3826C10.2721 11.3691 8.12277 11.7622 6.86679 13.3151C5.61081 14.8679 5.61081 17.1321 6.86679 18.685C8.12277 20.2378 10.2721 20.631 11.9643 19.6174C12.6402 19.2126 13.1231 18.5908 13.5228 17.9271C13.8511 17.3821 14.671 16.6874 15.7045 17.3069C16.463 17.7616 16.6975 18.7577 16.277 19.5782C15.9231 20.2688 15.6459 21.0134 15.6459 21.8226C15.646 23.8497 17.0488 25.5841 18.9731 25.9361C20.8973 26.2881 22.7874 25.156 23.4557 23.2512C24.124 21.3464 23.3775 19.2188 21.6854 18.2052Z" fill="white"/>
</svg>
