<svg width="276" height="483" viewBox="0 0 276 483" fill="none" xmlns="http://www.w3.org/2000/svg">
<g opacity="0.75">
<path opacity="0.75" d="M36.096 71.3727L52.0713 84.9867L60.2848 73.8386L36.096 71.3727Z" fill="#9EF4C4" fill-opacity="0.2"/>
<path opacity="0.75" d="M58.3518 109.418L76.9978 118.406L77.7773 104.743L58.3518 109.418Z" fill="#9EF4C4" fill-opacity="0.2"/>
<path opacity="0.75" d="M111.519 341.983L132.88 321.28L136.492 342.184L111.519 341.983Z" fill="#9EF4C4" fill-opacity="0.2"/>
</g>
<path d="M54.4904 138.552L-79.4125 55.5977L-80.0939 54.7861L-80.0398 55.2355L-80.4318 55.0092L-79.9646 56.0107L-73.8767 212.051L-74.9688 212.675L-73.8679 212.578L-91.4211 379.327L-91.7258 379.674L-91.6474 379.719L-91.7832 379.954L-91.1648 379.789L80.2144 414.128L75.671 408.055L79.0821 408.666L79.0279 408.216L102.442 269.523L102.891 269.469L38.5432 206.914L54.9972 138.217L54.4904 138.552ZM5.83963 167.229L-13.0606 207.751L-23.3984 184.01L5.83963 167.229ZM-23.7209 183.302L-78.0773 58.3549L5.97868 166.264L-23.7209 183.302ZM15.2881 236.872L-11.5984 209.745L37.3727 207.493L15.2881 236.872ZM-13.3055 209.805L-12.5756 209.808L14.8022 237.532L-19.4488 283.096L-36.4738 260.617L-13.3055 209.805ZM-36.92 259.941L-72.8575 212.639L-14.0807 209.88L-36.92 259.941ZM-19.8893 283.678L-20.1941 284.024L-20.0704 283.991L-89.4325 376.607L-36.7576 261.289L-19.8893 283.678ZM-19.3195 284.32L-19.3769 284.601L-18.8733 284.996L1.31136 311.599L-89.3485 377.91L-19.3195 284.32ZM-16.9253 286.33L10.0995 305.069L1.8303 311.062L-16.9253 286.33ZM-18.3091 284.381L-18.7674 283.907L50.2751 275.68L10.6969 304.577L-18.3091 284.381ZM-13.5585 208.613L-13.7064 209.051L-21.0298 209.422L-71.9554 211.801L-24.0289 184.378L-13.5585 208.613ZM-37.3274 260.647L-90.5367 377.433L-73.298 213.221L-37.3274 260.647ZM-89.4423 378.797L1.76965 312.073L30.7518 350.236L-89.4423 378.797ZM31.1979 350.912L73.8556 407.216L-89.3671 379.572L31.1979 350.912ZM2.32174 311.66L10.7599 305.555L63.9139 342.411L31.5722 350.083L2.32174 311.66ZM64.9033 342.146L11.3573 305.063L51.4876 275.753L64.9033 342.146ZM51.3793 274.854L-18.3931 283.078L15.3842 237.973L51.292 274.281L51.3793 274.854ZM15.8248 237.391L38 207.855L51.0843 273.011L15.8248 237.391ZM-12.2466 209.057L-12.7049 208.584L6.61481 167.154L37.4212 206.684L-12.2466 209.057ZM6.45235 165.805L-78.095 57.2992L53.7362 138.953L6.85652 165.83L6.62131 165.694L6.45235 165.805ZM-24.3966 183.748L-73.201 211.604L-79.1418 57.8448L-24.3966 183.748ZM78.4442 413.211L-66.8831 384.086L74.6153 408.073L78.4442 413.211ZM31.94 350.713L65.0237 342.843L78.0749 407.875L74.9443 407.322L31.94 350.713ZM78.5309 406.361L52.2749 275.476L101.666 269.598L78.5309 406.361ZM52.6492 274.646L51.9225 273.913L38.7178 208.06L101.265 268.844L52.6492 274.646ZM38.0186 206.193L7.10061 166.493L53.9351 139.695L38.0186 206.193Z" fill="#9EF4C4" fill-opacity="0.2"/>
<path d="M38.0366 202.544C40.4284 202.566 42.4184 204.552 42.3965 206.943C42.3747 209.335 40.3894 211.325 37.9976 211.303C35.6058 211.281 33.6158 209.296 33.6376 206.904C33.7048 204.434 35.6448 202.522 38.0366 202.544Z" fill="#9EF4C4" fill-opacity="0.2"/>
<path d="M15.1199 234.267C16.9838 234.298 18.5156 235.809 18.4848 237.673C18.4541 239.537 16.9425 241.069 15.0785 241.038C13.2145 241.007 11.6828 239.496 11.7135 237.632C11.7443 235.768 13.2559 234.236 15.1199 234.267Z" fill="#9EF4C4" fill-opacity="0.2"/>
<path d="M50.8166 270.034C53.3321 270.023 55.3552 272.132 55.2881 274.602C55.2993 277.117 53.1904 279.141 50.7202 279.073C48.2047 279.085 46.1815 276.976 46.2487 274.506C46.2374 271.99 48.3464 269.967 50.8166 270.034Z" fill="#9EF4C4" fill-opacity="0.2"/>
<path d="M53.0514 134.167C56.1731 134.192 58.5762 136.73 58.5963 139.773C58.5712 142.895 56.0338 145.298 52.9905 145.318C49.8688 145.293 47.4657 142.755 47.4456 139.712C47.4254 136.669 49.9297 134.142 53.0514 134.167Z" fill="#9EF4C4" fill-opacity="0.2"/>
<path d="M102.35 265.704C104.866 265.692 106.889 267.801 106.822 270.272C106.833 272.787 104.724 274.81 102.254 274.743C99.7384 274.754 97.7152 272.645 97.7824 270.175C97.7711 267.66 99.8348 265.715 102.35 265.704Z" fill="#9EF4C4" fill-opacity="0.2"/>
<path d="M65.3199 339.251C67.5097 339.26 69.1861 341.065 69.2216 343.176C69.2118 345.366 67.4076 347.042 65.2963 347.078C63.1066 347.068 61.4302 345.264 61.3947 343.152C61.4044 340.963 63.1755 339.162 65.3199 339.251Z" fill="#9EF4C4" fill-opacity="0.2"/>
<path d="M141.023 385.043L149.872 359.939L128.302 364.526L141.023 385.043ZM148.463 361.112L140.786 382.919L129.77 365.06L148.463 361.112Z" fill="#9EF4C4" fill-opacity="0.2"/>
<path d="M106.605 230.63L120.059 205.153L89.495 227.128L106.605 230.63ZM106.137 229.628L91.6758 226.61L117.407 208.117L106.137 229.628Z" fill="#9EF4C4" fill-opacity="0.2"/>
<path d="M63.7905 212.079L67.6384 195.274L57.0203 199.179L63.7905 212.079ZM66.4194 196.661L63.544 209.427L58.4106 199.668L66.4194 196.661Z" fill="#9EF4C4" fill-opacity="0.2"/>
<path d="M86.7969 76.8077L77.2661 38.2702L60.28 44.8762L86.7969 76.8077ZM84.9039 73.2058L61.7608 45.2085L76.5871 39.4463L84.9039 73.2058Z" fill="#9EF4C4" fill-opacity="0.2"/>
</svg>
