<svg width="32" height="32" viewBox="0 0 32 32" fill="none" xmlns="http://www.w3.org/2000/svg">
<rect width="31.5987" height="32" rx="10" fill="#43BEB9"/>
<path fill-rule="evenodd" clip-rule="evenodd" d="M17.5525 8.48523L21.5522 12.2386C21.7793 12.4503 21.7793 12.8031 21.5644 13.0148L20.3535 14.1443L19.5457 14.8503C19.306 15.0499 18.9402 15.0499 18.7001 14.8503L17.0853 13.4622C16.6437 13.0738 15.9624 13.0738 15.5208 13.4622L13.906 14.8503C13.6664 15.0499 13.3001 15.0499 13.0605 14.8503L12.2526 14.1443L11.0418 13.0148C10.8021 12.7914 10.8021 12.4503 11.0418 12.2264L15.0415 8.48523C15.7353 7.83826 16.8582 7.83826 17.5525 8.48523ZM14.5668 23.4838L8.43089 17.2416C7.49051 16.2888 7.95613 15.8916 8.61556 15.329C8.7352 15.227 8.86122 15.1195 8.98638 15.0022L9.87517 14.1644C10.1097 13.9517 10.468 13.9517 10.7025 14.1644L12.2829 15.6407C12.7146 16.0532 13.3816 16.0532 13.8137 15.6407L15.3941 14.1644C15.6286 13.9517 15.9865 13.9517 16.221 14.1644L17.8133 15.6407C18.2458 16.0532 18.9119 16.0532 19.3445 15.6407L20.9122 14.1644C21.1467 13.9517 21.505 13.9388 21.7395 14.1644L22.7025 15.0899C22.8132 15.1951 22.923 15.2919 23.0269 15.3837C23.6646 15.9464 24.0841 16.3166 23.1715 17.2416L17.0237 23.4838C16.3444 24.1721 15.2457 24.1721 14.5668 23.4838Z" fill="#FFFFFE"/>
</svg>
