<svg width="32" height="32" viewBox="0 0 32 32" fill="none" xmlns="http://www.w3.org/2000/svg">
<rect width="32" height="32" rx="6" fill="white" fill-opacity="0.08"/>
<path fill-rule="evenodd" clip-rule="evenodd" d="M18.6666 19.7333C18.6666 20.0277 18.4277 20.2666 18.1333 20.2666H13.8666C13.5722 20.2666 13.3333 20.0277 13.3333 19.7333V13.0666C13.3333 12.9194 13.4527 12.8 13.5999 12.8H13.8666C13.8666 13.3888 14.3439 13.8666 14.9333 13.8666H17.0666C17.6559 13.8666 18.1333 13.3888 18.1333 12.8H18.3999C18.5471 12.8 18.6666 12.9194 18.6666 13.0666V19.7333ZM15.4666 11.7333H16.5333C16.8277 11.7333 17.0666 11.9722 17.0666 12.2666C17.0666 12.561 16.8277 12.8 16.5333 12.8H15.4666C15.1722 12.8 14.9333 12.561 14.9333 12.2666C14.9333 11.9722 15.1722 11.7333 15.4666 11.7333ZM18.6666 11.7333H18.1333C18.1333 11.144 17.6559 10.6666 17.0666 10.6666H14.9333C14.3439 10.6666 13.8666 11.144 13.8666 11.7333H13.3333C12.7439 11.7333 12.2666 12.2106 12.2666 12.8V20.2666C12.2666 20.8554 12.7439 21.3333 13.3333 21.3333H18.6666C19.2559 21.3333 19.7333 20.8554 19.7333 20.2666V12.8C19.7333 12.2106 19.2559 11.7333 18.6666 11.7333Z" fill="white"/>
</svg>
