<svg width="20" height="20" viewBox="0 0 20 20" fill="none" xmlns="http://www.w3.org/2000/svg">
<path fill-rule="evenodd" clip-rule="evenodd" d="M10.8334 9.16666H12.5001C12.9603 9.16666 13.3334 9.53975 13.3334 9.99999C13.3334 10.4602 12.9603 10.8333 12.5001 10.8333H10.0001C9.53984 10.8333 9.16675 10.4602 9.16675 9.99999V5.83332C9.16675 5.37309 9.53984 4.99999 10.0001 4.99999C10.4603 4.99999 10.8334 5.37309 10.8334 5.83332V9.16666ZM10.0001 18.3333C5.39771 18.3333 1.66675 14.6024 1.66675 9.99999C1.66675 5.39762 5.39771 1.66666 10.0001 1.66666C14.6025 1.66666 18.3334 5.39762 18.3334 9.99999C18.3334 14.6024 14.6025 18.3333 10.0001 18.3333ZM10.0001 16.6667C13.682 16.6667 16.6667 13.6819 16.6667 9.99999C16.6667 6.31809 13.682 3.33332 10.0001 3.33332C6.31818 3.33332 3.33341 6.31809 3.33341 9.99999C3.33341 13.6819 6.31818 16.6667 10.0001 16.6667Z" fill="white"/>
</svg>
