<svg width="20" height="20" viewBox="0 0 20 20" fill="none" xmlns="http://www.w3.org/2000/svg">
<path fill-rule="evenodd" clip-rule="evenodd" d="M16.5333 6.26666H13.7333V3.46666C13.7333 2.95146 14.1514 2.53333 14.6666 2.53333H16.5333C17.0485 2.53333 17.4666 2.95146 17.4666 3.46666V5.33333C17.4666 5.84853 17.0485 6.26666 16.5333 6.26666ZM17.4666 13.7333V16.5333C17.4666 17.0485 17.0485 17.4667 16.5333 17.4667H14.6666C14.1514 17.4667 13.7333 17.0485 13.7333 16.5333V13.7333H17.4666ZM8.13329 11.8667H11.8666V8.13333H8.13329V11.8667ZM5.33329 17.4667H3.46663C2.95143 17.4667 2.53329 17.0485 2.53329 16.5333V14.6667C2.53329 14.1515 2.95143 13.7333 3.46663 13.7333H6.26663V16.5333C6.26663 17.0485 5.84849 17.4667 5.33329 17.4667ZM2.53329 5.33333V3.46666C2.53329 2.95146 2.95143 2.53333 3.46663 2.53333H5.33329C5.84849 2.53333 6.26663 2.95146 6.26663 3.46666V6.26666H3.46663C2.95143 6.26666 2.53329 5.84853 2.53329 5.33333ZM17.4666 0.666664H13.7333C12.702 0.666664 11.8666 1.502 11.8666 2.53333V6.26666H8.13329V2.53333C8.13329 1.502 7.29796 0.666664 6.26663 0.666664H2.53329C1.50196 0.666664 0.666626 1.502 0.666626 2.53333V6.26666C0.666626 7.298 1.50196 8.13333 2.53329 8.13333H6.26663V11.8667H2.53329C1.50196 11.8667 0.666626 12.702 0.666626 13.7333V17.4667C0.666626 18.498 1.50196 19.3333 2.53329 19.3333H6.26663C7.29796 19.3333 8.13329 18.498 8.13329 17.4667V13.7333H11.8666V17.4667C11.8666 18.498 12.702 19.3333 13.7333 19.3333H17.4666C18.498 19.3333 19.3333 18.498 19.3333 17.4667V13.7333C19.3333 12.702 18.498 11.8667 17.4666 11.8667H13.7333V8.13333H17.4666C18.498 8.13333 19.3333 7.298 19.3333 6.26666V2.53333C19.3333 1.502 18.498 0.666664 17.4666 0.666664Z" fill="white"/>
</svg>
