<svg width="32" height="32" viewBox="0 0 32 32" fill="none" xmlns="http://www.w3.org/2000/svg">
<circle cx="16" cy="16" r="16" fill="#6E21D1"/>
<rect width="32" height="32" rx="10" fill="#6E21D1"/>
<path d="M21.9607 18.2052C21.2705 17.7969 20.4932 17.6786 19.7232 17.6511C19.0772 17.6279 18.1135 17.2039 18.1135 16.0001C18.1135 15.1031 18.8232 14.3813 19.7235 14.3491C20.4934 14.3215 21.2707 14.203 21.9607 13.7949C23.6744 12.7814 24.4304 10.6536 23.7536 8.74878C23.0768 6.84392 21.1626 5.71182 19.2139 6.06387C17.2652 6.41592 15.8445 8.15048 15.8445 10.1776C15.8445 10.9869 16.1255 11.7317 16.484 12.4224C16.7856 13.0034 16.9381 14.0817 15.9039 14.6933C15.1346 15.1483 14.1745 14.8602 13.6949 14.074C13.2898 13.4099 12.8008 12.7876 12.1162 12.3826C10.4025 11.3691 8.22587 11.7622 6.95395 13.3151C5.68202 14.8679 5.68202 17.1321 6.95395 18.685C8.22587 20.2378 10.4025 20.631 12.1162 19.6174C12.8006 19.2126 13.2897 18.5908 13.6945 17.9271C14.027 17.3821 14.8572 16.6874 15.9039 17.3069C16.672 17.7616 16.9095 18.7577 16.4837 19.5782C16.1252 20.2688 15.8446 21.0134 15.8446 21.8226C15.8446 23.8497 17.2653 25.5841 19.214 25.9361C21.1626 26.2881 23.0767 25.156 23.7535 23.2512C24.4303 21.3464 23.6744 19.2188 21.9607 18.2052Z" fill="white"/>
</svg>
