<svg width="40" height="40" viewBox="0 0 40 40" fill="none" xmlns="http://www.w3.org/2000/svg">
<rect width="40" height="40" rx="16" fill="#3F71B5"/>
<path fill-rule="evenodd" clip-rule="evenodd" d="M20 27.4498C16.2116 27.4498 13.0821 24.62 12.6052 20.9594L16.038 20.965C16.1621 20.966 16.2816 20.9156 16.3693 20.8269L18.0782 19.1133C18.2938 18.8977 18.656 18.9434 18.8109 19.2076C20.8708 22.7253 20.4582 22.0225 20.9678 22.8877C21.2786 23.415 22.0029 23.5056 22.4341 23.0725L24.4426 21.0621C24.5304 20.9744 24.6498 20.9333 24.774 20.9333H27.3966C26.9197 24.6666 23.7884 27.4498 20 27.4498ZM20 12.4997C23.8126 12.4997 26.9608 15.3333 27.4069 19.0666H23.9004C23.7716 19.0666 23.6484 19.1114 23.5606 19.2048L22.3165 20.5217C22.1018 20.7485 21.7294 20.7037 21.5726 20.433L19.7984 17.367L19.8077 17.3605L19.4456 16.737C19.1366 16.2078 18.4105 16.1136 17.9774 16.5476L17.5182 17.0086L17.5266 16.9946L15.5844 18.9238C15.4966 19.0097 15.379 19.0666 15.2558 19.0666H12.593C13.0392 15.3333 16.1873 12.4997 20 12.4997ZM20 10.6666C14.8452 10.6666 10.6666 14.8461 10.6666 20C10.6666 25.1548 14.8452 29.3333 20 29.3333C25.1548 29.3333 29.3333 25.1548 29.3333 20C29.3333 14.8461 25.1548 10.6666 20 10.6666Z" fill="#F71AD9"/>
</svg>
