<svg width="28" height="28" viewBox="0 0 28 28" fill="none" xmlns="http://www.w3.org/2000/svg">
<path fill-rule="evenodd" clip-rule="evenodd" d="M23.3335 17.5C23.3335 16.8557 23.8558 16.3334 24.5002 16.3334C25.1445 16.3334 25.6668 16.8557 25.6668 17.5V22.1667C25.6668 24.0997 24.0998 25.6667 22.1668 25.6667H5.8335C3.9005 25.6667 2.3335 24.0997 2.3335 22.1667V17.5C2.3335 16.8557 2.85583 16.3334 3.50016 16.3334C4.1445 16.3334 4.66683 16.8557 4.66683 17.5V22.1667C4.66683 22.811 5.18916 23.3334 5.8335 23.3334H22.1668C22.8112 23.3334 23.3335 22.811 23.3335 22.1667V17.5ZM12.8335 14.6835V3.50004C12.8335 2.85571 13.3558 2.33337 14.0002 2.33337C14.6445 2.33337 15.1668 2.85571 15.1668 3.50004V14.6835L19.0085 10.8418C19.4641 10.3861 20.2028 10.3861 20.6585 10.8418C21.1141 11.2974 21.1141 12.0361 20.6585 12.4917L14.8251 18.325C14.3695 18.7806 13.6308 18.7806 13.1752 18.325L7.34187 12.4917C6.88626 12.0361 6.88626 11.2974 7.34187 10.8418C7.79748 10.3861 8.53618 10.3861 8.99179 10.8418L12.8335 14.6835Z" fill="white"/>
</svg>
