<svg width="14" height="9" viewBox="0 0 14 9" fill="none" xmlns="http://www.w3.org/2000/svg">
<path fill-rule="evenodd" clip-rule="evenodd" d="M8.8276 7.93856C8.8276 7.50039 9.1828 7.14519 9.62097 7.14519H10.8792L8.03426 4.30025L6.21513 6.11861C5.90494 6.42879 5.40353 6.42879 5.09334 6.11861L0.894116 1.91938C0.58436 1.60962 0.584359 1.10741 0.894116 0.797651C1.20389 0.487873 1.70615 0.487898 2.0159 0.797706L5.65422 4.43673L7.47335 2.6176C7.78354 2.30741 8.28495 2.30741 8.59513 2.6176L12.001 6.02344V4.7652C12.001 4.32704 12.3562 3.97184 12.7943 3.97184C13.2325 3.97184 13.5877 4.32704 13.5877 4.7652V8.73193H9.62097C9.18281 8.73193 8.8276 8.37673 8.8276 7.93856Z" fill="#FF5A75"/>
</svg>
