<svg width="20" height="20" viewBox="0 0 20 20" fill="none" xmlns="http://www.w3.org/2000/svg">
<path fill-rule="evenodd" clip-rule="evenodd" d="M5.99992 5.05734C5.99992 4.68934 6.29859 4.66668 6.66659 4.66668H13.3333C13.7013 4.66668 13.9999 4.68934 13.9999 5.05734V5.89001L10.2979 7.74134C10.1106 7.83468 9.88925 7.83468 9.70192 7.74134L5.99992 5.89001V5.05734ZM4.85058 6.80601L9.40392 9.08268C9.77925 9.27068 10.2206 9.27068 10.5959 9.08268L15.1493 6.80601C15.2619 6.75001 15.3333 6.63468 15.3333 6.50801V4.39068C15.3333 3.65401 14.7366 3.33334 13.9999 3.33334H5.99992C5.26325 3.33334 4.66658 3.65401 4.66658 4.39068V6.50801C4.66658 6.63468 4.73792 6.75001 4.85058 6.80601ZM15.3333 14.3907C15.3333 14.7587 15.0346 15.3333 14.6666 15.3333H5.33325C4.96525 15.3333 4.66658 14.7587 4.66658 14.3907V10.0773C4.66658 9.83001 4.92725 9.66868 5.14925 9.77934C7.93325 11.1713 7.07792 10.744 9.41259 11.9113C9.78259 12.0967 10.2186 12.0993 10.5906 11.918C12.9046 10.7953 11.9319 11.2647 14.8559 9.86068C15.0766 9.75401 15.3333 9.91534 15.3333 10.1613V14.3907ZM14.7373 8.34534L10.2979 10.5653C10.1106 10.6587 9.88925 10.6587 9.70192 10.5653L5.26259 8.34534C4.37659 7.90268 3.33325 8.54734 3.33325 9.53801V15.0573C3.33325 15.794 3.92992 16.6667 4.66659 16.6667H15.3333C16.0699 16.6667 16.6666 15.794 16.6666 15.0573V9.53801C16.6666 8.54734 15.6233 7.90268 14.7373 8.34534Z" fill="#00F0FF"/>
</svg>
