<svg width="20" height="20" viewBox="0 0 20 20" fill="none" xmlns="http://www.w3.org/2000/svg">
<path fill-rule="evenodd" clip-rule="evenodd" d="M18.3334 7.32049C18.3334 8.599 17.8348 9.82511 16.9473 10.7288L10.5145 17.2828C10.2303 17.5724 9.76951 17.5724 9.48532 17.2828L3.05243 10.7288C1.20485 8.84645 1.20485 5.79454 3.05243 3.91217C4.9 2.02981 7.89551 2.02981 9.74309 3.91217L9.99989 4.17381L10.2566 3.91229C11.1437 3.00804 12.3471 2.5 13.602 2.5C14.8568 2.5 16.0602 3.00799 16.9473 3.91217C17.8348 4.81599 18.3334 6.04204 18.3334 7.32049ZM9.99989 15.4278L15.7582 9.56107C16.3388 8.96981 16.6667 8.16333 16.6667 7.32049C16.6667 6.47768 16.3388 5.67124 15.7577 5.0794C15.1831 4.49383 14.4081 4.16667 13.602 4.16667C12.7959 4.16667 12.0208 4.49386 11.446 5.07976L9.99989 6.55313L8.55363 5.07964C7.35936 3.86287 5.43616 3.86287 4.24188 5.07964C3.03059 6.31374 3.03059 8.32725 4.24188 9.56135L9.99989 15.4278Z" fill="white"/>
</svg>
