<svg width="32" height="32" viewBox="0 0 32 32" fill="none" xmlns="http://www.w3.org/2000/svg">
<rect width="32" height="32" rx="8" fill="white" fill-opacity="0.08"/>
<path fill-rule="evenodd" clip-rule="evenodd" d="M13.9995 17.1658C13.7238 16.7973 13.7991 16.2751 14.1676 15.9994C14.5362 15.7237 15.0584 15.799 15.3341 16.1675C15.7686 16.7484 16.4339 17.1119 17.1574 17.1637C17.8809 17.2155 18.5913 16.9505 19.1042 16.4374L21.0941 14.4478C22.0415 13.4668 22.0279 11.9075 21.0636 10.9432C20.0993 9.97888 18.54 9.96533 17.5677 10.9043L16.421 12.0443C16.0946 12.3688 15.567 12.3673 15.2425 12.0409C14.918 11.7145 14.9195 11.1869 15.2459 10.8624L16.4012 9.71395C18.0361 8.13489 20.6349 8.15748 22.2421 9.7647C23.8493 11.3719 23.8719 13.9707 22.2827 15.6159L20.2828 17.6158C19.4281 18.4708 18.2442 18.9125 17.0384 18.8261C15.8325 18.7398 14.7236 18.1339 13.9995 17.1658ZM18.0008 14.8342C18.2764 15.2027 18.2012 15.725 17.8326 16.0007C17.4641 16.2763 16.9418 16.201 16.6662 15.8325C16.2317 15.2517 15.5663 14.8882 14.8428 14.8363C14.1193 14.7845 13.409 15.0495 12.896 15.5626L10.9062 17.5523C9.95877 18.5332 9.97232 20.0925 10.9367 21.0568C11.901 22.0212 13.4603 22.0347 14.4309 21.0974L15.5709 19.9574C15.8963 19.632 16.4239 19.632 16.7494 19.9574C17.0748 20.2829 17.0748 20.8105 16.7494 21.1359L15.5991 22.2861C13.9641 23.8651 11.3654 23.8426 9.75814 22.2353C8.15092 20.6281 8.12833 18.0293 9.71754 16.3841L11.7174 14.3842C12.5721 13.5292 13.756 13.0876 14.9619 13.1739C16.1677 13.2603 17.2766 13.8661 18.0008 14.8342Z" fill="#009FD4"/>
</svg>
