<svg width="20" height="20" viewBox="0 0 20 20" fill="none" xmlns="http://www.w3.org/2000/svg">
<path fill-rule="evenodd" clip-rule="evenodd" d="M10.8333 9.16675H12.5C12.9602 9.16675 13.3333 9.53984 13.3333 10.0001C13.3333 10.4603 12.9602 10.8334 12.5 10.8334H9.99996C9.53972 10.8334 9.16663 10.4603 9.16663 10.0001V5.83341C9.16663 5.37318 9.53972 5.00008 9.99996 5.00008C10.4602 5.00008 10.8333 5.37318 10.8333 5.83341V9.16675ZM9.99996 18.3334C5.39759 18.3334 1.66663 14.6025 1.66663 10.0001C1.66663 5.39771 5.39759 1.66675 9.99996 1.66675C14.6023 1.66675 18.3333 5.39771 18.3333 10.0001C18.3333 14.6025 14.6023 18.3334 9.99996 18.3334ZM9.99996 16.6667C13.6819 16.6667 16.6666 13.682 16.6666 10.0001C16.6666 6.31818 13.6819 3.33341 9.99996 3.33341C6.31806 3.33341 3.33329 6.31818 3.33329 10.0001C3.33329 13.682 6.31806 16.6667 9.99996 16.6667Z" fill="white"/>
</svg>
