<svg width="20" height="20" viewBox="0 0 20 20" fill="none" xmlns="http://www.w3.org/2000/svg">
<path fill-rule="evenodd" clip-rule="evenodd" d="M17.4922 17.5C17.4922 17.9602 17.1568 18.3333 16.743 18.3333H3.25702C2.84324 18.3333 2.5078 17.9602 2.5078 17.5C2.34131 13.6111 4.83871 11.6667 10 11.6667C15.1613 11.6667 17.6587 13.6111 17.4922 17.5ZM10 13.3333C6.11111 13.3333 4.16667 14.4444 4.16667 16.6667H15.8333C15.8333 14.4444 13.8889 13.3333 10 13.3333ZM10 9.99999C7.69881 9.99999 5.83333 8.13451 5.83333 5.83332C5.83333 3.53214 7.69881 1.66666 10 1.66666C12.3012 1.66666 14.1667 3.53214 14.1667 5.83332C14.1667 8.13451 12.3012 9.99999 10 9.99999ZM10 8.33332C11.3807 8.33332 12.5 7.21403 12.5 5.83332C12.5 4.45261 11.3807 3.33332 10 3.33332C8.61929 3.33332 7.5 4.45261 7.5 5.83332C7.5 7.21403 8.61929 8.33332 10 8.33332Z" fill="#00F0FF"/>
</svg>
