<svg width="20" height="20" viewBox="0 0 20 20" fill="none" xmlns="http://www.w3.org/2000/svg">
<path fill-rule="evenodd" clip-rule="evenodd" d="M12.0884 11.0071C12.7271 10.6277 13.5202 10.6224 14.1629 10.999C15.0706 11.5307 16.6463 12.4532 17.3242 12.8498C18.1049 13.3072 18.4882 14.2179 18.2751 15.0987C18.1211 15.7287 17.7742 16.3458 17.2098 16.9102C14.6798 19.4402 11.2528 18.7244 6.26426 13.7359C1.27599 8.74759 0.560303 5.31993 3.08934 2.79089C3.65327 2.2262 4.27119 1.87821 4.89827 1.72578C5.77817 1.51013 6.6927 1.89627 7.15177 2.67876L8.99853 5.83337C9.37529 6.47608 9.37221 7.27273 8.99093 7.91188L8.40105 8.90196C8.81355 9.41636 9.24771 9.91405 9.66627 10.3326C10.0848 10.7512 10.5825 11.1853 11.0969 11.5978L12.0884 11.0071ZM16.4828 14.2865C15.8052 13.8901 14.2292 12.9674 13.3211 12.4355C13.2034 12.3665 13.0584 12.3674 12.9392 12.4383L11.6804 13.1883C11.2508 13.4443 10.7125 13.4126 10.3189 13.1053C9.66925 12.5979 9.03005 12.051 8.48898 11.5099C7.94791 10.9688 7.40097 10.3296 6.89363 9.68003C6.58624 9.28642 6.55456 8.7481 6.81057 8.31861L7.56073 7.05951C7.63126 6.94128 7.63183 6.79416 7.56206 6.67515L5.71514 3.52024C5.62924 3.37384 5.45991 3.30234 5.29382 3.34304C4.96198 3.42371 4.6155 3.61883 4.26723 3.96758C2.51844 5.71636 3.02489 8.14191 7.44155 12.5586C11.8585 16.9755 14.2834 17.482 16.0325 15.7329C16.3813 15.3842 16.5761 15.0376 16.6576 14.7043C16.6978 14.5382 16.6275 14.3713 16.4828 14.2865Z" fill="#00F0FF"/>
</svg>
