<svg width="20" height="20" viewBox="0 0 20 20" fill="none" xmlns="http://www.w3.org/2000/svg">
<path fill-rule="evenodd" clip-rule="evenodd" d="M11.8277 12.9386C11.8277 12.5004 12.1829 12.1452 12.6211 12.1452H13.8793L11.0344 9.30025L9.21525 11.1186C8.90506 11.4288 8.40365 11.4288 8.09347 11.1186L3.89424 6.91938C3.58448 6.60962 3.58448 6.10741 3.89424 5.79765C4.20402 5.48787 4.70627 5.4879 5.01602 5.79771L8.65434 9.43673L10.4735 7.6176C10.7837 7.30741 11.2851 7.30741 11.5953 7.6176L15.0011 11.0234V9.7652C15.0011 9.32704 15.3563 8.97184 15.7945 8.97184C16.2326 8.97184 16.5878 9.32704 16.5878 9.7652V13.7319H12.6211C12.1829 13.7319 11.8277 13.3767 11.8277 12.9386Z" fill="#FF5A75"/>
</svg>
