<svg width="20" height="20" viewBox="0 0 20 20" fill="none" xmlns="http://www.w3.org/2000/svg">
<path fill-rule="evenodd" clip-rule="evenodd" d="M10.0001 15.8335V14.6681C10.0001 14.5351 10.0588 14.4076 10.1632 14.3135C10.3807 14.1177 10.7333 14.1177 10.9508 14.3135L13.1703 16.3121C13.3878 16.5079 13.3878 16.8254 13.1703 17.0212L10.9508 19.0198C10.8463 19.1138 10.7047 19.1667 10.557 19.1667C10.2494 19.1667 10.0001 18.9422 10.0001 18.6653V17.5001C5.85786 17.5001 2.5 14.1423 2.5 10.0001C2.5 9.30888 2.59374 8.62928 2.77675 7.97522C2.90077 7.53201 3.3606 7.27325 3.80382 7.39726C4.24703 7.52128 4.50579 7.98111 4.38177 8.42433C4.23957 8.93254 4.16667 9.46106 4.16667 10.0001C4.16667 13.2218 6.77834 15.8335 10 15.8335H10.0001ZM10.0001 4.16657V5.33192C10.0001 5.4649 9.94144 5.59244 9.837 5.68648C9.61953 5.8823 9.26693 5.8823 9.04946 5.68648L6.82988 3.6879C6.6124 3.49209 6.6124 3.1746 6.82988 2.97878L9.04946 0.980208C9.1539 0.886172 9.29554 0.833344 9.44323 0.833344C9.75078 0.833344 10.0001 1.05784 10.0001 1.33477V2.4999C14.1423 2.4999 17.5002 5.85777 17.5002 9.9999C17.5002 10.6911 17.4065 11.3707 17.2235 12.0248C17.0994 12.468 16.6396 12.7268 16.1964 12.6028C15.7532 12.4787 15.4944 12.0189 15.6184 11.5757C15.7606 11.0675 15.8335 10.539 15.8335 9.9999C15.8335 6.77824 13.2219 4.16657 10.0002 4.16657H10.0001Z" fill="white"/>
</svg>
