<svg width="20" height="17" viewBox="0 0 20 17" fill="none" xmlns="http://www.w3.org/2000/svg">
<path fill-rule="evenodd" clip-rule="evenodd" d="M10.8334 1.50005C10.8334 0.745395 11.7563 0.379373 12.2735 0.928913L18.9402 8.01225C19.2409 8.33176 19.2424 8.82971 18.9435 9.15097L12.2769 16.3176C11.7612 16.8719 10.8334 16.5071 10.8334 15.7501V12.3518C7.49022 12.5012 4.61847 13.56 2.19201 15.5303C1.64737 15.9725 0.833374 15.585 0.833374 14.8834C0.833374 9.50405 5.08895 5.23847 10.8334 4.86062V1.50005ZM12.5 6.50005C12.5 6.50005 11.9051 6.50005 11.6667 6.50005C7.08326 6.50005 3.52899 9.29983 2.68912 13.1246C5.28587 11.4865 8.2847 10.6667 11.6667 10.6667C11.8832 10.6667 12.5 10.6667 12.5 10.6667V13.6307L17.1921 8.58671L12.5 3.60136V6.50005Z" fill="white"/>
</svg>
