<svg width="20" height="20" viewBox="0 0 20 20" fill="none" xmlns="http://www.w3.org/2000/svg">
<path fill-rule="evenodd" clip-rule="evenodd" d="M15.0264 13.848L18.0891 16.9107C18.4145 17.2361 18.4145 17.7638 18.0891 18.0892C17.7637 18.4147 17.236 18.4147 16.9106 18.0892L13.8479 15.0265C12.5649 16.0529 10.9373 16.6666 9.1665 16.6666C5.02437 16.6666 1.6665 13.3088 1.6665 9.16663C1.6665 5.02449 5.02437 1.66663 9.1665 1.66663C13.3086 1.66663 16.6665 5.02449 16.6665 9.16663C16.6665 10.9375 16.0528 12.565 15.0264 13.848ZM9.1665 15C12.3882 15 14.9998 12.3883 14.9998 9.16663C14.9998 5.94496 12.3882 3.33329 9.1665 3.33329C5.94484 3.33329 3.33317 5.94496 3.33317 9.16663C3.33317 12.3883 5.94484 15 9.1665 15Z" fill="white"/>
</svg>
