<svg width="14" height="14" viewBox="0 0 14 14" fill="none" xmlns="http://www.w3.org/2000/svg">
<path fill-rule="evenodd" clip-rule="evenodd" d="M7.00004 12.3213C4.29404 12.3213 2.05871 10.2999 1.71804 7.68525L4.17004 7.68925C4.25871 7.68992 4.34404 7.65392 4.40671 7.59059L5.62737 6.36659C5.78137 6.21259 6.04004 6.24525 6.15071 6.43392C7.62204 8.94658 7.32737 8.44458 7.69137 9.06258C7.91337 9.43925 8.43071 9.50392 8.73871 9.19458L10.1734 7.75858C10.236 7.69592 10.3214 7.66659 10.41 7.66659H12.2834C11.9427 10.3333 9.70604 12.3213 7.00004 12.3213ZM7.00004 1.64259C9.72337 1.64259 11.972 3.66658 12.2907 6.33325H9.78604C9.69404 6.33325 9.60604 6.36525 9.54337 6.43192L8.65471 7.37258C8.50137 7.53458 8.23537 7.50258 8.12337 7.30925L6.85604 5.11925L6.86271 5.11458L6.60404 4.66925C6.38337 4.29125 5.86471 4.22392 5.55537 4.53392L5.22737 4.86325L5.23337 4.85325L3.84604 6.23125C3.78337 6.29258 3.69937 6.33325 3.61137 6.33325H1.70937C2.02804 3.66658 4.27671 1.64259 7.00004 1.64259ZM7.00004 0.333252C3.31804 0.333252 0.333374 3.31858 0.333374 6.99992C0.333374 10.6819 3.31804 13.6666 7.00004 13.6666C10.682 13.6666 13.6667 10.6819 13.6667 6.99992C13.6667 3.31858 10.682 0.333252 7.00004 0.333252Z" fill="white"/>
</svg>
