<svg width="32" height="32" viewBox="0 0 32 32" fill="none" xmlns="http://www.w3.org/2000/svg">
<rect width="32" height="32" rx="10" fill="#43BEB9"/>
<path fill-rule="evenodd" clip-rule="evenodd" d="M17.7755 8.48523L21.826 12.2386C22.0559 12.4503 22.0559 12.8031 21.8382 13.0148L20.612 14.1443L19.7939 14.8503C19.5512 15.0499 19.1808 15.0499 18.9376 14.8503L17.3023 13.4622C16.8551 13.0738 16.1652 13.0738 15.7179 13.4622L14.0826 14.8503C13.8399 15.0499 13.4691 15.0499 13.2264 14.8503L12.4083 14.1443L11.182 13.0148C10.9393 12.7914 10.9393 12.4503 11.182 12.2264L15.2325 8.48523C15.9352 7.83826 17.0723 7.83826 17.7755 8.48523ZM14.7518 23.4838L8.53797 17.2416C7.58566 16.2888 8.05719 15.8916 8.72499 15.329C8.84615 15.227 8.97377 15.1195 9.10052 15.0022L10.0006 14.1644C10.2381 13.9517 10.6009 13.9517 10.8384 14.1644L12.4389 15.6407C12.876 16.0532 13.5515 16.0532 13.9891 15.6407L15.5896 14.1644C15.8271 13.9517 16.1895 13.9517 16.427 14.1644L18.0395 15.6407C18.4775 16.0532 19.1521 16.0532 19.5902 15.6407L21.1777 14.1644C21.4152 13.9517 21.7781 13.9388 22.0156 14.1644L22.9908 15.0899C23.1029 15.1951 23.2141 15.292 23.3194 15.3837C23.9652 15.9464 24.3899 16.3166 23.4657 17.2416L17.2399 23.4838C16.552 24.1721 15.4393 24.1721 14.7518 23.4838Z" fill="#FFFFFE"/>
</svg>
