<svg width="375" height="812" viewBox="0 0 375 812" fill="none" xmlns="http://www.w3.org/2000/svg">
<g clip-path="url(#clip0_2_4296)">
<rect width="375" height="812" fill="url(#paint0_linear_2_4296)"/>
<path opacity="0.2" d="M-23 796.867L96.5 866L216 796.867L96.5 611L-23 796.867ZM108.393 651.8L199.009 792.9L108.393 845.6V651.8Z" fill="#6418C3"/>
<path opacity="0.2" d="M127 631.889L291 537L455 631.889L291 887L127 631.889ZM307.322 831L431.682 637.333L307.322 565V831Z" fill="#6418C3"/>
<g opacity="0.75">
<path opacity="0.75" d="M34.9827 74.3707L50.958 87.9847L59.1715 76.8366L34.9827 74.3707Z" fill="#9EF4C4" fill-opacity="0.2"/>
<path opacity="0.75" d="M57.2385 112.416L75.8845 121.404L76.664 107.741L57.2385 112.416Z" fill="#9EF4C4" fill-opacity="0.2"/>
<path opacity="0.75" d="M110.405 344.981L131.766 324.279L135.379 345.182L110.405 344.981Z" fill="#9EF4C4" fill-opacity="0.2"/>
</g>
<path d="M53.3771 141.55L-80.5258 58.5957L-81.2072 57.7841L-81.1531 58.2336L-81.5451 58.0072L-81.0779 59.0087L-74.99 215.049L-76.0821 215.673L-74.9811 215.576L-92.5343 382.325L-92.8391 382.672L-92.7607 382.717L-92.8965 382.952L-92.2781 382.787L79.1011 417.126L74.5577 411.053L77.9688 411.664L77.9147 411.214L101.328 272.521L101.778 272.467L37.4299 209.912L53.884 141.215L53.3771 141.55ZM4.72635 170.227L-14.1738 210.749L-24.5116 187.009L4.72635 170.227ZM-24.8341 186.3L-79.1905 61.3529L4.8654 169.262L-24.8341 186.3ZM14.1748 239.87L-12.7116 212.743L36.2594 210.491L14.1748 239.87ZM-14.4188 212.803L-13.6889 212.806L13.689 240.53L-20.5621 286.094L-37.5871 263.615L-14.4188 212.803ZM-38.0333 262.939L-73.9707 215.637L-15.194 212.878L-38.0333 262.939ZM-21.0026 286.676L-21.3074 287.022L-21.1837 286.989L-90.5458 379.605L-37.8708 264.287L-21.0026 286.676ZM-20.4328 287.318L-20.4902 287.599L-19.9866 287.994L0.198074 314.597L-90.4618 380.908L-20.4328 287.318ZM-18.0386 289.328L8.98625 308.067L0.717014 314.06L-18.0386 289.328ZM-19.4224 287.379L-19.8807 286.905L49.1618 278.678L9.5836 307.575L-19.4224 287.379ZM-14.6718 211.611L-14.8197 212.049L-22.1431 212.42L-73.0686 214.799L-25.1421 187.376L-14.6718 211.611ZM-38.4407 263.645L-91.65 380.431L-74.4113 216.219L-38.4407 263.645ZM-90.5555 381.795L0.656366 315.071L29.6385 353.234L-90.5555 381.795ZM30.0846 353.91L72.7423 410.214L-90.4804 382.57L30.0846 353.91ZM1.20846 314.658L9.64661 308.553L62.8006 345.409L30.4589 353.081L1.20846 314.658ZM63.79 345.144L10.244 308.061L50.3743 278.751L63.79 345.144ZM50.266 277.852L-19.5064 286.076L14.2709 240.971L50.1787 277.279L50.266 277.852ZM14.7115 240.389L36.8867 210.853L49.971 276.009L14.7115 240.389ZM-13.3599 212.055L-13.8182 211.582L5.50153 170.152L36.308 209.682L-13.3599 212.055ZM5.33907 168.804L-79.2083 60.2972L52.623 141.951L5.74324 168.828L5.50803 168.692L5.33907 168.804ZM-25.5099 186.746L-74.3143 214.602L-80.2551 60.8428L-25.5099 186.746ZM77.3309 416.209L-67.9964 387.084L73.502 411.071L77.3309 416.209ZM30.8267 353.711L63.9105 345.841L76.9616 410.873L73.831 410.32L30.8267 353.711ZM77.4176 409.359L51.1616 278.474L100.553 272.596L77.4176 409.359ZM51.5359 277.644L50.8092 276.911L37.6045 211.058L100.152 271.842L51.5359 277.644ZM36.9053 209.191L5.98733 169.491L52.8218 142.693L36.9053 209.191Z" fill="#9EF4C4" fill-opacity="0.2"/>
<path d="M36.9233 205.542C39.3151 205.564 41.3051 207.55 41.2833 209.941C41.2614 212.333 39.2761 214.323 36.8843 214.301C34.4925 214.279 32.5025 212.294 32.5244 209.902C32.5915 207.432 34.5315 205.521 36.9233 205.542Z" fill="#9EF4C4" fill-opacity="0.2"/>
<path d="M14.0066 237.265C15.8706 237.296 17.4023 238.807 17.3715 240.671C17.3408 242.535 15.8292 244.067 13.9652 244.036C12.1012 244.005 10.5695 242.494 10.6003 240.63C10.631 238.766 12.1426 237.234 14.0066 237.265Z" fill="#9EF4C4" fill-opacity="0.2"/>
<path d="M49.7032 273.032C52.2186 273.021 54.2418 275.13 54.1747 277.6C54.1859 280.115 52.077 282.139 49.6068 282.071C47.0913 282.083 45.0681 279.974 45.1353 277.504C45.124 274.988 47.233 272.965 49.7032 273.032Z" fill="#9EF4C4" fill-opacity="0.2"/>
<path d="M51.938 137.165C55.0597 137.19 57.4628 139.728 57.4829 142.771C57.4578 145.893 54.9204 148.296 51.8771 148.316C48.7554 148.291 46.3523 145.753 46.3322 142.71C46.312 139.667 48.8163 137.14 51.938 137.165Z" fill="#9EF4C4" fill-opacity="0.2"/>
<path d="M101.237 268.702C103.752 268.691 105.776 270.799 105.708 273.27C105.72 275.785 103.611 277.808 101.141 277.741C98.6251 277.752 96.6019 275.643 96.6691 273.173C96.6578 270.658 98.7215 268.713 101.237 268.702Z" fill="#9EF4C4" fill-opacity="0.2"/>
<path d="M64.2065 342.249C66.3963 342.258 68.0727 344.063 68.1082 346.174C68.0984 348.364 66.2942 350.04 64.1829 350.076C61.9932 350.066 60.3168 348.262 60.2813 346.15C60.291 343.961 62.0621 342.16 64.2065 342.249Z" fill="#9EF4C4" fill-opacity="0.2"/>
<path d="M139.91 388.041L148.758 362.937L127.188 367.524L139.91 388.041ZM147.35 364.11L139.672 385.918L128.657 368.058L147.35 364.11Z" fill="#9EF4C4" fill-opacity="0.2"/>
<path d="M105.491 233.628L118.946 208.151L88.3818 230.126L105.491 233.628ZM105.024 232.626L90.5627 229.608L116.293 211.115L105.024 232.626Z" fill="#9EF4C4" fill-opacity="0.2"/>
<path d="M62.6774 215.077L66.5254 198.272L55.9072 202.177L62.6774 215.077ZM65.3064 199.659L62.4309 212.425L57.2975 202.666L65.3064 199.659Z" fill="#9EF4C4" fill-opacity="0.2"/>
<path d="M85.6837 79.8058L76.1529 41.2683L59.1668 47.8743L85.6837 79.8058ZM83.7907 76.2039L60.6476 48.2065L75.4739 42.4444L83.7907 76.2039Z" fill="#9EF4C4" fill-opacity="0.2"/>
</g>
<defs>
<linearGradient id="paint0_linear_2_4296" x1="187.5" y1="0" x2="187.5" y2="812" gradientUnits="userSpaceOnUse">
<stop stop-color="#10A9B0"/>
<stop offset="1" stop-color="#6E21D1"/>
</linearGradient>
<clipPath id="clip0_2_4296">
<rect width="375" height="812" fill="white"/>
</clipPath>
</defs>
</svg>
